<?xml version="1.0" encoding="utf-8"?>
<!-- Generator: Adobe Illustrator 21.1.0, SVG Export Plug-In . SVG Version: 6.00 Build 0)  -->
<svg version="1.1" id="Layer_1" xmlns="http://www.w3.org/2000/svg" xmlns:xlink="http://www.w3.org/1999/xlink" x="0px" y="0px"
	 viewBox="0 0 24 24" style="enable-background:new 0 0 24 24;" xml:space="preserve">
<style type="text/css">
	.st0{fill:#FFFFFF;}
</style>
<g>
	<path class="st0" d="M8.3,9.3c-0.1,0-0.1,0-0.2,0C7.9,9.2,7.8,8.9,7.9,8.7l2.7-6.4c0.1-0.2,0.3-0.3,0.6-0.2
		c0.2,0.1,0.3,0.3,0.2,0.6L8.7,9C8.6,9.2,8.4,9.3,8.3,9.3"/>
	<path class="st0" d="M15.7,9.3c-0.2,0-0.3-0.1-0.4-0.3l-2.7-6.4c-0.1-0.2,0-0.5,0.2-0.6c0.2-0.1,0.5,0,0.6,0.2l2.7,6.4
		c0.1,0.2,0,0.5-0.2,0.6C15.8,9.3,15.8,9.3,15.7,9.3"/>
	<path class="st0" d="M7.7,18.8c-0.2,0-0.4-0.2-0.4-0.4l-0.4-4c0-0.2,0.2-0.4,0.4-0.4c0.2,0,0.4,0.2,0.4,0.4l0.4,4
		C8.1,18.6,7.9,18.8,7.7,18.8"/>
	<path class="st0" d="M12,18.8c-0.2,0-0.4-0.2-0.4-0.4v-4c0-0.2,0.2-0.4,0.4-0.4c0.2,0,0.4,0.2,0.4,0.4v4
		C12.4,18.6,12.2,18.8,12,18.8"/>
	<path class="st0" d="M16.3,18.8c-0.2,0-0.4-0.2-0.4-0.4l0.4-4c0-0.2,0.2-0.4,0.4-0.4c0.2,0,0.4,0.2,0.4,0.4l-0.4,4
		C16.8,18.6,16.6,18.8,16.3,18.8"/>
	<polygon class="st0" points="13.2,7.2 10.8,7.2 10.4,8 13.6,8 	"/>
	<path class="st0" d="M22.8,7.2h-5.9L17.2,8h5.5C22.9,8,23,8.1,23,8.3v2.2c0,0.1-0.1,0.2-0.2,0.2H1.2c-0.1,0-0.2-0.1-0.2-0.2V8.3
		C1,8.1,1.1,8,1.2,8h5.5l0.4-0.8H1.2c-0.6,0-1.1,0.5-1.1,1.1v2.2c0,0.6,0.5,1.1,1.1,1.1h21.5c0.6,0,1.1-0.5,1.1-1.1V8.3
		C23.8,7.7,23.3,7.2,22.8,7.2"/>
	<path class="st0" d="M20.8,11.5c0.1,0,0.1,0,0.1,0c0,0,0,0.1,0,0.1l-1.1,9.2c0,0.1-0.1,0.3-0.3,0.3H4.4c-0.1,0-0.3-0.1-0.3-0.3
		l-1.1-9.2c0-0.1,0-0.1,0-0.1c0,0,0.1,0,0.1,0h-1c0,0.1,0,0.2,0,0.3L3.3,21c0.1,0.6,0.6,1,1.1,1h15.1c0.6,0,1.1-0.4,1.1-1l1.1-9.2
		c0-0.1,0-0.2,0-0.3H20.8z"/>
</g>
</svg>
