<?xml version="1.0" encoding="utf-8"?>
<!-- Generator: Adobe Illustrator 21.1.0, SVG Export Plug-In . SVG Version: 6.00 Build 0)  -->
<svg version="1.1" id="Layer_1" xmlns="http://www.w3.org/2000/svg" xmlns:xlink="http://www.w3.org/1999/xlink" x="0px" y="0px"
	 viewBox="0 0 24 24" style="enable-background:new 0 0 24 24;" xml:space="preserve">
<style type="text/css">
	.st0{fill:#616262;}
</style>
<g>
	<path id="coin-7" class="st0" d="M17.9,11c2.7,0,5,2.2,5,5s-2.2,5-5,5s-5-2.2-5-5S15.2,11,17.9,11z M17.9,10C14.7,10,12,12.7,12,16
		s2.7,5.9,5.9,5.9s5.9-2.7,5.9-5.9S21.2,10,17.9,10z M18.4,18.4v0.5h-0.5v-0.5c-0.5,0-1-0.1-1.5-0.4l0.2-0.8
		c0.5,0.2,1.1,0.4,1.6,0.3c0.6-0.1,0.7-0.7,0.1-1c-0.5-0.2-1.9-0.4-1.9-1.6c0-0.7,0.5-1.3,1.5-1.4V13h0.5v0.5c0.4,0,0.8,0.1,1.2,0.2
		l-0.2,0.8c-0.4-0.1-0.8-0.3-1.2-0.2c-0.7,0-0.8,0.7-0.3,0.9c0.8,0.4,2,0.7,2,1.8C19.9,17.8,19.3,18.3,18.4,18.4z M10.6,13H8v-2h3.7
		C11.3,11.6,10.9,12.3,10.6,13z M10,16H8v-2h2.2C10.1,14.6,10,15.3,10,16z M12.7,10H8V8H15v0.6C14.1,9,13.4,9.4,12.7,10z M15,4.1H8
		v-2H15V4.1z M15,7H8v-2H15V7z M10.6,18.9H8v-2h2.1C10.2,17.6,10.3,18.3,10.6,18.9z M0.1,8H7v2H0.1V8z M0.1,11H7v2H0.1V11z
		 M12.7,21.9H8v-2h3.1C11.5,20.7,12.1,21.3,12.7,21.9z M0.1,17H7v2H0.1V17z M0.1,19.9H7v2H0.1V19.9z M0.1,14H7v2H0.1V14z"/>
</g>
</svg>
