<?xml version="1.0" encoding="utf-8"?>
<!-- Generator: Adobe Illustrator 21.1.0, SVG Export Plug-In . SVG Version: 6.00 Build 0)  -->
<svg version="1.1" id="Layer_1" xmlns="http://www.w3.org/2000/svg" xmlns:xlink="http://www.w3.org/1999/xlink" x="0px" y="0px"
	 viewBox="0 0 24 24" style="enable-background:new 0 0 24 24;" xml:space="preserve">
<style type="text/css">
	.st0{fill:#FFFFFF;}
</style>
<g>
	<path class="st0" d="M23,8.4c-0.1,0.7-0.6,1.4-1.8,1.4c-0.9,0-1.6-0.6-2-1.9c0,0,0-0.1,0-0.1c0-0.1-0.1-0.2-0.1-0.3l-1.9-5.2H20
		c0.2,0,0.4,0.1,0.5,0.3l2.3,4.8C23,7.9,23.1,8.2,23,8.4 M18.4,8.8c-0.2,0.6-0.9,1-1.8,1c-1,0-1.6-0.6-1.8-1.6L14,2.3h2.3l2,5.5
		C18.4,8.2,18.5,8.5,18.4,8.8 M12,9.9c-0.9,0-1.9-0.5-1.9-1.5l0.9-6h1h1.1l0.8,6C13.9,9.3,12.9,9.9,12,9.9 M7.4,9.9
		c-0.9,0-1.5-0.4-1.8-1c-0.1-0.3,0-0.6,0.1-1l2-5.5h2.4L9.2,8.3C9,9.3,8.4,9.9,7.4,9.9 M4.9,7.6c0,0.1-0.1,0.2-0.1,0.3
		c0,0,0,0.1,0,0.1c-0.4,1.3-1.1,1.9-2,1.9C1.5,9.9,1.1,9.1,1,8.4c-0.1-0.3,0-0.6,0.2-1l2.3-4.8C3.6,2.5,3.8,2.3,4,2.3h2.8L4.9,7.6z
		 M23.6,7.1l-2.3-4.8c-0.2-0.5-0.8-0.8-1.3-0.8h-8H4c-0.6,0-1.1,0.3-1.3,0.8L0.4,7.1C0.1,7.6,0,8.2,0.1,8.6c0.3,1.3,1.3,2.1,2.6,2.1
		c0.9,0,1.7-0.4,2.2-1.2c0.4,0.8,1.3,1.2,2.4,1.2c1,0,1.8-0.4,2.2-1.1c0.5,0.7,1.3,1.1,2.4,1.1c1,0,1.9-0.4,2.4-1.1
		c0.5,0.7,1.3,1.1,2.2,1.1c1.1,0,1.9-0.5,2.4-1.2c0.6,0.8,1.3,1.2,2.2,1.2c1.4,0,2.4-0.8,2.6-2.1C24,8.2,23.9,7.6,23.6,7.1"/>
	<path class="st0" d="M7.1,15.4H6.2c-0.2,0-0.4-0.2-0.4-0.4c0-0.2,0.2-0.4,0.4-0.4h0.9c0.2,0,0.4,0.2,0.4,0.4
		C7.5,15.2,7.3,15.4,7.1,15.4"/>
	<path class="st0" d="M18.6,16.8c-0.1,0-0.2,0-0.3-0.1l-3.2-3.2c-0.2-0.2-0.2-0.4,0-0.6c0.2-0.2,0.4-0.2,0.6,0l3.2,3.2
		c0.2,0.2,0.2,0.4,0,0.6C18.8,16.7,18.7,16.8,18.6,16.8"/>
	<path class="st0" d="M19.2,14.7c-0.1,0-0.2,0-0.3-0.1l-1.7-1.7c-0.2-0.2-0.2-0.4,0-0.6c0.2-0.2,0.4-0.2,0.6,0l1.7,1.7
		c0.2,0.2,0.2,0.4,0,0.6C19.4,14.7,19.3,14.7,19.2,14.7"/>
	<path class="st0" d="M2.3,21.7h19.6v-1.4H2.3V21.7z M22.3,22.5H1.8c-0.2,0-0.4-0.2-0.4-0.4v-2.2c0-0.2,0.2-0.4,0.4-0.4h20.5
		c0.2,0,0.4,0.2,0.4,0.4v2.2C22.8,22.3,22.6,22.5,22.3,22.5"/>
	<path class="st0" d="M21.7,11.9c0-0.2-0.2-0.4-0.4-0.4c-0.2,0-0.4,0.2-0.4,0.4v7.5h0.9V11.9z"/>
	<path class="st0" d="M3.2,19.4v-7.7c0-0.2-0.2-0.4-0.4-0.4c-0.2,0-0.4,0.2-0.4,0.4v7.7H3.2z"/>
	<path class="st0" d="M8.9,19.4v-7.6c0-0.2-0.2-0.4-0.4-0.4c-0.2,0-0.4,0.2-0.4,0.4v7.6H8.9z"/>
</g>
</svg>
