<?xml version="1.0" encoding="utf-8"?>
<!-- Generator: Adobe Illustrator 21.1.0, SVG Export Plug-In . SVG Version: 6.00 Build 0)  -->
<svg version="1.1" id="Layer_1" xmlns="http://www.w3.org/2000/svg" xmlns:xlink="http://www.w3.org/1999/xlink" x="0px" y="0px"
	 viewBox="0 0 24 24" style="enable-background:new 0 0 24 24;" xml:space="preserve">
<style type="text/css">
	.st0{fill:#FFFFFF;}
</style>
<path class="st0" d="M21.9,21.9H2.1v-0.5c0-1.9,1.9-6.6,5.4-8.1l0.2-0.1L8,13.3c1.2,0.9,2.5,1.3,4,1.3c1.4,0,2.8-0.5,4-1.3l0.2-0.2
	l0.2,0.1c3.4,1.5,5.4,6.1,5.4,8.1V21.9z M3.1,20.9h17.8c-0.3-1.9-2-5.4-4.6-6.7c-1.3,0.9-2.7,1.4-4.3,1.4c-1.5,0-3-0.5-4.3-1.4
	C5.1,15.5,3.4,19.1,3.1,20.9z M12,14c-3.3,0-5.9-2.7-5.9-5.9c0-3.3,2.7-5.9,5.9-5.9s5.9,2.7,5.9,5.9C17.9,11.4,15.3,14,12,14z
	 M12,3.1c-2.8,0-5,2.3-5,5c0,2.8,2.3,5,5,5s5-2.3,5-5C17,5.3,14.8,3.1,12,3.1z"/>
</svg>
