<?xml version="1.0" encoding="utf-8"?>
<!-- Generator: Adobe Illustrator 23.0.1, SVG Export Plug-In . SVG Version: 6.00 Build 0)  -->
<svg version="1.1" id="Layer_1" xmlns="http://www.w3.org/2000/svg" xmlns:xlink="http://www.w3.org/1999/xlink" x="0px" y="0px"
	 viewBox="0 0 230 230" style="enable-background:new 0 0 230 230;" xml:space="preserve">
<style type="text/css">
	.st0{fill:#F6EC8B;}
	.st1{fill:#FFFFFF;}
	.st2{fill:#8C6378;}
	.st3{fill:#CBB8C0;}
	.st4{fill:#587D38;}
	.st5{fill:#A0B43A;}
	.st6{fill:#ACBD37;}
	.st7{fill:#C3996B;}
	.st8{fill:#C49A6C;}
	.st9{fill:#A5805B;}
	.st10{fill:#80BC41;}
	.st11{fill:#C43A4B;}
	.st12{fill:#AF3547;}
	.st13{fill:#E87200;}
	.st14{fill:#D46427;}
	.st15{fill:#6F9E40;}
	.st16{fill:#EC1E24;}
</style>
<g>
	<path class="st0" d="M212.96,115.14c0,8.89-1.18,17.5-3.38,25.69c-0.14,0.55-0.3,1.09-0.46,1.63c0,0.01,0,0.02-0.01,0.02
		c-0.01,0.02-0.01,0.04-0.02,0.06c-2.33,8.08-5.67,15.72-9.87,22.8c-1.48,2.49-3.06,4.91-4.75,7.25c-2.92,4.06-6.13,7.88-9.62,11.45
		c-1.4,1.43-2.83,2.81-4.32,4.15c-17.48,15.81-40.65,25.45-66.07,25.45c-25.44,0-48.63-9.65-66.11-25.48
		c-1.46-1.34-2.89-2.71-4.28-4.12c-3.48-3.56-6.7-7.38-9.62-11.43c-1.7-2.36-3.29-4.8-4.78-7.31c-4.19-7.06-7.52-14.69-9.85-22.75
		c-0.01-0.03-0.02-0.05-0.02-0.08c-0.01-0.01-0.01-0.02-0.01-0.02c-0.16-0.54-0.31-1.07-0.45-1.61c-2.2-8.19-3.38-16.8-3.38-25.69
		c0-36.69,20.06-68.69,49.81-85.63c0.64-0.37,1.28-0.72,1.93-1.07c0.18-0.1,0.36-0.19,0.54-0.29c0.55-0.29,1.1-0.58,1.64-0.86h0.01
		c0.13-0.06,0.25-0.13,0.39-0.19c0.8-0.4,1.61-0.79,2.42-1.17c0.01,0,0.01,0,0.01,0c0.3-0.14,0.6-0.29,0.91-0.42
		c0.1-0.05,0.19-0.09,0.29-0.13c0.48-0.22,0.95-0.43,1.43-0.63c1.4-0.61,2.81-1.19,4.24-1.73h0.01c0.18-0.07,0.36-0.14,0.54-0.2
		c0.2-0.07,0.39-0.14,0.59-0.22c1.13-0.41,2.26-0.8,3.4-1.17c0.04-0.02,0.08-0.03,0.13-0.04c0.14-0.05,0.29-0.1,0.43-0.14
		c0.67-0.22,1.34-0.42,2.02-0.62c8.8-2.58,18.12-3.97,27.76-3.97C168.87,16.65,212.96,60.74,212.96,115.14z"/>
	<path class="st1" d="M114.47,16.65c54.39,0,98.49,44.1,98.49,98.49c0,8.89-1.18,17.5-3.38,25.69c-0.14,0.55-0.3,1.09-0.46,1.63
		c0,0.01,0,0.02-0.01,0.02c-0.01,0.02-0.01,0.04-0.02,0.06c-2.33,8.08-5.67,15.72-9.87,22.8c-1.48,2.49-3.06,4.91-4.75,7.25
		c-2.92,4.06-6.13,7.88-9.62,11.45c-1.4,1.43-2.83,2.81-4.32,4.15c-17.48,15.81-40.65,25.45-66.07,25.45
		c-25.44,0-48.63-9.65-66.11-25.48c-1.46-1.34-2.89-2.71-4.28-4.12c-3.48-3.56-6.7-7.38-9.62-11.43c-1.7-2.36-3.29-4.8-4.78-7.31
		c-4.19-7.06-7.52-14.69-9.85-22.75c-0.01-0.03-0.02-0.05-0.02-0.08c-0.01-0.01-0.01-0.02-0.01-0.02c-0.16-0.54-0.31-1.07-0.45-1.61
		c-2.2-8.19-3.38-16.8-3.38-25.69c0-36.69,20.06-68.69,49.81-85.63c0.64-0.37,1.28-0.72,1.93-1.07c0.18-0.1,0.36-0.19,0.54-0.29
		c0.55-0.29,1.1-0.58,1.64-0.86h0.01c0.13-0.06,0.25-0.13,0.39-0.19c0.8-0.4,1.61-0.79,2.42-1.17c0.01,0,0.01,0,0.01,0
		c0.3-0.14,0.6-0.29,0.91-0.42c0.1-0.05,0.19-0.09,0.29-0.13c0.48-0.22,0.95-0.43,1.43-0.63c1.4-0.61,2.81-1.19,4.24-1.73h0.01
		c0.18-0.07,0.36-0.14,0.54-0.2c0.2-0.07,0.39-0.14,0.59-0.22c1.13-0.41,2.26-0.8,3.4-1.17c0.04-0.02,0.08-0.03,0.13-0.04
		c0.14-0.05,0.29-0.1,0.43-0.14c0.67-0.22,1.34-0.42,2.02-0.62C95.52,18.03,104.83,16.65,114.47,16.65 M114.47,4.61
		c-10.59,0-21.07,1.5-31.15,4.45c-0.85,0.25-1.55,0.47-2.22,0.68c-0.13,0.04-0.27,0.08-0.4,0.13c-0.16,0.05-0.31,0.1-0.47,0.15
		c-0.91,0.29-1.82,0.6-2.78,0.94H77.4l-2.06,0.78c-1.69,0.64-3.25,1.27-4.76,1.94c-0.15,0.06-0.3,0.13-0.46,0.2h-0.07l-1.61,0.75
		c-0.23,0.11-0.45,0.21-0.64,0.3l-0.17,0.08c-0.17,0.08-0.34,0.16-0.5,0.24h-0.14l-2.6,1.34c-0.61,0.31-1.21,0.62-1.81,0.95
		l-0.51,0.27l-0.04,0.02l-0.04,0.02c-0.84,0.46-1.53,0.84-2.17,1.21c-16.66,9.49-30.64,23.22-40.43,39.71
		c-10.1,17-15.44,36.49-15.44,56.37c0,9.75,1.28,19.45,3.8,28.81c0.01,0.05,0.03,0.09,0.04,0.14v3.32l1.4,1.4
		c2.51,7.87,5.93,15.47,10.17,22.61c1.64,2.78,3.45,5.54,5.36,8.2c3.27,4.54,6.9,8.85,10.79,12.83c1.48,1.51,3.04,3.01,4.76,4.59
		l0.02,0.02l0.02,0.02c20.36,18.44,46.71,28.59,74.19,28.59c27.46,0,53.79-10.14,74.14-28.56c1.66-1.5,3.28-3.07,4.84-4.66
		c3.9-3.98,7.54-8.31,10.8-12.84c1.87-2.6,3.66-5.33,5.32-8.13c4.24-7.15,7.66-14.75,10.18-22.62l1.4-1.4l0-3.34
		c0.02-0.07,0.04-0.13,0.05-0.2c2.51-9.36,3.79-19.04,3.79-28.79c0-14.92-2.92-29.39-8.69-43.03
		c-5.57-13.16-13.54-24.98-23.68-35.13c-10.15-10.15-21.97-18.11-35.13-23.68C143.87,7.53,129.39,4.61,114.47,4.61L114.47,4.61z"/>
</g>
<path class="st2" d="M115.87,54.39c-0.86,0.57-1.79,1.11-2.82,1.63c-3.43,1.73-7.2,2.73-10.82,4.01c-4.47,1.58-8.63,4.31-9.79,9.23
	c-1.01,4.26,0.56,9.13,4.47,11.36c4.28,2.45,9.73,1.2,14.06-0.37c8.46-3.07,15.31-7.82,20.14-15.57c2.98-4.78,4.24-9.99,5.94-15.24
	c1.4-4.31,2.73-10.57-1.14-14.06c-1.89-1.7-4.57-1.35-6.4,0.15c-3.88,3.17-5.34,8.45-7.83,12.6
	C120.01,50.91,118.23,52.81,115.87,54.39z"/>
<path class="st3" d="M102.85,67.95c-2.22,1.45-4.73,1.53-5.61,0.18c-0.88-1.35,0.21-3.62,2.44-5.08c2.22-1.45,4.73-1.53,5.61-0.18
	C106.16,64.23,105.07,66.5,102.85,67.95z"/>
<path class="st4" d="M132.94,36.4c-0.85-3.85,3.14-13.4,4.22-14.3c1.49,0,3.54,0.73,4.14,1.35c-1.72,2.42-6.01,10.07-6.29,12.71
	C133.9,36.01,132.94,36.4,132.94,36.4z"/>
<path class="st5" d="M134.09,33.04c-4.53-0.48-8.55,1.91-9.86,6.34c-0.03,0.07-0.03,0.07-0.01,0c1.49-1.47,3.46-2.53,5.58-3.23
	C134.23,34.68,134.09,33.04,134.09,33.04z"/>
<path class="st5" d="M138.57,46.59c-0.63-2.02-1.33-5.22-1.87-6.41c-0.73-1.6-4.55-6.3-2.07-6.7c2.69-0.44,4.55,4.6,4.84,6.53
	C139.72,41.57,139.32,44.52,138.57,46.59z"/>
<path class="st6" d="M131.97,33.36c0.82,2.62-0.09,6.61-0.69,9.24c1.28-1.59,6.9-7.37,4.07-9.11c-0.91-0.56-2.57-0.75-3.59-0.44
	L131.97,33.36z"/>
<path class="st7" d="M132.83,76.3l-11.21-9.7l29.91-34.57c1.59-1.83,4.36-2.03,6.19-0.45l4.58,3.96c1.83,1.59,2.03,4.36,0.45,6.19
	L132.83,76.3z"/>
<path class="st7" d="M132.83,76.3l-11.21-9.7l29.91-34.57c1.59-1.83,4.36-2.03,6.19-0.45l4.58,3.96c1.83,1.59,2.03,4.36,0.45,6.19
	L132.83,76.3z"/>
<path class="st8" d="M132.83,76.3l-11.21-9.7l29.91-34.57c1.59-1.83,4.36-2.03,6.19-0.45l4.58,3.96c1.83,1.59,2.03,4.36,0.45,6.19
	L132.83,76.3z"/>
<path class="st9" d="M159.68,33.29l0.65,0.56c2.92,2.52,3.24,6.94,0.71,9.85L132.83,76.3l-5.89-5.1L159.68,33.29z"/>
<path class="st10" d="M99.32,34.68c6.68-1.55,11.28,5.45,11.28,5.45C98.62,43.14,99.32,34.68,99.32,34.68z"/>
<polygon class="st11" points="110.72,41.81 106.25,36.07 106.75,35.17 111.76,41.56 "/>
<path class="st12" d="M127.71,53.17c-0.28,2.62-1.31,4.98-2.86,6.88c-2.75,3.42-7.13,5.4-11.82,4.88
	c-7.29-0.8-12.56-7.37-11.75-14.68c0.44-4.03,2.65-7.45,5.78-9.55c0,0,0.01,0,0.02-0.01c2.51-1.7,5.62-2.54,8.86-2.18
	c2.43,0.27,4.65,1.17,6.48,2.54c-2.16,0.78-3.14,3.66-2.16,6.48c0.97,2.83,3.54,4.52,5.72,3.78c0.69-0.24,1.27-0.69,1.7-1.3
	C127.82,51.04,127.83,52.1,127.71,53.17z"/>
<path class="st11" d="M127.71,53.17c-0.28,2.62-1.31,4.98-2.86,6.88c-2.51,1.68-5.61,2.52-8.84,2.16
	c-7.29-0.8-12.56-7.37-11.76-14.68c0.29-2.59,1.3-4.93,2.81-6.83c0,0,0.01,0,0.02-0.01c2.51-1.7,5.62-2.54,8.86-2.18
	c2.43,0.27,4.65,1.17,6.48,2.54c-2.16,0.78-3.14,3.66-2.16,6.48c0.97,2.83,3.54,4.52,5.72,3.78c0.69-0.24,1.27-0.69,1.7-1.3
	C127.82,51.04,127.83,52.1,127.71,53.17z"/>
<path class="st10" d="M79.08,34.64c0.42,0.79,0.35,1.62,0.48,2.48c0.04,0.25,0.21,0.58,0.21,0.8c-0.01,0.45-0.25,0.64-0.58,0.96
	c0.27,0.07,0.54,0.14,0.81,0.21c-0.09-0.44,0.01-0.89-0.08-1.32c-0.09-0.42-0.32-0.76-0.55-1.12c-0.38-0.59-0.32-1.22,0.15-1.71
	c0.26-0.27,0.53-0.5,0.76-0.8c-0.29-0.04-0.59-0.08-0.88-0.12c0.12,0.61-0.04,1.23,0.12,1.83c0.15,0.56,0.88,1.12,0.74,1.72
	c0.24-0.1,0.47-0.19,0.71-0.29c-0.71-0.47-1.77-1.36-1.41-2.33c-0.29,0.04-0.59,0.08-0.88,0.12c0.18,0.19,0.3,0.41,0.36,0.67
	c0.07-0.18,0.15-0.36,0.22-0.55c-0.2,0.14-0.82-0.36-1.09-0.35c-0.3,0.01-0.43,0.14-0.6,0.38c-0.35,0.52,0.49,1,0.83,0.49
	c0.03-0.05,0.06-0.09,0.09-0.14c-0.14,0.08-0.28,0.16-0.42,0.24c0.2-0.02,0.6,0.36,0.85,0.4c0.31,0.05,0.57-0.01,0.82-0.19
	c0.2-0.14,0.25-0.32,0.22-0.55c-0.05-0.35-0.25-0.62-0.45-0.9c-0.25-0.35-0.73-0.29-0.88,0.12c-0.53,1.42,0.77,2.71,1.85,3.42
	c0.25,0.17,0.64,0,0.71-0.29c0.16-0.71-0.07-1.01-0.39-1.61c-0.44-0.82-0.3-1.56-0.47-2.45c-0.09-0.46-0.66-0.41-0.88-0.12
	c-0.58,0.76-1.58,1.18-1.45,2.29c0.06,0.52,0.37,0.9,0.62,1.33c0.39,0.68,0.28,1.34,0.43,2.07c0.08,0.37,0.56,0.45,0.81,0.21
	c0.7-0.69,1.04-1.12,0.77-2.06c-0.33-1.14-0.15-2.27-0.72-3.35C79.63,33.6,78.79,34.09,79.08,34.64L79.08,34.64z"/>
<path class="st10" d="M73.07,26.23c-0.11-0.11-0.23-0.22-0.35-0.31c0.3-0.14,0.6-0.29,0.91-0.42c0.1-0.05,0.19-0.09,0.29-0.13
	c0.48-0.22,0.95-0.43,1.43-0.63c-0.06,0.25-0.1,0.51-0.14,0.76l-0.34,2.5l-0.08-0.08l-1.63-1.6L73.07,26.23z"/>
<path class="st10" d="M79.32,38.96c0.04,0.24,0.05,0.48,0.04,0.7c0,0.11,0,0.21-0.01,0.31l-0.57-0.66l-0.42-0.48
	c0.01-0.07,0.01-0.15,0-0.23c-0.01-0.73-0.42-1.75-1.17-2.88c-0.31,0.23-2.18,1.31-2.53,1.46c-1.49,0.58-3.24,0.32-4.8-0.73
	c-1.44-0.97-2.65-2.53-3.38-4.38c-0.35-0.87-0.57-1.74-0.67-2.58c0.64-0.37,1.28-0.72,1.93-1.07c0.18-0.1,0.36-0.19,0.54-0.29
	c-0.01,0.29,0,0.6,0.03,0.9c0.03,0.26,0.07,0.53,0.13,0.8c-0.01,0.01-0.01,0.01,0,0.01c0.09,0.43,0.22,0.87,0.39,1.3
	c0.54,1.36,1.43,2.53,2.44,3.21c0.51,0.34,1.5,0.85,2.46,0.48c0.4-0.16,0.73-0.45,1-0.87l0.34-0.54l0.61-0.98l0.22,0.28l0.89,1.13
	c0.34,0.43,0.64,0.84,0.9,1.25c0.09,0.13,0.17,0.26,0.25,0.39c0.03,0.04,0.06,0.09,0.08,0.13c0.04,0.07,0.08,0.13,0.11,0.19
	c0.01,0.01,0.02,0.02,0.02,0.04c0.02,0.02,0.03,0.05,0.04,0.07c0.47,0.81,0.8,1.58,0.98,2.29c0.05,0.2,0.1,0.4,0.13,0.58
	c0.01,0.04,0.01,0.08,0.02,0.13C79.32,38.93,79.32,38.94,79.32,38.96z"/>
<path class="st10" d="M86.11,27.06c-0.99,2.72-3.32,5.55-5.52,6.28l1.02,3.6l0.01,0.04l0.17,0.6l0.16,0.57l-0.78-0.25l-0.02-0.01
	l-0.1-0.03l-0.14-0.51l-0.01-0.03l-0.01-0.02l-0.02-0.07l-0.81-2.83L80,34.1l-0.14-0.49l-0.05-0.16l-0.9-3.16l1.11-0.11l0.39-0.04
	c1.17-0.12,1.72-0.33,2.4-1.68c0.27-0.55,0.57-1.28,0.93-2.27c0.23-0.63,0.4-1.27,0.5-1.9c0.17-0.98,0.18-1.93,0.05-2.77
	c-0.01-0.05-0.01-0.1-0.02-0.15c0.14-0.05,0.29-0.1,0.43-0.14c0.67-0.22,1.34-0.42,2.02-0.62C87.11,22.52,86.94,24.78,86.11,27.06z"
	/>
<path class="st13" d="M98.12,81.56c1.27,0.59,2.44,1.22,3.63,1.95c1.81,1.1,4.1-0.72,3.55-2.73c-0.64-2.32-1.11-4.79-2.14-6.98
	c-1.22-2.6-2.7-4.72-3.54-7.52c-1.35,0.78-2.69,1.57-4.04,2.35c1.37,1.3,1.35,6.53,0.87,8.28c1.18-0.48,2.37-0.96,3.55-1.44
	c-0.87-0.67-1.34-2.46-1.99-3.37c-0.72-1.01-1.59-1.89-2.38-2.84c-2.36-2.84-3.95-6.03-5.62-9.29c-1.5-2.92-3.1-5.74-5-8.43
	c-1.91-2.7-5.09-5.56-6.38-8.56c0,0.81,0,1.63,0,2.44c0.66-0.96,3.36-2.54,4.49-3.1c1.88-0.94,2.24-0.97,3.59,0.39
	c1.87,1.88,3.18,5.42,4.3,7.8c2.47,5.24,6.24,12.44,2.3,17.9c1.1-0.29,2.2-0.58,3.31-0.87c-2.39-1.8-4.73-4.08-5.69-6.99
	c-0.79-2.4-0.22-4.96-0.64-7.43c-0.74-4.39-3.22-8.06-6.28-11.19c-0.72-0.73-2.04-0.95-2.93-0.38c-5.42,3.52,0.67,8.13,3.57,10.86
	c1.76,1.66,4.63,0.02,4.04-2.35c-0.76-3.02-1.51-6.04-2.27-9.06c-1.35,0.78-2.69,1.57-4.04,2.35c6.18,5.57,8.76,15.93,9.56,23.9
	c0.31,3.07,5.15,3.1,4.83,0c-0.93-9.23-3.8-20.85-10.98-27.32c-1.78-1.6-4.64-0.05-4.04,2.35c0.76,3.02,1.51,6.04,2.27,9.06
	c1.35-0.78,2.69-1.57,4.04-2.35c-0.94-0.89-3.28-4.1-4.55-3.27c-0.98-0.13-1.95-0.25-2.93-0.38c2.42,2.47,4.4,5.26,4.92,8.75
	c0.39,2.6-0.03,5.18,0.76,7.73c1.29,4.2,4.5,7.32,7.91,9.88c1.11,0.84,2.62,0.09,3.31-0.87c5.08-7.04,0.91-15.93-2.3-22.78
	c-1.16-2.47-2.52-4.8-3.91-7.15c-0.74-1.24-1.48-3.25-2.85-4c-2.97-1.64-7.36,0.85-9.76,2.48c-2.1,1.43-5.29,3.1-4.21,6.02
	c0.67,1.83,2.61,3.53,3.79,5.08c1.75,2.29,3.48,4.61,4.97,7.08c2.54,4.19,4.28,8.83,7.17,12.81c1.51,2.09,3.37,3.85,4.68,6.08
	c0.79,1.35,1.23,2.19,2.5,3.17c1.27,0.98,3.18-0.1,3.55-1.44c1.02-3.7,0.87-10.14-2.11-12.99c-1.7-1.62-4.76-0.03-4.04,2.35
	c1.53,5.07,4.26,9.36,5.68,14.5c1.18-0.91,2.37-1.82,3.55-2.73c-1.2-0.73-2.37-1.35-3.63-1.95C97.76,76.07,95.3,80.24,98.12,81.56
	L98.12,81.56z"/>
<path class="st13" d="M105.07,84.72c-0.26,0.27-0.56,0.51-0.93,0.69c-1.75,0.87-3.69-0.1-4.61-0.85
	c-5.22-3.5-23.78-34.2-25.89-37.71l-0.05-0.09c-0.56-1.12-0.61-2.32-0.17-3.48c1.23-3.19,6.02-5.26,6.95-5.63
	c0.87-0.52,5.4-3.09,8.69-2.14c1.19,0.34,2.11,1.11,2.67,2.23l0.04,0.09c1.52,3.8,14.81,37.12,14.45,43.4
	C106.27,82.16,106.04,83.69,105.07,84.72z M75.85,45.59c8.2,13.63,21.63,34.66,25.12,36.88l0.14,0.1c0.24,0.2,1.27,0.89,1.9,0.57
	c0.64-0.32,0.71-1.57,0.69-1.86l0-0.18c0.34-4.12-8.33-27.52-14.25-42.28c-0.24-0.46-0.58-0.74-1.08-0.88
	c-2.02-0.58-5.65,1.24-6.76,1.93l-0.1,0.06l-0.11,0.04c-1.22,0.48-4.86,2.28-5.62,4.23C75.61,44.68,75.63,45.12,75.85,45.59z"/>
<path class="st13" d="M74.78,46.69c1.32,5.75,5.56,9.9,8.3,14.95c1.49,2.73,5.66,0.3,4.17-2.44c-2.52-4.64-6.6-8.53-7.81-13.79
	C78.75,42.37,74.08,43.66,74.78,46.69L74.78,46.69z"/>
<path class="st10" d="M85.33,24.08c-0.4,1.91-1.29,3.51-2.33,5.15c-0.4,0.62-0.97,0.97-1.59,1.07c-0.85,0.88-1.67,1.85-1.56,2.88
	c0.01,0.08,0.02,0.17,0.02,0.26c0,0.06-0.01,0.11-0.01,0.17c-0.01,0.14-0.02,0.27-0.06,0.39c0,0.02-0.01,0.05-0.02,0.07
	c-0.05,0.2-0.14,0.38-0.25,0.54c-0.02,0.04-0.05,0.08-0.08,0.11c-0.07,0.08-0.14,0.16-0.23,0.23c-0.02,0.02-0.04,0.04-0.07,0.05
	c-0.07,0.05-0.14,0.11-0.22,0.15c-0.04,0.02-0.08,0.05-0.13,0.07c-0.1,0.05-0.2,0.09-0.3,0.13c-0.16,0.05-0.32,0.09-0.48,0.11
	c-0.04,0.01-0.07,0.01-0.1,0.01c-0.14,0.01-0.29,0.01-0.43,0c-1.02-0.06-2.05-0.67-2.39-1.81c-0.26,0.29-0.55,0.6-0.85,0.93
	c-0.97,1.05-2.43,0.78-3.42,0c-1.35-1.06-3.41-2.12-3.17-4.12c0.05-0.42,0.19-0.77,0.39-1.09c-0.17-0.27-0.28-0.59-0.33-0.95
	c0.18-0.1,0.36-0.19,0.54-0.29c0.55-0.29,1.1-0.58,1.64-0.86h0.01c0.13-0.06,0.25-0.13,0.39-0.19c0.8-0.4,1.61-0.79,2.42-1.17
	c0.01-0.01,0.01-0.01,0.01,0c0.3-0.14,0.6-0.29,0.91-0.42c0.04,0.03,0.07,0.07,0.1,0.1c0.07-0.08,0.13-0.16,0.19-0.23
	c0.48-0.22,0.95-0.43,1.43-0.63c1.4-0.61,2.81-1.19,4.24-1.73h0.01c0.18-0.07,0.36-0.14,0.54-0.2c0.2-0.07,0.39-0.14,0.59-0.22
	c1.13-0.41,2.26-0.8,3.4-1.17c0.04-0.02,0.08-0.03,0.13-0.04c0.14-0.05,0.29-0.1,0.43-0.14c0.02,0.22,0.02,0.45,0.01,0.67
	C85.22,22.47,85.5,23.24,85.33,24.08z"/>
<path class="st14" d="M79.9,37.85c0,0,5.38-3.32,8.95-2.4c0,0,2.35,0.39,3.13,2.86l7.32,18.97l-8.2,1.92L79.9,37.85z"/>
<rect x="71.69" y="55.99" class="st10" width="86.51" height="86.51"/>
<polygon class="st10" points="163.23,82.4 66.65,82.4 69.42,55.54 159.75,55.54 "/>
<path class="st15" d="M101.88,93.62c8.71,0,17.42,0,26.13,0c1.94,0,1.94-3.01,0-3.01c-8.71,0-17.42,0-26.13,0
	C99.94,90.61,99.94,93.62,101.88,93.62L101.88,93.62z"/>
<rect x="71.68" y="82.4" class="st15" width="86.51" height="2.81"/>
<path class="st16" d="M209.12,142.45c0,0.01,0,0.02-0.01,0.02c-0.01,0.02-0.01,0.04-0.02,0.06c-2.33,8.08-5.67,15.72-9.87,22.8
	c-1.48,2.49-3.06,4.91-4.75,7.25c-2.92,4.06-6.13,7.88-9.62,11.45H44.08c-3.48-3.56-6.7-7.38-9.62-11.43
	c-1.7-2.36-3.29-4.8-4.78-7.31c-4.19-7.06-7.52-14.69-9.85-22.75c-0.01-0.03-0.02-0.05-0.02-0.08H209.12z"/>
<path class="st1" d="M57.32,165.3v22.86h-9.11c-1.49-1.34-2.94-2.71-4.35-4.12c-3.54-3.56-6.81-7.38-9.78-11.43v-7.3H57.32z"/>
<path class="st1" d="M18.99,142.43c0.02,0.04,0.03,0.07,0.05,0.11h0.17c2.36,8.06,5.75,15.69,10.01,22.75h4.86v-22.86H18.99z"/>
<rect x="80.19" y="165.31" class="st1" width="22.86" height="22.86"/>
<rect x="57.33" y="142.44" class="st1" width="22.86" height="22.86"/>
<rect x="125.9" y="165.32" class="st1" width="22.86" height="22.86"/>
<rect x="103.04" y="142.45" class="st1" width="22.86" height="22.86"/>
<path class="st1" d="M194.67,165.33v7.26c-2.94,4.06-6.18,7.88-9.7,11.45c-1.41,1.43-2.86,2.81-4.35,4.15h-8.99v-22.86H194.67z"/>
<path class="st1" d="M215.33,142.48v0.06h-5.93c-2.35,8.08-5.71,15.72-9.95,22.8h-4.79v-22.86H215.33z"/>
<rect x="148.76" y="142.46" class="st1" width="22.86" height="22.86"/>
<path class="st16" d="M209.58,140.82c-0.14,0.55-0.3,1.09-0.46,1.63c0,0.01,0,0.02-0.01,0.02c-0.01,0.02-0.01,0.04-0.02,0.06H19.84
	c-0.01-0.03-0.02-0.05-0.02-0.08c-0.01-0.01-0.01-0.02-0.01-0.02c-0.16-0.54-0.31-1.07-0.45-1.61H209.58z"/>
<g>
	<path class="st1" d="M86.91,107.07c-0.04,0.47-0.41,0.83-0.88,0.87c-0.14,0.01-0.27,0.04-0.38,0.1c-0.13,0.07-0.24,0.18-0.31,0.31
		c-0.08,0.13-0.13,0.27-0.16,0.44c-0.03,0.16-0.04,0.32-0.04,0.49v0.56c0,0.09,0.07,0.15,0.15,0.15h0.33c0.48,0,0.87,0.39,0.87,0.87
		l0,0c0,0.48-0.39,0.87-0.87,0.87H85.3c-0.08,0-0.15,0.07-0.15,0.15v4.05c0,0.65-0.52,1.17-1.17,1.17l0,0
		c-0.65,0-1.17-0.52-1.17-1.17v-4.06c0-0.08-0.06-0.14-0.14-0.14h0c-0.48,0-0.87-0.39-0.87-0.87l0,0c0-0.48,0.39-0.87,0.87-0.87l0,0
		c0.08,0,0.14-0.06,0.14-0.14v-0.55c0-0.44,0.05-0.86,0.14-1.25c0.1-0.4,0.26-0.74,0.49-1.04c0.23-0.3,0.55-0.54,0.94-0.71
		c0.4-0.18,0.89-0.26,1.48-0.26c0.04,0,0.08,0,0.11,0C86.53,106.05,86.96,106.52,86.91,107.07L86.91,107.07z"/>
	<path class="st1" d="M89.8,111.03c0.18-0.36,0.46-0.67,0.8-0.89c0.06-0.04,0.12-0.08,0.18-0.11c0.66-0.35,1.46,0.15,1.42,0.91l0,0
		c-0.02,0.47-0.38,0.87-0.85,0.92c-0.19,0.02-0.4,0.07-0.59,0.17c-0.21,0.12-0.39,0.25-0.51,0.41c-0.13,0.16-0.22,0.34-0.28,0.53
		c-0.06,0.19-0.09,0.36-0.09,0.5v2.48c0,0.65-0.52,1.17-1.17,1.17h0c-0.65,0-1.17-0.52-1.17-1.17v-4.91c0-0.57,0.46-1.03,1.03-1.03
		h0.2C89.34,110,89.8,110.46,89.8,111.03L89.8,111.03z"/>
	<path class="st1" d="M99.24,114.2h-3.86c-0.16,0-0.27,0.15-0.22,0.3c0.03,0.08,0.07,0.16,0.11,0.24c0.1,0.16,0.23,0.3,0.39,0.42
		c0.16,0.12,0.33,0.21,0.53,0.28c0.2,0.07,0.4,0.1,0.61,0.1c0.37,0,0.69-0.07,0.94-0.21c0.07-0.04,0.14-0.08,0.21-0.13
		c0.31-0.22,0.72-0.22,1.03-0.02h0c0.6,0.38,0.58,1.25-0.03,1.61c-0.09,0.05-0.18,0.1-0.28,0.15c-0.55,0.26-1.18,0.39-1.91,0.39
		c-0.53,0-1.04-0.08-1.52-0.25c-0.48-0.17-0.89-0.41-1.25-0.73c-0.36-0.32-0.64-0.71-0.84-1.18c-0.21-0.47-0.31-1-0.31-1.6
		c0-0.58,0.1-1.11,0.3-1.58c0.2-0.47,0.47-0.87,0.81-1.2c0.34-0.33,0.75-0.58,1.21-0.76c0.47-0.18,0.97-0.27,1.52-0.27
		c0.52,0,1.01,0.09,1.44,0.26c0.44,0.18,0.81,0.43,1.13,0.76c0.31,0.33,0.54,0.75,0.74,1.21c0.13,0.32,0.2,0.73,0.23,1.11
		C100.29,113.7,99.82,114.2,99.24,114.2z M97.86,112.74c0.14,0,0.25-0.12,0.23-0.26c-0.04-0.26-0.15-0.5-0.33-0.7
		c-0.23-0.27-0.58-0.4-1.05-0.4c-0.23,0-0.44,0.04-0.63,0.11c-0.19,0.07-0.36,0.17-0.5,0.29c-0.14,0.12-0.26,0.27-0.34,0.44
		c-0.04,0.08-0.07,0.15-0.09,0.23c-0.04,0.15,0.07,0.29,0.22,0.29H97.86z"/>
	<path class="st1" d="M106.28,111.56c-0.28,0.29-0.71,0.35-1.07,0.17c-0.42-0.21-1.01-0.39-1.54-0.15
		c-0.19,0.08-0.28,0.23-0.28,0.44c0,0.2,0.1,0.34,0.31,0.43c0.2,0.09,0.54,0.18,0.99,0.29c0.27,0.06,0.54,0.14,0.81,0.24
		c0.27,0.1,0.52,0.24,0.74,0.41c0.22,0.17,0.4,0.38,0.53,0.63c0.13,0.25,0.2,0.54,0.2,0.89c0,0.45-0.09,0.83-0.27,1.14
		c-0.18,0.31-0.42,0.56-0.71,0.75c-0.29,0.19-0.62,0.33-0.98,0.41c-0.36,0.09-0.72,0.13-1.09,0.13c-0.58,0-1.15-0.09-1.71-0.28
		c-0.12-0.04-0.23-0.08-0.34-0.13c-0.59-0.25-0.75-1.01-0.31-1.47h0c0.3-0.31,0.77-0.37,1.14-0.15c0.07,0.04,0.14,0.08,0.21,0.12
		c0.3,0.15,0.63,0.23,0.97,0.23c0.19,0,0.38-0.05,0.56-0.14c0.19-0.09,0.28-0.25,0.28-0.48c0-0.22-0.11-0.38-0.34-0.49
		c-0.23-0.1-0.59-0.21-1.07-0.33c-0.25-0.06-0.5-0.13-0.74-0.23c-0.25-0.1-0.47-0.22-0.66-0.39c-0.2-0.16-0.36-0.36-0.48-0.6
		c-0.12-0.24-0.19-0.52-0.19-0.86c0-0.43,0.09-0.79,0.27-1.09c0.18-0.3,0.41-0.55,0.7-0.74c0.29-0.19,0.6-0.33,0.95-0.42
		c0.35-0.09,0.69-0.14,1.04-0.14c0.72,0,1.32,0.15,1.79,0.34C106.57,110.34,106.72,111.1,106.28,111.56L106.28,111.56z"/>
	<path class="st1" d="M110.55,110.56c0,0.1,0.12,0.15,0.19,0.07c0.16-0.18,0.37-0.35,0.61-0.5c0.35-0.22,0.78-0.34,1.27-0.34
		c0.49,0,0.89,0.09,1.22,0.26c0.33,0.17,0.6,0.39,0.8,0.66c0.2,0.27,0.35,0.58,0.44,0.94c0.09,0.35,0.14,0.71,0.14,1.06v3.22
		c0,0.65-0.53,1.18-1.18,1.18h0c-0.65,0-1.18-0.53-1.18-1.18v-2.68c0-0.2-0.01-0.39-0.04-0.57c-0.03-0.18-0.08-0.34-0.16-0.48
		c-0.08-0.14-0.19-0.25-0.32-0.33c-0.13-0.08-0.31-0.12-0.51-0.12c-0.41,0-0.72,0.15-0.94,0.44c-0.22,0.29-0.33,0.65-0.33,1.08v2.67
		c0,0.65-0.52,1.17-1.17,1.17l0,0c-0.65,0-1.17-0.52-1.17-1.17v-8.46c0-0.65,0.52-1.17,1.17-1.17l0,0c0.65,0,1.17,0.52,1.17,1.17
		V110.56z"/>
	<path class="st1" d="M122.36,111.61c-0.29,0.34-0.78,0.44-1.19,0.25c-0.19-0.08-0.41-0.14-0.65-0.14c-0.25,0-0.47,0.05-0.67,0.15
		c-0.2,0.1-0.37,0.23-0.51,0.4c-0.14,0.17-0.26,0.36-0.34,0.58c-0.08,0.22-0.12,0.45-0.12,0.7c0,0.25,0.04,0.48,0.11,0.7
		c0.08,0.22,0.19,0.41,0.34,0.58c0.15,0.17,0.32,0.3,0.53,0.39c0.2,0.1,0.44,0.14,0.69,0.14c0.26,0,0.48-0.05,0.67-0.13
		c0.41-0.16,0.88-0.05,1.16,0.29h0c0.45,0.55,0.21,1.37-0.46,1.59c-0.38,0.13-0.86,0.22-1.43,0.22c-0.56,0-1.09-0.09-1.57-0.26
		c-0.49-0.17-0.91-0.42-1.27-0.75c-0.36-0.33-0.64-0.73-0.85-1.19c-0.21-0.47-0.31-1-0.31-1.59c0-0.58,0.1-1.11,0.31-1.57
		c0.21-0.47,0.49-0.86,0.85-1.19c0.36-0.33,0.78-0.58,1.27-0.76c0.49-0.18,1.01-0.26,1.56-0.26c0.59,0,1.07,0.1,1.46,0.24
		C122.61,110.24,122.83,111.07,122.36,111.61L122.36,111.61z"/>
	<path class="st1" d="M135.03,110.74c0,0.07,0.09,0.1,0.14,0.05c0.07-0.09,0.15-0.17,0.23-0.26c0.14-0.15,0.3-0.27,0.49-0.38
		c0.19-0.1,0.39-0.19,0.61-0.26c0.22-0.07,0.45-0.1,0.7-0.1c0.48,0,0.88,0.09,1.21,0.26c0.33,0.17,0.6,0.39,0.81,0.66
		c0.2,0.27,0.35,0.58,0.44,0.94c0.09,0.35,0.14,0.71,0.14,1.06v3.22c0,0.65-0.53,1.18-1.18,1.18l0,0c-0.65,0-1.18-0.53-1.18-1.18
		v-2.71c0-0.2-0.02-0.39-0.05-0.57c-0.03-0.18-0.09-0.34-0.16-0.48c-0.08-0.14-0.18-0.25-0.32-0.33c-0.14-0.08-0.31-0.12-0.52-0.12
		c-0.21,0-0.39,0.04-0.55,0.12c-0.16,0.08-0.29,0.19-0.39,0.34c-0.1,0.14-0.18,0.31-0.24,0.49c-0.05,0.19-0.08,0.38-0.08,0.58v2.68
		c0,0.65-0.53,1.18-1.18,1.18l0,0c-0.65,0-1.18-0.53-1.18-1.18v-5.2c0-0.63,0.51-1.14,1.14-1.14h0
		C134.52,109.6,135.03,110.11,135.03,110.74L135.03,110.74z"/>
	<path class="st1" d="M131.51,113.3c0-0.57-0.1-1.09-0.31-1.55c-0.21-0.46-0.49-0.85-0.84-1.17c-0.36-0.32-0.77-0.56-1.24-0.73
		c-0.47-0.17-0.97-0.25-1.51-0.25c-0.53,0-1.02,0.08-1.5,0.25c-0.47,0.17-0.89,0.41-1.24,0.73c-0.35,0.32-0.63,0.71-0.84,1.17
		c-0.21,0.46-0.31,0.98-0.31,1.55c0,0.51,0.09,0.97,0.25,1.39l-0.01,0c0.76,2.13,2.77,4.51,2.77,4.51c0.25,0.33,0.51,0.48,0.88,0.48
		c0.37,0,0.66-0.19,0.88-0.48c0,0,2-2.39,2.77-4.51l-0.01,0C131.42,114.27,131.51,113.81,131.51,113.3z M129.17,113.96
		c-0.07,0.22-0.18,0.41-0.32,0.58c-0.14,0.17-0.31,0.31-0.52,0.42c-0.21,0.1-0.45,0.15-0.72,0.15c-0.27,0-0.51-0.05-0.72-0.15
		c-0.21-0.1-0.38-0.24-0.52-0.42c-0.14-0.17-0.25-0.37-0.32-0.58c-0.07-0.22-0.11-0.44-0.11-0.66c0-0.23,0.04-0.45,0.11-0.66
		c0.07-0.22,0.17-0.41,0.31-0.57c0.14-0.16,0.31-0.3,0.51-0.4c0.21-0.1,0.45-0.15,0.72-0.15c0.27,0,0.51,0.05,0.72,0.15
		c0.21,0.1,0.38,0.24,0.52,0.4c0.14,0.16,0.25,0.35,0.32,0.57c0.07,0.22,0.11,0.44,0.11,0.66
		C129.28,113.52,129.24,113.74,129.17,113.96z"/>
	<path class="st1" d="M143.33,110.74c0,0.07,0.09,0.1,0.14,0.05c0.07-0.09,0.15-0.17,0.23-0.26c0.14-0.15,0.3-0.27,0.49-0.38
		c0.19-0.1,0.39-0.19,0.61-0.26c0.22-0.07,0.45-0.1,0.7-0.1c0.48,0,0.88,0.09,1.21,0.26c0.33,0.17,0.6,0.39,0.81,0.66
		c0.2,0.27,0.35,0.58,0.44,0.94c0.09,0.35,0.14,0.71,0.14,1.06v3.22c0,0.65-0.53,1.18-1.18,1.18l0,0c-0.65,0-1.18-0.53-1.18-1.18
		v-2.71c0-0.2-0.02-0.39-0.05-0.57c-0.03-0.18-0.09-0.34-0.16-0.48c-0.08-0.14-0.18-0.25-0.32-0.33c-0.14-0.08-0.31-0.12-0.52-0.12
		c-0.21,0-0.39,0.04-0.55,0.12c-0.16,0.08-0.29,0.19-0.39,0.34c-0.1,0.14-0.18,0.31-0.24,0.49c-0.05,0.19-0.08,0.38-0.08,0.58v2.68
		c0,0.65-0.53,1.18-1.18,1.18l0,0c-0.65,0-1.18-0.53-1.18-1.18v-5.2c0-0.63,0.51-1.14,1.14-1.14l0,0
		C142.83,109.6,143.33,110.11,143.33,110.74L143.33,110.74z"/>
	<g>
		<path class="st13" d="M127.67,104.91c-0.85,0-1.55,0.69-1.55,1.55c0,0.86,0.85,2.61,1.55,2.61s1.55-1.75,1.55-2.61
			C129.22,105.6,128.53,104.91,127.67,104.91z"/>
		<path class="st13" d="M125.17,106.85c-0.25-0.25-0.59-0.39-0.95-0.39c-0.36,0-0.69,0.14-0.95,0.39c-0.52,0.52-0.52,1.37,0,1.9
			c0.4,0.4,1.39,0.8,2.04,0.8c0.22,0,0.4-0.05,0.51-0.15c0.28-0.28,0.11-0.97,0.03-1.25C125.69,107.61,125.42,107.09,125.17,106.85z
			"/>
		<path class="st13" d="M132.07,106.85c-0.25-0.25-0.59-0.39-0.95-0.39c-0.36,0-0.69,0.14-0.95,0.39c-0.25,0.25-0.52,0.77-0.68,1.3
			c-0.08,0.28-0.25,0.97,0.03,1.25c0.11,0.11,0.29,0.15,0.51,0.15c0.65,0,1.65-0.41,2.04-0.8
			C132.59,108.22,132.59,107.37,132.07,106.85z"/>
	</g>
</g>
</svg>
