<?xml version="1.0" encoding="utf-8"?>
<!-- Generator: Adobe Illustrator 23.0.3, SVG Export Plug-In . SVG Version: 6.00 Build 0)  -->
<svg version="1.1" id="Layer_1" xmlns="http://www.w3.org/2000/svg" xmlns:xlink="http://www.w3.org/1999/xlink" x="0px" y="0px"
	 viewBox="0 0 50 50" style="enable-background:new 0 0 50 50;" xml:space="preserve">
<style type="text/css">
	.st0{fill:#A57242;}
	.st1{fill:#F8E4D2;}
	.st2{fill:#7DB343;}
	.st3{fill:#98D150;}
	.st4{fill:#FFFFFF;}
	.st5{fill:#EF6D02;}
</style>
<g>
	<path class="st0" d="M41.27,14.1c0,0.86-0.78,1.66-2.15,2.35v24.12H11.61V16.46c-1.37-0.69-2.15-1.5-2.15-2.35
		c0-2.59,7.12-4.68,15.91-4.68C34.15,9.42,41.27,11.52,41.27,14.1z"/>
	<path class="st1" d="M38.33,14.89c0,0.7-0.64,1.35-1.75,1.92v22.34H14.16V16.8c-1.11-0.57-1.75-1.22-1.75-1.92
		c0-2.11,5.8-3.82,12.96-3.82C32.53,11.07,38.33,12.78,38.33,14.89z"/>
	<g>
		<path class="st2" d="M20.63,26.45c0,6.42-3.61,11.62-8.07,11.62c-1.09,0-2.52-1.07-3.47-1.63c2.16-1.29,4.25-3.13,4.98-6.36
			c1.47-0.24,2.58-1.52,2.58-3.05c0-1.46-1.01-2.68-2.36-3c-0.56-3.77-2.78-6.11-5.21-7.55c0.95-0.57,2.38-1.64,3.47-1.64
			C17.02,14.83,20.63,20.04,20.63,26.45z"/>
		<g>
			<path class="st3" d="M19.45,26.45c0,5.97-3.36,10.8-7.5,10.8c-1.01,0-1.98-0.29-2.86-0.82c2.01-1.2,3.58-3.62,4.26-6.62
				c1.36-0.22,2.4-1.41,2.4-2.84c0-1.35-0.94-2.49-2.19-2.79c-0.52-3.51-2.22-6.38-4.47-7.73c0.88-0.53,1.85-0.82,2.86-0.82
				C16.09,15.65,19.45,20.49,19.45,26.45z"/>
			<path class="st2" d="M11.95,37.44c-1.02,0-2.02-0.28-2.96-0.84l-0.27-0.16l0.27-0.16c1.98-1.18,3.51-3.55,4.18-6.5l0.03-0.12
				l0.12-0.02c1.3-0.21,2.25-1.33,2.25-2.65c0-1.25-0.84-2.32-2.05-2.61l-0.12-0.03l-0.02-0.12c-0.5-3.42-2.14-6.26-4.38-7.59
				l-0.27-0.16l0.27-0.16c0.94-0.56,1.93-0.84,2.96-0.84c4.24,0,7.68,4.93,7.68,10.99C19.63,32.51,16.19,37.44,11.95,37.44z
				 M9.45,36.43c0.8,0.42,1.64,0.64,2.5,0.64c4.03,0,7.31-4.76,7.31-10.62c0-5.85-3.28-10.62-7.31-10.62c-0.86,0-1.7,0.22-2.5,0.64
				c2.17,1.43,3.75,4.23,4.27,7.57c1.31,0.37,2.22,1.56,2.22,2.94c0,1.46-1.02,2.7-2.43,3C12.83,32.84,11.36,35.17,9.45,36.43z"/>
		</g>
	</g>
	<g>
		<path class="st2" d="M30.34,25.48c0,6.42-3.61,11.62-8.07,11.62c-1.09,0-2.52-1.07-3.47-1.63c2.16-1.29,4.25-3.13,4.98-6.36
			c1.47-0.24,2.58-1.52,2.58-3.05c0-1.46-1.01-2.68-2.36-3c-0.56-3.77-2.78-6.11-5.21-7.55c0.95-0.57,2.38-1.64,3.47-1.64
			C26.73,13.86,30.34,19.06,30.34,25.48z"/>
		<g>
			<path class="st3" d="M29.16,25.48c0,5.97-3.36,10.8-7.5,10.8c-1.01,0-1.98-0.29-2.86-0.82c2.01-1.2,3.58-3.62,4.26-6.62
				c1.36-0.22,2.4-1.41,2.4-2.84c0-1.35-0.94-2.49-2.19-2.79c-0.52-3.51-2.22-6.38-4.47-7.73c0.88-0.53,1.85-0.82,2.86-0.82
				C25.81,14.68,29.16,19.51,29.16,25.48z"/>
			<path class="st2" d="M21.67,36.47c-1.02,0-2.02-0.28-2.96-0.84l-0.27-0.16l0.27-0.16c1.98-1.18,3.51-3.55,4.18-6.5l0.03-0.12
				l0.12-0.02c1.3-0.21,2.25-1.33,2.25-2.65c0-1.25-0.84-2.32-2.05-2.61l-0.12-0.03l-0.02-0.12c-0.5-3.42-2.14-6.26-4.38-7.59
				l-0.27-0.16l0.27-0.16c0.94-0.56,1.93-0.84,2.96-0.84c4.24,0,7.68,4.93,7.68,10.99C29.35,31.54,25.9,36.47,21.67,36.47z
				 M19.17,35.46c0.8,0.42,1.64,0.64,2.5,0.64c4.03,0,7.31-4.76,7.31-10.62c0-5.85-3.28-10.62-7.31-10.62c-0.86,0-1.7,0.22-2.5,0.64
				c2.17,1.43,3.75,4.23,4.27,7.57c1.31,0.37,2.22,1.56,2.22,2.94c0,1.46-1.02,2.7-2.43,3C22.55,31.87,21.08,34.19,19.17,35.46z"/>
		</g>
	</g>
	<g>
		<path class="st2" d="M39.99,26.45c0,6.42-3.61,11.62-8.07,11.62c-1.09,0-2.52-1.07-3.47-1.63c2.16-1.29,4.25-3.13,4.98-6.36
			c1.47-0.24,2.58-1.52,2.58-3.05c0-1.46-1.01-2.68-2.36-3c-0.56-3.77-2.78-6.11-5.21-7.55c0.95-0.57,2.38-1.64,3.47-1.64
			C36.38,14.83,39.99,20.04,39.99,26.45z"/>
		<g>
			<path class="st3" d="M38.81,26.45c0,5.97-3.36,10.8-7.5,10.8c-1.01,0-1.98-0.29-2.86-0.82c2.01-1.2,3.58-3.62,4.26-6.62
				c1.36-0.22,2.4-1.41,2.4-2.84c0-1.35-0.94-2.49-2.19-2.79c-0.52-3.51-2.22-6.38-4.47-7.73c0.88-0.53,1.85-0.82,2.86-0.82
				C35.45,15.65,38.81,20.49,38.81,26.45z"/>
			<path class="st2" d="M31.31,37.44c-1.02,0-2.02-0.28-2.96-0.84l-0.27-0.16l0.27-0.16c1.98-1.18,3.51-3.55,4.18-6.5l0.03-0.12
				l0.12-0.02c1.3-0.21,2.25-1.33,2.25-2.65c0-1.25-0.84-2.32-2.05-2.61l-0.12-0.03l-0.02-0.12c-0.5-3.42-2.14-6.26-4.38-7.59
				l-0.27-0.16l0.27-0.16c0.94-0.56,1.93-0.84,2.96-0.84c4.24,0,7.68,4.93,7.68,10.99C38.99,32.51,35.55,37.44,31.31,37.44z
				 M28.81,36.43c0.8,0.42,1.64,0.64,2.5,0.64c4.03,0,7.31-4.76,7.31-10.62c0-5.85-3.28-10.62-7.31-10.62c-0.86,0-1.7,0.22-2.5,0.64
				c2.17,1.43,3.75,4.23,4.27,7.57c1.31,0.37,2.22,1.56,2.22,2.94c0,1.46-1.02,2.7-2.43,3C32.19,32.84,30.73,35.17,28.81,36.43z"/>
		</g>
	</g>
	<path class="st4" d="M36.54,24.14c0-2.73-2.21-4.95-4.95-4.95c-0.12,0-0.23,0.01-0.35,0.02c-1.55-1.17-3.49-1.87-5.59-1.87
		c-1.12,0-2.19,0.2-3.18,0.56c-0.21-0.02-0.42-0.04-0.64-0.04c-3.16,0-5.72,2.56-5.72,5.72c0,0.67,0.12,1.31,0.33,1.9
		c-0.05,0.37-0.07,0.75-0.07,1.14c0,3.87,2.37,7.18,5.73,8.58c1.02,0.97,2.4,1.56,3.92,1.56c1.86,0,3.52-0.89,4.56-2.27
		c2.29-1.44,3.9-3.84,4.27-6.64C35.89,26.94,36.54,25.62,36.54,24.14z"/>
	<circle class="st5" cx="26.63" cy="27.35" r="3.34"/>
</g>
</svg>
