<?xml version="1.0" encoding="utf-8"?>
<!-- Generator: Adobe Illustrator 23.0.1, SVG Export Plug-In . SVG Version: 6.00 Build 0)  -->
<svg version="1.1" id="Layer_1" xmlns="http://www.w3.org/2000/svg" xmlns:xlink="http://www.w3.org/1999/xlink" x="0px" y="0px"
	 viewBox="0 0 230 230" style="enable-background:new 0 0 230 230;" xml:space="preserve">
<style type="text/css">
	.st0{fill:#D2E2B5;}
	.st1{fill:#FFFFFF;}
	.st2{fill:#E87200;}
	.st3{fill:#CD6428;}
	.st4{fill:#4D4E4E;}
	.st5{fill:#CEE7EC;}
	.st6{fill:#F27421;}
	.st7{fill:#C3996B;}
	.st8{fill:#C49A6C;}
	.st9{fill:#A5805B;}
	.st10{fill:#80BC41;}
	.st11{fill:#C43A4B;}
	.st12{fill:#AF3547;}
	.st13{fill:#6F9E40;}
	.st14{fill:#5A7735;}
	.st15{fill:#6A8E3C;}
</style>
<g>
	<g>
		<path class="st0" d="M213.91,115c0,1.59-0.04,3.17-0.11,4.73c-0.74,15.56-5.06,30.18-12.18,43.05
			c-16.85,30.48-49.33,51.13-86.63,51.13s-69.77-20.65-86.62-51.13c-5.67-10.26-9.57-21.64-11.29-33.72
			c-0.19-1.3-0.35-2.61-0.48-3.93c-0.27-2.64-0.44-5.31-0.49-8.01c-0.02-0.71-0.02-1.41-0.02-2.12c0-54.63,44.28-98.91,98.91-98.91
			C169.63,16.09,213.91,60.37,213.91,115z"/>
		<path class="st1" d="M115,16.09c54.63,0,98.91,44.28,98.91,98.91c0,1.59-0.04,3.17-0.11,4.73c-0.74,15.56-5.06,30.18-12.18,43.05
			c-16.85,30.48-49.33,51.13-86.63,51.13s-69.77-20.65-86.62-51.13c-5.67-10.26-9.57-21.64-11.29-33.72
			c-0.19-1.3-0.35-2.61-0.48-3.93c-0.27-2.64-0.44-5.31-0.49-8.01c-0.02-0.71-0.02-1.41-0.02-2.12
			C16.09,60.37,60.37,16.09,115,16.09 M115,4c-14.98,0-29.52,2.94-43.21,8.73C58.57,18.32,46.7,26.32,36.51,36.51
			C26.32,46.7,18.32,58.57,12.73,71.79C6.94,85.48,4,100.02,4,115c0,0.89,0.01,1.67,0.03,2.41c0.06,3.01,0.25,6.02,0.55,8.97
			c0.14,1.42,0.33,2.91,0.54,4.42c1.89,13.3,6.15,26.04,12.67,37.84C37.36,204.02,74.6,226,115,226c40.4,0,77.64-21.98,97.2-57.37
			c8.26-14.94,12.86-31.2,13.67-48.33c0.08-1.76,0.12-3.54,0.12-5.3c0-14.98-2.94-29.52-8.73-43.21
			c-5.59-13.22-13.59-25.09-23.78-35.28c-10.19-10.19-22.06-18.19-35.28-23.78C144.52,6.94,129.98,4,115,4L115,4z"/>
	</g>
	<path class="st2" d="M213.8,119.73c-0.74,15.56-5.06,30.18-12.18,43.05H183.7c0.02-0.22,0.03-0.44,0.04-0.66
		c0.01-0.16,0.02-0.33,0.02-0.5c0-0.34-0.01-0.67-0.03-1.01c-0.01-0.16-0.01-0.33-0.03-0.5c-0.01-0.03-0.01-0.06-0.01-0.09
		c-0.11-1.46-0.39-2.88-0.82-4.22c-0.05-0.15-0.1-0.31-0.15-0.45c-0.21-0.6-0.44-1.2-0.7-1.78c-0.12-0.29-0.26-0.57-0.41-0.86
		c-0.13-0.28-0.28-0.56-0.45-0.83c-0.08-0.14-0.16-0.28-0.24-0.41c-0.08-0.13-0.16-0.27-0.25-0.4c-0.13-0.21-0.27-0.4-0.4-0.6
		c-0.07-0.11-0.15-0.21-0.22-0.31c-0.15-0.21-0.31-0.42-0.47-0.62c-0.03-0.04-0.06-0.08-0.1-0.12c-0.22-0.28-0.46-0.56-0.71-0.83
		c-0.24-0.27-0.49-0.54-0.75-0.8c-0.22-0.22-0.45-0.44-0.68-0.65c-0.23-0.21-0.47-0.41-0.71-0.61c0,0,0,0-0.01-0.01
		c-0.24-0.2-0.48-0.39-0.73-0.57c-0.25-0.19-0.51-0.37-0.77-0.55c-0.26-0.18-0.53-0.34-0.79-0.51c-0.27-0.16-0.54-0.32-0.82-0.47
		c-0.56-0.3-1.12-0.57-1.71-0.82c-0.22-0.09-0.44-0.18-0.66-0.27c-0.22-0.08-0.45-0.16-0.67-0.24c-0.3-0.1-0.61-0.2-0.92-0.28
		c-0.21-0.06-0.43-0.11-0.64-0.17c-0.18-0.05-0.36-0.08-0.54-0.13c-0.71-0.16-1.43-0.27-2.18-0.34c-0.21-0.02-0.41-0.04-0.62-0.05
		c-0.21-0.01-0.42-0.02-0.63-0.04c-0.25-0.01-0.5-0.01-0.75-0.01c-0.25,0-0.49,0.01-0.74,0.01c-0.21,0.01-0.43,0.02-0.64,0.04
		c-0.21,0.01-0.42,0.03-0.62,0.05c-0.19,0.02-0.37,0.04-0.56,0.07c-0.1,0.01-0.2,0.02-0.3,0.04c-0.45,0.07-0.88,0.15-1.32,0.24
		c-0.18,0.04-0.36,0.08-0.54,0.13c-0.21,0.05-0.43,0.11-0.64,0.17c-0.31,0.08-0.62,0.18-0.92,0.28c-0.23,0.08-0.45,0.16-0.68,0.24
		c-0.22,0.08-0.45,0.18-0.66,0.27c-0.59,0.25-1.15,0.53-1.71,0.82c-0.28,0.15-0.55,0.31-0.82,0.47s-0.53,0.33-0.79,0.51
		c-0.27,0.18-0.53,0.36-0.77,0.55c-0.25,0.19-0.49,0.37-0.73,0.57c-0.01,0.01-0.01,0.01-0.01,0.01c-0.24,0.2-0.48,0.4-0.71,0.61
		c-0.23,0.21-0.45,0.42-0.68,0.65c-0.22,0.22-0.44,0.45-0.65,0.68c-0.11,0.12-0.21,0.24-0.31,0.36c-0.21,0.24-0.4,0.48-0.6,0.72
		c-0.19,0.25-0.38,0.5-0.56,0.76c-0.45,0.64-0.87,1.31-1.25,2c-0.11,0.22-0.23,0.43-0.34,0.65c-0.13,0.26-0.25,0.52-0.37,0.79
		c-0.08,0.18-0.15,0.34-0.22,0.52c-0.15,0.36-0.28,0.73-0.4,1.09c-0.06,0.19-0.13,0.38-0.18,0.57c-0.04,0.13-0.08,0.25-0.11,0.37
		c-0.04,0.11-0.07,0.23-0.1,0.34c-0.04,0.15-0.08,0.3-0.11,0.45c-0.05,0.19-0.09,0.39-0.13,0.59c-0.11,0.51-0.19,1.04-0.25,1.57
		c-0.03,0.23-0.05,0.47-0.07,0.7c-0.02,0.16-0.03,0.32-0.04,0.48c-0.01,0.13-0.01,0.25-0.02,0.37c-0.01,0.27-0.02,0.54-0.02,0.82
		c0,0.3,0.01,0.59,0.03,0.88c0.01,0.1,0.02,0.19,0.02,0.28H76.84c0.01-0.13,0.02-0.27,0.02-0.4c0.01-0.13,0.01-0.25,0.01-0.39
		c0.01-0.08,0.01-0.18,0.01-0.27c0-0.34-0.01-0.67-0.03-1c-0.01-0.17-0.01-0.33-0.03-0.5c-0.11-1.49-0.39-2.93-0.82-4.3
		c-0.05-0.16-0.1-0.31-0.15-0.46c-0.21-0.6-0.44-1.2-0.7-1.77c-0.12-0.29-0.26-0.58-0.41-0.86c-0.14-0.28-0.28-0.56-0.45-0.83
		c-0.15-0.26-0.3-0.51-0.47-0.77c-0.94-1.47-2.07-2.8-3.35-3.97c-0.23-0.21-0.47-0.41-0.71-0.61c-0.12-0.1-0.24-0.2-0.37-0.3
		c-0.11-0.09-0.22-0.18-0.34-0.26c-0.33-0.25-0.68-0.5-1.03-0.73c-0.19-0.12-0.37-0.24-0.57-0.36c-0.27-0.16-0.54-0.32-0.82-0.47
		c-0.28-0.15-0.56-0.29-0.84-0.43c-0.28-0.14-0.57-0.27-0.87-0.39c-0.22-0.09-0.44-0.18-0.66-0.27c-0.22-0.08-0.45-0.16-0.68-0.24
		c-0.3-0.1-0.61-0.2-0.92-0.28c-0.21-0.06-0.43-0.11-0.64-0.17c-0.19-0.05-0.39-0.1-0.59-0.14c-0.7-0.15-1.4-0.26-2.12-0.33
		c-0.21-0.02-0.41-0.04-0.62-0.05c-0.21-0.01-0.42-0.02-0.63-0.04c-0.25-0.01-0.5-0.01-0.75-0.01c-0.25,0-0.5,0.01-0.75,0.01
		c-0.21,0.01-0.42,0.02-0.63,0.04c-0.21,0.01-0.41,0.03-0.62,0.05c-0.74,0.07-1.47,0.19-2.18,0.34c-0.18,0.04-0.36,0.08-0.54,0.13
		c-0.21,0.05-0.43,0.11-0.64,0.17c-0.31,0.08-0.62,0.18-0.92,0.28c-0.22,0.08-0.45,0.16-0.67,0.24c-0.22,0.08-0.45,0.18-0.66,0.27
		c-0.59,0.25-1.15,0.53-1.71,0.82c-0.28,0.15-0.55,0.31-0.82,0.47c-0.27,0.16-0.53,0.33-0.79,0.51c-0.27,0.18-0.52,0.36-0.77,0.55
		c-0.25,0.19-0.49,0.37-0.73,0.57c-0.01,0.01-0.01,0.01-0.01,0.01c-0.24,0.2-0.48,0.4-0.71,0.61c-1.28,1.17-2.41,2.5-3.35,3.97
		c-0.16,0.25-0.32,0.51-0.47,0.77c-0.16,0.27-0.31,0.54-0.45,0.83c-0.15,0.28-0.29,0.57-0.41,0.86c-0.27,0.57-0.5,1.17-0.7,1.77
		c-0.05,0.15-0.1,0.3-0.15,0.46c-0.44,1.38-0.71,2.82-0.82,4.3c-0.02,0.17-0.02,0.33-0.03,0.5c-0.02,0.33-0.03,0.66-0.03,1
		c0,0.18,0.01,0.36,0.02,0.53c0.01,0.18,0.01,0.34,0.02,0.52h-9.45c-5.67-10.26-9.57-21.64-11.29-33.72
		c-0.19-1.3-0.35-2.61-0.48-3.93c0.19-0.83,0.45-1.66,0.77-2.45l2.28-5.56l0.02-0.05l23.48-56.95c2.73-6.62,9.62-11.01,17.33-11.01
		h61.57c7.03,0,13.44,3.66,16.57,9.43h0.01l0.08,0.15c0.06,0.11,0.11,0.22,0.17,0.33l22.2,44.25l2.1,4.18c0,0,0.01,0.01,0.01,0.01
		l0.28,0.56l0.1,0.19l0.05,0.01l2.31,0.2l33.55,2.89C205.66,111.85,210.89,115.11,213.8,119.73z"/>
	<path class="st3" d="M73.65,162.79c0-0.02,0-0.02,0-0.03c0-8.29-7.3-15.01-16.31-15.01c-9.01,0-16.31,6.72-16.31,15.01
		c0,0.02,0,0.02,0,0.03h-1.88c0.63-9.01,8.52-16.15,18.19-16.15c9.65,0,17.55,7.13,18.17,16.15H73.65z"/>
	<path class="st3" d="M180.52,162.79v-0.05c0-8.29-7.32-15.01-16.31-15.01c-9.01,0-16.33,6.72-16.33,15.01v0.05h-1.86
		c0.63-9.01,8.52-16.15,18.17-16.15c9.67,0,17.56,7.13,18.19,16.15H180.52z"/>
	<circle class="st4" cx="57.02" cy="162.77" r="14.12"/>
	<circle class="st1" cx="57.02" cy="162.77" r="8.74"/>
	<path class="st4" d="M61.65,162.77c0,2.56-2.07,4.62-4.63,4.62c-2.55,0-4.63-2.07-4.63-4.62c0-2.56,2.07-4.62,4.63-4.62
		C59.58,158.15,61.65,160.21,61.65,162.77L61.65,162.77z"/>
	<circle class="st4" cx="163.89" cy="162.77" r="14.12"/>
	<circle class="st1" cx="163.89" cy="162.77" r="8.74"/>
	<path class="st4" d="M168.52,162.77c0,2.56-2.07,4.62-4.63,4.62c-2.55,0-4.63-2.07-4.63-4.62c0-2.56,2.07-4.62,4.63-4.62
		C166.44,158.15,168.52,160.21,168.52,162.77L168.52,162.77z"/>
	<path class="st5" d="M151.46,109.45L135.61,70.6c-2.28-7.23-8.09-12.02-14.57-12.02H87.31v50.86L151.46,109.45z"/>
	<path class="st5" d="M210.56,128.67h-12.37c-0.73,0-1.32-0.59-1.32-1.32v-11.86h1.91c2.55,0,4.94,0.72,6.95,1.98
		c2.26,1.4,4.05,3.46,5.12,5.91c0.52,1.18,0.87,2.46,1.02,3.8C211.97,127.97,211.36,128.67,210.56,128.67z"/>
	<path class="st3" d="M76.88,161.73c0,0.36-0.02,0.71-0.03,1.05h-1.33c-0.63-9.01-8.52-16.15-18.17-16.15
		c-9.67,0-17.56,7.13-18.19,16.15h-1.32c-0.02-0.35-0.03-0.69-0.03-1.05c0-10.79,8.75-19.54,19.54-19.54S76.88,150.94,76.88,161.73z
		"/>
	<path class="st6" d="M76.84,162.79c0.02-0.35,0.03-0.69,0.03-1.05c0-10.79-8.75-19.54-19.54-19.54s-19.54,8.75-19.54,19.54
		c0,0.36,0.02,0.71,0.03,1.05h-2.34c0-12.46,9.79-22.55,21.85-22.55s21.83,10.1,21.83,22.55H76.84z"/>
	<path class="st3" d="M183.75,161.62c0,0.4-0.02,0.79-0.05,1.17h-1.32c-0.63-9.01-8.52-16.15-18.19-16.15
		c-9.65,0-17.55,7.13-18.17,16.15h-1.32c-0.03-0.38-0.05-0.77-0.05-1.17c0-10.81,8.75-19.56,19.56-19.56
		C175,142.06,183.75,150.81,183.75,161.62z"/>
	<path class="st6" d="M183.7,162.79c0.03-0.38,0.05-0.77,0.05-1.17c0-10.81-8.75-19.56-19.54-19.56c-10.81,0-19.56,8.75-19.56,19.56
		c0,0.4,0.02,0.79,0.05,1.17h-2.36c0-12.46,9.79-22.55,21.85-22.55c12.06,0,21.85,10.1,21.85,22.55H183.7z"/>
	<path class="st1" d="M210.86,123.38c-0.56,1.94-2.36,3.36-4.48,3.36c-2.59,0-4.66-2.08-4.66-4.66c0-2.36,1.75-4.3,4.02-4.61
		C207.99,118.86,209.79,120.92,210.86,123.38z"/>
	<circle class="st1" cx="200.52" cy="123.85" r="2.28"/>
	<path class="st3" d="M211.21,127.88c-4.85,0-9.7,0-14.54,0c0.21,0.21,0.41,0.41,0.62,0.62c0-4.32,0-8.63,0-12.95
		c0-0.8-1.24-0.8-1.24,0c0,4.32,0,8.63,0,12.95c0,0.33,0.28,0.62,0.62,0.62c4.85,0,9.7,0,14.54,0
		C212,129.11,212,127.88,211.21,127.88L211.21,127.88z"/>
	<path class="st1" d="M101.64,69.34c1.9,1.97,3.81,3.93,5.71,5.9c1.11,1.14,2.86-0.6,1.75-1.75c-1.9-1.97-3.81-3.93-5.71-5.9
		C102.28,66.45,100.53,68.2,101.64,69.34L101.64,69.34z"/>
	<path class="st1" d="M100.4,76.24c2.54,2.62,5.07,5.24,7.61,7.86c1.11,1.14,2.86-0.6,1.75-1.75c-2.54-2.62-5.07-5.24-7.61-7.86
		C101.04,73.35,99.3,75.09,100.4,76.24L100.4,76.24z"/>
	<path class="st1" d="M110.67,86.56c1.67,1.6,3.35,3.19,5.02,4.79c1.15,1.1,2.9-0.65,1.75-1.75c-1.67-1.6-3.35-3.19-5.02-4.79
		C111.27,83.72,109.52,85.46,110.67,86.56L110.67,86.56z"/>
	<rect x="80" y="82.46" class="st5" width="0.21" height="26.9"/>
	<path class="st5" d="M80.21,58.5v11.82h-3.55l-0.17,0.2H80v38.84l-36.18,0.01l2.03-6.43l0.26-0.81c0,0-0.01-0.01,0-0.03l0.09-0.28
		l0.33-1.06L47,99.3l0.35-1.09l0.35-1.15l0.14-0.45V96.6l0.46-1.46c0,0,0,0,0.01-0.01l0.13-0.41v-0.01l3.46-10.98l0.41-1.27
		l0.04-0.13l0.16-0.5l0.18-0.58l0.07-0.22l0.28-0.87l0.08-0.25l0.13-0.39l0.17-0.55l0.68-2.19l0.04-0.12l0.07-0.21l0.49-1.53
		l0.83-2.62l0.56-1.77l0.07-0.2l0.08-0.26l1.89-5.98c0.04-0.12,0.08-0.24,0.13-0.35c0.03-0.12,0.08-0.24,0.12-0.34
		c0.01-0.04,0.04-0.08,0.07-0.12v-0.01c0.05-0.14,0.12-0.29,0.18-0.43c1.27-2.64,3.66-4.32,6.27-4.32H80.21z"/>
	<path class="st7" d="M80.21,59.97v6.24l-3.55,4.11l-0.17,0.2l-7.95,9.18l-2.66-2.3l-2.4-2.09l4.16-4.8l0.17-0.2l8.29-9.59
		C77.15,59.53,78.86,59.25,80.21,59.97z"/>
	<path class="st7" d="M80.21,59.97v6.24l-3.55,4.11l-0.17,0.2l-7.95,9.18l-2.66-2.3l-2.4-2.09l4.16-4.8l0.17-0.2l8.29-9.59
		C77.15,59.53,78.86,59.25,80.21,59.97z"/>
	<path class="st8" d="M80.21,59.97v6.24l-3.55,4.11l-0.17,0.2l-7.95,9.18l-2.66-2.3l-2.4-2.09l4.16-4.8l0.17-0.2l8.29-9.59
		C77.15,59.53,78.86,59.25,80.21,59.97z"/>
	<polygon class="st9" points="80.21,60.81 80.21,66.22 76.66,70.32 76.49,70.52 68.54,79.7 65.88,77.41 71.83,70.52 71.99,70.32 	
		"/>
	<path class="st10" d="M58.49,63.33l-0.05-0.07c-0.03,0.04-0.05,0.08-0.07,0.12c0.04,0,0.09-0.01,0.13-0.03L58.49,63.33z"/>
	<path class="st11" d="M59.03,64l-0.47,0.12l-0.3-0.39c0.03-0.12,0.08-0.24,0.12-0.34c0.01-0.04,0.04-0.08,0.07-0.12l0.05,0.07
		l0.01,0.03L59.03,64z"/>
	<path class="st12" d="M66.23,69.25c-0.04,0.37-0.1,0.73-0.21,1.08c-0.03,0.07-0.04,0.13-0.07,0.2c-0.22,0.68-0.58,1.3-1.01,1.84
		c-1.25,1.55-3.23,2.44-5.34,2.2c-1.68-0.18-3.12-1.04-4.08-2.27l0.56-1.77l0.07-0.2l0.08-0.26l1.89-5.98
		c0.04-0.12,0.08-0.24,0.13-0.35c0.03-0.12,0.08-0.24,0.12-0.34c0.01-0.04,0.04-0.08,0.07-0.12v-0.01c0.05-0.14,0.12-0.29,0.18-0.43
		c0.72-0.21,1.5-0.28,2.3-0.2c1.1,0.12,2.1,0.54,2.93,1.15c1.3,0.96,2.18,2.41,2.37,4.05C66.28,68.29,66.28,68.76,66.23,69.25z"/>
	<path class="st11" d="M66.23,69.25c-0.04,0.37-0.1,0.73-0.21,1.08c-0.03,0.07-0.04,0.13-0.07,0.2c-0.22,0.68-0.58,1.3-1.01,1.84
		c-1.14,0.76-2.53,1.14-4,0.98c-1.9-0.21-3.52-1.3-4.46-2.82c-0.03-0.07-0.07-0.13-0.1-0.2c-0.05-0.08-0.1-0.17-0.14-0.26l1.89-5.98
		c0.04-0.12,0.08-0.24,0.13-0.35c0.03-0.12,0.08-0.24,0.12-0.34c0.01-0.04,0.04-0.08,0.07-0.12v-0.01c0.05-0.14,0.12-0.29,0.18-0.43
		c0.72-0.21,1.5-0.28,2.3-0.2c1.1,0.12,2.1,0.54,2.93,1.15c1.3,0.96,2.18,2.41,2.37,4.05C66.28,68.29,66.28,68.76,66.23,69.25z"/>
	
		<ellipse transform="matrix(0.9459 -0.3245 0.3245 0.9459 -17.9482 24.5632)" class="st1" cx="64.66" cy="66.09" rx="1.89" ry="2.45"/>
	<path class="st2" d="M56.04,82.46c-0.26,0.54-0.96,0.85-1.53,0.5c-0.29-0.18-0.59-0.34-0.89-0.5c-0.25-0.13-0.5-0.26-0.75-0.38
		c-0.14-0.07-0.26-0.16-0.34-0.25l0.18-0.58l0.07-0.22l0.28-0.87l0.08-0.25l0.13-0.39l0.17-0.55l0.68-2.19l0.04-0.12l0.07-0.21
		c0.05,0.18,0.1,0.38,0.13,0.58c0.26,0.5,0.55,1,0.8,1.55c0.46,0.98,0.67,2.1,0.96,3.15C56.17,81.98,56.14,82.23,56.04,82.46z"/>
	<path class="st2" d="M54.7,74.91l-0.49,1.53l-0.07,0.21l-0.04,0.12c0.13,0.38,0.25,0.75,0.34,1.09c0.39,1.23,0.68,2.27,0.83,3.02
		c0.03,0.14,0.04,0.26,0.07,0.38c0,0.01,0,0.01,0,0.01c0.04,0.25,0.05,0.46,0.04,0.6v0.08c0.01,0.08,0,0.3-0.07,0.5
		c-0.05,0.14-0.13,0.28-0.25,0.34c-0.28,0.14-0.75-0.17-0.85-0.26l-0.07-0.04c-0.01-0.01-0.04-0.03-0.05-0.04
		c-0.25-0.18-0.62-0.55-1.05-1.09c-0.09-0.1-0.18-0.22-0.28-0.34l-0.07,0.22l-0.18,0.58l-0.16,0.5c0.04,0.05,0.08,0.09,0.1,0.13
		c0.41,0.46,0.76,0.8,1.02,0.98c0.12,0.09,0.28,0.2,0.46,0.29c0.46,0.22,1.06,0.37,1.63,0.09c0.05-0.03,0.1-0.05,0.14-0.09
		c0.1-0.05,0.2-0.14,0.28-0.22c0.29-0.3,0.43-0.7,0.49-1.05c0.04-0.2,0.05-0.38,0.04-0.52C56.59,80.87,55.78,78.07,54.7,74.91z"/>
	<path class="st10" d="M80,70.52v38.84l-36.18,0.01l2.03-6.43l0.26-0.81c0,0-0.01-0.01,0-0.03l0.09-0.28l0.33-1.06L47,99.3
		l0.35-1.09l0.35-1.15l0.14-0.45V96.6l0.46-1.46c0,0,0,0,0.01-0.01l0.13-0.41v-0.01l3.46-10.98l0.41-1.27l0.04-0.13l0.16-0.5
		l0.18-0.58l0.07-0.22l0.28-0.87l0.08-0.25l0.13-0.39l0.17-0.55l0.68-2.19l0.04-0.12l0.07-0.21l0.49-1.53l0.83-2.62l0.56-1.77H80z"
		/>
	<polygon class="st10" points="80,70.52 80,82.46 52.33,82.46 52.37,82.32 52.52,81.83 52.71,81.25 52.77,81.03 53.05,80.16 
		53.13,79.91 53.26,79.52 53.43,78.97 54.11,76.78 54.15,76.66 54.22,76.45 54.7,74.91 55.53,72.29 56.09,70.52 56.16,70.32 
		76.66,70.32 76.49,70.52 	"/>
	<path class="st1" d="M48.27,98.67c-0.25-0.24-0.55-0.39-0.92-0.46L47,99.3c0.28,0.09,0.42,0.34,0.42,0.73
		c0,0.49-0.25,0.73-0.73,0.73h-0.14l-0.33,1.06c0.01-0.01,0.03-0.01,0.04-0.01c0.09,0,0.22,0,0.41,0.01
		c0.18,0.01,0.31,0.01,0.41,0.01c0.55,0,0.97-0.17,1.27-0.54c0.29-0.34,0.43-0.79,0.43-1.34C48.77,99.44,48.62,99.01,48.27,98.67z
		 M46.12,102.13l-0.26,0.81h0.24c0.04,0,0.07-0.03,0.07-0.08c0-0.09-0.01-0.25-0.03-0.46C46.12,102.3,46.12,102.21,46.12,102.13z"/>
	<path class="st1" d="M53.3,102.89c0,0.02-0.02,0.03-0.07,0.03c-0.09,0.01-0.3,0.02-0.65,0.02c-0.3,0-0.5-0.01-0.61-0.02
		c-0.05-0.01-0.08-0.01-0.08-0.02c-0.01-0.01-0.03-0.03-0.05-0.07c-0.03-0.09-0.08-0.22-0.15-0.39c-0.09-0.23-0.23-0.56-0.42-1
		c-0.04-0.09-0.14-0.14-0.28-0.15c0.07,0.01-0.05,0.01-0.35,0.01c-0.03,0-0.05,0.06-0.05,0.17c0,0.15,0.01,0.38,0.04,0.69
		c0.03,0.31,0.04,0.54,0.04,0.69c0,0.04-0.01,0.06-0.03,0.07c-0.03,0-0.06,0-0.09,0.01c-0.13,0.01-0.34,0.01-0.63,0.01
		c-0.32,0-0.52-0.01-0.59-0.02c-0.07-0.01-0.1-0.05-0.1-0.11c0-0.25,0.01-0.63,0.04-1.13c0.02-0.5,0.04-0.88,0.04-1.13
		c0-0.96-0.02-1.71-0.06-2.25l0-0.05c0-0.04,0.03-0.06,0.11-0.08c0.07-0.01,0.42-0.03,1.04-0.04c0.42-0.01,0.75-0.01,1-0.01
		c0.52,0,0.94,0.12,1.27,0.35c0.37,0.26,0.55,0.64,0.55,1.14c0,0.33-0.05,0.6-0.14,0.79c-0.09,0.2-0.27,0.39-0.53,0.57
		c-0.05,0.04-0.08,0.07-0.08,0.1c0,0,0.14,0.28,0.42,0.85C53.16,102.52,53.3,102.83,53.3,102.89z M51.87,99.84
		c0-0.28-0.09-0.47-0.27-0.58c-0.14-0.08-0.36-0.12-0.66-0.12c-0.22,0-0.33,0.03-0.34,0.1c-0.01,0.08-0.02,0.3-0.02,0.67
		c0,0.05,0,0.13,0,0.23c0,0.1,0,0.18,0,0.23c0,0.01,0.04,0.02,0.11,0.03c0.14,0.02,0.28,0.03,0.44,0.03
		C51.62,100.43,51.87,100.23,51.87,99.84z"/>
	<path class="st1" d="M58.41,100.54c0,0.71-0.23,1.3-0.68,1.78c-0.46,0.49-1.04,0.73-1.75,0.73c-0.7,0-1.28-0.25-1.75-0.74
		c-0.45-0.48-0.68-1.07-0.68-1.77c0-0.71,0.23-1.3,0.68-1.78c0.46-0.49,1.05-0.74,1.75-0.74c0.7,0,1.28,0.25,1.74,0.74
		C58.18,99.25,58.41,99.84,58.41,100.54z M57.12,100.54c0-0.34-0.1-0.63-0.31-0.87c-0.22-0.25-0.49-0.37-0.83-0.37
		c-0.32,0-0.59,0.13-0.81,0.39c-0.22,0.25-0.32,0.54-0.32,0.86c0,0.35,0.1,0.64,0.3,0.87c0.21,0.24,0.49,0.36,0.83,0.36
		c0.32,0,0.59-0.13,0.82-0.38C57.01,101.15,57.12,100.86,57.12,100.54z"/>
	<path class="st1" d="M63.36,100.51c0,0.67-0.22,1.25-0.64,1.74c-0.38,0.44-0.91,0.67-1.6,0.69c-0.13,0-0.49,0.01-1.08,0.01
		c-0.11,0-0.28,0-0.5-0.01c-0.22-0.01-0.39-0.01-0.5-0.01c-0.07,0-0.1-0.03-0.1-0.08c0-0.25,0.01-0.62,0.03-1.12
		c0.02-0.5,0.03-0.87,0.03-1.12c0-0.26-0.01-0.65-0.03-1.17c-0.02-0.52-0.03-0.91-0.03-1.17c0-0.05,0.03-0.08,0.1-0.09
		c0.16-0.02,0.43-0.03,0.79-0.03c0.7,0,1.15,0.01,1.36,0.03c0.54,0.05,0.96,0.19,1.26,0.41c0.29,0.2,0.51,0.49,0.68,0.86
		C63.28,99.79,63.36,100.15,63.36,100.51z M62.05,100.51c0-0.38-0.11-0.7-0.34-0.94c-0.23-0.25-0.54-0.38-0.92-0.38
		c-0.35,0-0.52,0.05-0.52,0.14c0,0.13,0,0.33-0.01,0.6c-0.01,0.27-0.01,0.47-0.01,0.6c0,0.13,0,0.33,0.01,0.59
		c0,0.26,0.01,0.46,0.01,0.6c0,0.1,0.18,0.15,0.54,0.15c0.39,0,0.7-0.13,0.92-0.39C61.95,101.24,62.05,100.92,62.05,100.51z"/>
	<path class="st1" d="M67.95,101.26c0,0.58-0.07,0.97-0.21,1.18c-0.25,0.39-0.89,0.58-1.9,0.58c-0.46,0-0.81-0.04-1.06-0.11
		c-0.39-0.11-0.65-0.33-0.77-0.65c-0.06-0.16-0.09-0.44-0.09-0.84c0-0.09,0-0.23,0.01-0.42c0.01-0.18,0.01-0.32,0.01-0.41
		c0-0.26-0.01-0.66-0.04-1.18c-0.02-0.53-0.04-0.92-0.04-1.18c0-0.05,0.02-0.08,0.07-0.08c0.14,0,0.35,0.01,0.63,0.02
		c0.28,0.01,0.49,0.02,0.63,0.02c0.06,0,0.08,0.02,0.08,0.07c0,0.3-0.01,0.75-0.03,1.35c-0.02,0.6-0.03,1.05-0.03,1.35
		c0,0.36,0.04,0.6,0.11,0.72c0.1,0.17,0.31,0.26,0.63,0.26c0.46,0,0.7-0.23,0.7-0.68c0-0.33-0.01-0.82-0.02-1.48
		c-0.02-0.66-0.02-1.15-0.02-1.48c0-0.07,0.03-0.11,0.08-0.11c0.13,0,0.34-0.01,0.61-0.02c0.27-0.01,0.47-0.02,0.61-0.02
		c0.07,0,0.1,0.03,0.1,0.08c0,0.26-0.01,0.65-0.03,1.18c-0.02,0.53-0.03,0.92-0.03,1.18c0,0.07,0,0.18,0,0.33
		C67.95,101.07,67.95,101.18,67.95,101.26z"/>
	<path class="st1" d="M72.59,102.16c0,0.04-0.02,0.08-0.07,0.14c-0.42,0.5-0.97,0.74-1.66,0.74c-0.71,0-1.28-0.24-1.72-0.73
		c-0.43-0.47-0.64-1.06-0.64-1.77c0-0.69,0.21-1.27,0.63-1.76c0.44-0.5,1-0.76,1.67-0.76c0.73,0,1.31,0.23,1.73,0.68
		c0.04,0.05,0.07,0.09,0.07,0.13c0,0.04-0.08,0.2-0.24,0.48c-0.16,0.28-0.26,0.43-0.3,0.47c-0.02,0.02-0.04,0.03-0.07,0.03
		c-0.01,0-0.07-0.05-0.17-0.14c-0.12-0.11-0.24-0.19-0.36-0.26c-0.18-0.09-0.37-0.14-0.56-0.14c-0.33,0-0.6,0.12-0.8,0.37
		c-0.18,0.23-0.28,0.52-0.28,0.86c0,0.34,0.09,0.63,0.28,0.87c0.2,0.25,0.47,0.38,0.8,0.38c0.2,0,0.38-0.04,0.56-0.13
		c0.12-0.06,0.23-0.14,0.35-0.24c0.1-0.09,0.16-0.13,0.17-0.13c0.02,0,0.04,0.01,0.07,0.04c0.04,0.04,0.13,0.18,0.3,0.43
		C72.51,101.99,72.59,102.13,72.59,102.16z"/>
	<path class="st1" d="M76.44,101.87c0,0.1-0.02,0.28-0.06,0.54c-0.04,0.28-0.08,0.45-0.11,0.51c-0.03,0.04-0.06,0.06-0.11,0.06
		c-0.02,0-0.05,0-0.1-0.01c-0.17-0.02-0.65-0.03-1.45-0.03c-0.17,0-0.43,0-0.78,0c-0.34,0-0.6,0-0.78,0c-0.07,0-0.11-0.03-0.11-0.1
		c0-0.25,0.01-0.64,0.04-1.15c0.03-0.51,0.04-0.89,0.04-1.14c0-0.26-0.01-0.74-0.04-1.45c-0.01-0.18-0.02-0.45-0.04-0.81l0-0.05
		c0-0.05,0.02-0.08,0.09-0.08c0.17,0,0.42,0,0.76,0.01c0.34,0.01,0.59,0.01,0.76,0.01c0.17,0,0.42,0,0.75-0.01
		c0.33-0.01,0.58-0.01,0.75-0.01c0.12,0,0.19,0.04,0.2,0.13c0.01,0.05,0.03,0.21,0.05,0.47c0.02,0.26,0.04,0.42,0.04,0.48
		c0,0.05-0.02,0.07-0.07,0.07c-0.01,0-0.04,0-0.07,0c-0.6-0.05-1.15-0.07-1.63-0.07c-0.12,0-0.19,0.03-0.22,0.09
		c-0.01,0.03-0.02,0.11-0.02,0.26c0,0.15,0.02,0.26,0.07,0.31c0.04,0.04,0.11,0.06,0.22,0.06c0.02,0,0.07,0,0.13-0.01
		c0.07,0,0.12-0.01,0.16-0.01c0.29,0,0.58-0.01,0.87-0.02c0.02,0,0.09-0.01,0.19-0.02c0.08-0.01,0.14-0.01,0.18-0.01
		c0.06,0,0.08,0.03,0.08,0.08c0-0.05-0.02,0.13-0.06,0.52c-0.02,0.18-0.03,0.36-0.03,0.54c0,0.05-0.03,0.07-0.1,0.07l-0.31-0.03
		c-0.13-0.01-0.42-0.02-0.89-0.02H74.5c-0.09,0-0.15,0.02-0.16,0.07c0,0.01,0,0.08,0,0.21c0,0.17,0.01,0.28,0.03,0.33
		c0.04,0.09,0.18,0.14,0.44,0.15c-0.01,0,0.16,0,0.5,0c0.12,0,0.3-0.01,0.54-0.03c0.24-0.02,0.42-0.03,0.53-0.03
		C76.42,101.74,76.44,101.79,76.44,101.87z"/>
	<path class="st13" d="M54.56,88.21c3.94,0,7.87,0,11.81,0c1.76,0,1.76-2.74,0-2.74c-3.94,0-7.87,0-11.81,0
		C52.8,85.48,52.8,88.21,54.56,88.21L54.56,88.21z"/>
	<path class="st1" d="M48.59,94.68c-0.04,0-0.08,0-0.13,0.03v0.01l-0.13,0.41c0.05-0.03,0.09-0.04,0.13-0.04
		c0.04,0,0.07,0.01,0.09,0.05c0.01,0.03,0.01,0.04,0.01,0.07c0,0.14-0.1,0.35-0.33,0.6c-0.08,0.08-0.12,0.13-0.12,0.16
		s0.03,0.07,0.09,0.12c0,0-0.01,0.04-0.05,0.12c-0.04,0.08-0.09,0.16-0.14,0.22c-0.05,0.08-0.1,0.13-0.16,0.17v0.01l-0.14,0.45
		c0.24-0.09,0.47-0.35,0.72-0.76c0.31-0.5,0.46-0.92,0.46-1.25C48.89,94.81,48.79,94.68,48.59,94.68z"/>
	<path class="st1" d="M50.25,94.78c0.19,0,0.29,0.1,0.29,0.31c0,0.18-0.07,0.36-0.21,0.54c-0.11,0.14-0.2,0.21-0.28,0.21
		c-0.07,0-0.1-0.04-0.1-0.12c0-0.04,0.01-0.07,0.03-0.1c0.01-0.01,0.04-0.04,0.09-0.08c0.04-0.04,0.09-0.1,0.14-0.19
		c0.03-0.06,0.05-0.1,0.05-0.14c0-0.04-0.02-0.06-0.07-0.06c-0.05,0-0.13,0.04-0.24,0.12c-0.17,0.13-0.33,0.33-0.5,0.61
		c-0.17,0.29-0.26,0.52-0.26,0.69c0,0.05,0.02,0.1,0.05,0.14c0.05,0.06,0.11,0.1,0.19,0.1c0.15,0,0.34-0.1,0.55-0.29
		c0.18-0.16,0.33-0.33,0.45-0.49c0.06-0.09,0.12-0.14,0.17-0.14c0.03,0,0.05,0.01,0.07,0.04c0.02,0.02,0.03,0.05,0.03,0.07
		c0,0.09-0.12,0.27-0.35,0.53c-0.37,0.41-0.71,0.62-1.01,0.62c-0.18,0-0.32-0.06-0.42-0.2c-0.07-0.1-0.1-0.21-0.1-0.34
		c0-0.26,0.11-0.55,0.32-0.89c0.2-0.32,0.44-0.58,0.71-0.78C50,94.83,50.13,94.78,50.25,94.78z"/>
	<path class="st1" d="M52.07,96.45c-0.08,0.14-0.16,0.26-0.24,0.36c-0.15,0.19-0.31,0.29-0.46,0.29c-0.13,0-0.24-0.06-0.31-0.19
		c-0.05-0.08-0.07-0.18-0.07-0.29c0-0.27,0.09-0.57,0.26-0.9c0.19-0.37,0.42-0.65,0.69-0.84c0.18-0.13,0.35-0.19,0.51-0.19
		c0.1,0,0.19,0.03,0.26,0.1c0.06,0.06,0.09,0.12,0.09,0.19c0,0.05-0.02,0.13-0.06,0.22c0.04,0.05,0.06,0.1,0.06,0.14
		c0,0.05-0.03,0.14-0.1,0.25c-0.07,0.12-0.14,0.28-0.21,0.48c-0.08,0.21-0.12,0.38-0.12,0.51c0,0.1,0.03,0.19,0.09,0.25
		c0.02,0.02,0.07,0.05,0.15,0.09c0.06,0.03,0.09,0.08,0.09,0.15c0,0.05-0.02,0.09-0.05,0.11c-0.04,0.03-0.08,0.05-0.13,0.05
		c-0.13,0-0.25-0.06-0.34-0.18c-0.08-0.1-0.12-0.22-0.12-0.36C52.05,96.65,52.06,96.57,52.07,96.45z M52.53,95.24
		c-0.03-0.05-0.06-0.09-0.1-0.12s-0.07-0.04-0.11-0.04c-0.19,0-0.39,0.16-0.61,0.49c-0.24,0.36-0.36,0.67-0.36,0.92
		c0,0.06,0.01,0.11,0.03,0.14c0.02,0.03,0.06,0.05,0.11,0.05c0.12,0,0.26-0.13,0.41-0.38c0.09-0.14,0.2-0.34,0.33-0.61
		c0.09-0.17,0.15-0.29,0.19-0.35C52.44,95.32,52.47,95.28,52.53,95.24z"/>
	<path class="st1" d="M53.54,95.84c-0.07,0.19-0.13,0.35-0.17,0.46c-0.04,0.12-0.06,0.2-0.06,0.25c0,0.06,0.03,0.09,0.09,0.09
		c0.09,0,0.2-0.08,0.34-0.25c0.07-0.08,0.17-0.23,0.29-0.44c0.05-0.08,0.11-0.13,0.16-0.13c0.06,0,0.1,0.03,0.1,0.09
		c0,0.11-0.12,0.32-0.37,0.64c-0.25,0.34-0.49,0.51-0.7,0.51c-0.09,0-0.17-0.04-0.23-0.12c-0.04-0.06-0.06-0.13-0.06-0.21
		c0-0.14,0.04-0.33,0.13-0.57c0.08-0.24,0.21-0.54,0.37-0.89c0.42-0.89,0.85-1.62,1.29-2.19c0.35-0.46,0.64-0.69,0.87-0.69
		c0.07,0,0.13,0.03,0.18,0.09c0.05,0.06,0.07,0.12,0.07,0.2c0,0.34-0.31,0.92-0.92,1.72c-0.27,0.36-0.6,0.71-0.99,1.07
		C53.85,95.56,53.71,95.68,53.54,95.84z M53.8,95.25c0.51-0.44,0.97-0.99,1.37-1.66c0.21-0.35,0.31-0.58,0.31-0.69
		c0-0.05-0.02-0.08-0.07-0.08c-0.14,0-0.38,0.27-0.74,0.81C54.38,94.07,54.09,94.61,53.8,95.25z"/>
	<polygon class="st13" points="80,82.46 80,83.73 51.92,83.73 52.33,82.46 	"/>
	<path class="st5" d="M80.21,59.97v6.24l-3.55,4.11l-0.17,0.2l-7.95,9.18l-2.66-2.3l-2.4-2.09l4.16-4.8l0.17-0.2l8.29-9.59
		C77.15,59.53,78.86,59.25,80.21,59.97z"/>
	<path class="st5" d="M80.21,59.97v6.24l-3.55,4.11l-0.17,0.2l-7.95,9.18l-2.66-2.3l-2.4-2.09l4.16-4.8l0.17-0.2l8.29-9.59
		C77.15,59.53,78.86,59.25,80.21,59.97z"/>
	<path class="st5" d="M80.21,59.97v6.24l-3.55,4.11l-0.17,0.2l-7.95,9.18l-2.66-2.3l-2.4-2.09l4.16-4.8l0.17-0.2l8.29-9.59
		C77.15,59.53,78.86,59.25,80.21,59.97z"/>
	<polygon class="st5" points="80.21,60.81 80.21,66.22 76.66,70.32 76.49,70.52 68.54,79.7 65.88,77.41 71.83,70.52 71.99,70.32 	
		"/>
	<path class="st5" d="M58.49,63.33l-0.05-0.07c-0.03,0.04-0.05,0.08-0.07,0.12c0.04,0,0.09-0.01,0.13-0.03L58.49,63.33z"/>
	<path class="st5" d="M59.03,64l-0.47,0.12l-0.3-0.39c0.03-0.12,0.08-0.24,0.12-0.34c0.01-0.04,0.04-0.08,0.07-0.12l0.05,0.07
		l0.01,0.03L59.03,64z"/>
	<path class="st5" d="M66.23,69.25c-0.04,0.37-0.1,0.73-0.21,1.08c-0.03,0.07-0.04,0.13-0.07,0.2c-0.22,0.68-0.58,1.3-1.01,1.84
		c-1.25,1.55-3.23,2.44-5.34,2.2c-1.68-0.18-3.12-1.04-4.08-2.27l0.56-1.77l0.07-0.2l0.08-0.26l1.89-5.98
		c0.04-0.12,0.08-0.24,0.13-0.35c0.03-0.12,0.08-0.24,0.12-0.34c0.01-0.04,0.04-0.08,0.07-0.12v-0.01c0.05-0.14,0.12-0.29,0.18-0.43
		c0.72-0.21,1.5-0.28,2.3-0.2c1.1,0.12,2.1,0.54,2.93,1.15c1.3,0.96,2.18,2.41,2.37,4.05C66.28,68.29,66.28,68.76,66.23,69.25z"/>
	<path class="st5" d="M66.23,69.25c-0.04,0.37-0.1,0.73-0.21,1.08c-0.03,0.07-0.04,0.13-0.07,0.2c-0.22,0.68-0.58,1.3-1.01,1.84
		c-1.14,0.76-2.53,1.14-4,0.98c-1.9-0.21-3.52-1.3-4.46-2.82c-0.03-0.07-0.07-0.13-0.1-0.2c-0.05-0.08-0.1-0.17-0.14-0.26l1.89-5.98
		c0.04-0.12,0.08-0.24,0.13-0.35c0.03-0.12,0.08-0.24,0.12-0.34c0.01-0.04,0.04-0.08,0.07-0.12v-0.01c0.05-0.14,0.12-0.29,0.18-0.43
		c0.72-0.21,1.5-0.28,2.3-0.2c1.1,0.12,2.1,0.54,2.93,1.15c1.3,0.96,2.18,2.41,2.37,4.05C66.28,68.29,66.28,68.76,66.23,69.25z"/>
	
		<ellipse transform="matrix(0.9459 -0.3245 0.3245 0.9459 -17.9482 24.5632)" class="st5" cx="64.66" cy="66.09" rx="1.89" ry="2.45"/>
	<path class="st5" d="M56.04,82.46c-0.26,0.54-0.96,0.85-1.53,0.5c-0.29-0.18-0.59-0.34-0.89-0.5c-0.25-0.13-0.5-0.26-0.75-0.38
		c-0.14-0.07-0.26-0.16-0.34-0.25l0.18-0.58l0.07-0.22l0.28-0.87l0.08-0.25l0.13-0.39l0.17-0.55l0.68-2.19l0.04-0.12l0.07-0.21
		c0.05,0.18,0.1,0.38,0.13,0.58c0.26,0.5,0.55,1,0.8,1.55c0.46,0.98,0.67,2.1,0.96,3.15C56.17,81.98,56.14,82.23,56.04,82.46z"/>
	<path class="st5" d="M54.7,74.91l-0.49,1.53l-0.07,0.21l-0.04,0.12c0.13,0.38,0.25,0.75,0.34,1.09c0.39,1.23,0.68,2.27,0.83,3.02
		c0.03,0.14,0.04,0.26,0.07,0.38c0,0.01,0,0.01,0,0.01c0.04,0.25,0.05,0.46,0.04,0.6v0.08c0.01,0.08,0,0.3-0.07,0.5
		c-0.05,0.14-0.13,0.28-0.25,0.34c-0.28,0.14-0.75-0.17-0.85-0.26l-0.07-0.04c-0.01-0.01-0.04-0.03-0.05-0.04
		c-0.25-0.18-0.62-0.55-1.05-1.09c-0.09-0.1-0.18-0.22-0.28-0.34l-0.07,0.22l-0.18,0.58l-0.16,0.5c0.04,0.05,0.08,0.09,0.1,0.13
		c0.41,0.46,0.76,0.8,1.02,0.98c0.12,0.09,0.28,0.2,0.46,0.29c0.46,0.22,1.06,0.37,1.63,0.09c0.05-0.03,0.1-0.05,0.14-0.09
		c0.1-0.05,0.2-0.14,0.28-0.22c0.29-0.3,0.43-0.7,0.49-1.05c0.04-0.2,0.05-0.38,0.04-0.52C56.59,80.87,55.78,78.07,54.7,74.91z"/>
	<polygon class="st5" points="80.21,70.32 80.21,82.46 80,82.46 80,70.52 76.49,70.52 76.66,70.32 	"/>
	<path class="st5" d="M80,70.52v38.84l-36.18,0.01l2.03-6.43l0.26-0.81c0,0-0.01-0.01,0-0.03l0.09-0.28l0.33-1.06L47,99.3l0.35-1.09
		l0.35-1.15l0.14-0.45V96.6l0.46-1.46c0,0,0,0,0.01-0.01l0.13-0.41v-0.01l3.46-10.98l0.41-1.27l0.04-0.13l0.16-0.5l0.18-0.58
		l0.07-0.22l0.28-0.87l0.08-0.25l0.13-0.39l0.17-0.55l0.68-2.19l0.04-0.12l0.07-0.21l0.49-1.53l0.83-2.62l0.56-1.77H80z"/>
	<polygon class="st5" points="80,70.52 80,82.46 52.33,82.46 52.37,82.32 52.52,81.83 52.71,81.25 52.77,81.03 53.05,80.16 
		53.13,79.91 53.26,79.52 53.43,78.97 54.11,76.78 54.15,76.66 54.22,76.45 54.7,74.91 55.53,72.29 56.09,70.52 56.16,70.32 
		76.66,70.32 76.49,70.52 	"/>
	<path class="st5" d="M48.27,98.67c-0.25-0.24-0.55-0.39-0.92-0.46L47,99.3c0.28,0.09,0.42,0.34,0.42,0.73
		c0,0.49-0.25,0.73-0.73,0.73h-0.14l-0.33,1.06c0.01-0.01,0.03-0.01,0.04-0.01c0.09,0,0.22,0,0.41,0.01
		c0.18,0.01,0.31,0.01,0.41,0.01c0.55,0,0.97-0.17,1.27-0.54c0.29-0.34,0.43-0.79,0.43-1.34C48.77,99.44,48.62,99.01,48.27,98.67z
		 M46.12,102.13l-0.26,0.81h0.24c0.04,0,0.07-0.03,0.07-0.08c0-0.09-0.01-0.25-0.03-0.46C46.12,102.3,46.12,102.21,46.12,102.13z"/>
	<path class="st5" d="M53.3,102.89c0,0.02-0.02,0.03-0.07,0.03c-0.09,0.01-0.3,0.02-0.65,0.02c-0.3,0-0.5-0.01-0.61-0.02
		c-0.05-0.01-0.08-0.01-0.08-0.02c-0.01-0.01-0.03-0.03-0.05-0.07c-0.03-0.09-0.08-0.22-0.15-0.39c-0.09-0.23-0.23-0.56-0.42-1
		c-0.04-0.09-0.14-0.14-0.28-0.15c0.07,0.01-0.05,0.01-0.35,0.01c-0.03,0-0.05,0.06-0.05,0.17c0,0.15,0.01,0.38,0.04,0.69
		c0.03,0.31,0.04,0.54,0.04,0.69c0,0.04-0.01,0.06-0.03,0.07c-0.03,0-0.06,0-0.09,0.01c-0.13,0.01-0.34,0.01-0.63,0.01
		c-0.32,0-0.52-0.01-0.59-0.02c-0.07-0.01-0.1-0.05-0.1-0.11c0-0.25,0.01-0.63,0.04-1.13c0.02-0.5,0.04-0.88,0.04-1.13
		c0-0.96-0.02-1.71-0.06-2.25l0-0.05c0-0.04,0.03-0.06,0.11-0.08c0.07-0.01,0.42-0.03,1.04-0.04c0.42-0.01,0.75-0.01,1-0.01
		c0.52,0,0.94,0.12,1.27,0.35c0.37,0.26,0.55,0.64,0.55,1.14c0,0.33-0.05,0.6-0.14,0.79c-0.09,0.2-0.27,0.39-0.53,0.57
		c-0.05,0.04-0.08,0.07-0.08,0.1c0,0,0.14,0.28,0.42,0.85C53.16,102.52,53.3,102.83,53.3,102.89z M51.87,99.84
		c0-0.28-0.09-0.47-0.27-0.58c-0.14-0.08-0.36-0.12-0.66-0.12c-0.22,0-0.33,0.03-0.34,0.1c-0.01,0.08-0.02,0.3-0.02,0.67
		c0,0.05,0,0.13,0,0.23c0,0.1,0,0.18,0,0.23c0,0.01,0.04,0.02,0.11,0.03c0.14,0.02,0.28,0.03,0.44,0.03
		C51.62,100.43,51.87,100.23,51.87,99.84z"/>
	<path class="st5" d="M58.41,100.54c0,0.71-0.23,1.3-0.68,1.78c-0.46,0.49-1.04,0.73-1.75,0.73c-0.7,0-1.28-0.25-1.75-0.74
		c-0.45-0.48-0.68-1.07-0.68-1.77c0-0.71,0.23-1.3,0.68-1.78c0.46-0.49,1.05-0.74,1.75-0.74c0.7,0,1.28,0.25,1.74,0.74
		C58.18,99.25,58.41,99.84,58.41,100.54z M57.12,100.54c0-0.34-0.1-0.63-0.31-0.87c-0.22-0.25-0.49-0.37-0.83-0.37
		c-0.32,0-0.59,0.13-0.81,0.39c-0.22,0.25-0.32,0.54-0.32,0.86c0,0.35,0.1,0.64,0.3,0.87c0.21,0.24,0.49,0.36,0.83,0.36
		c0.32,0,0.59-0.13,0.82-0.38C57.01,101.15,57.12,100.86,57.12,100.54z"/>
	<path class="st5" d="M63.36,100.51c0,0.67-0.22,1.25-0.64,1.74c-0.38,0.44-0.91,0.67-1.6,0.69c-0.13,0-0.49,0.01-1.08,0.01
		c-0.11,0-0.28,0-0.5-0.01c-0.22-0.01-0.39-0.01-0.5-0.01c-0.07,0-0.1-0.03-0.1-0.08c0-0.25,0.01-0.62,0.03-1.12
		c0.02-0.5,0.03-0.87,0.03-1.12c0-0.26-0.01-0.65-0.03-1.17c-0.02-0.52-0.03-0.91-0.03-1.17c0-0.05,0.03-0.08,0.1-0.09
		c0.16-0.02,0.43-0.03,0.79-0.03c0.7,0,1.15,0.01,1.36,0.03c0.54,0.05,0.96,0.19,1.26,0.41c0.29,0.2,0.51,0.49,0.68,0.86
		C63.28,99.79,63.36,100.15,63.36,100.51z M62.05,100.51c0-0.38-0.11-0.7-0.34-0.94c-0.23-0.25-0.54-0.38-0.92-0.38
		c-0.35,0-0.52,0.05-0.52,0.14c0,0.13,0,0.33-0.01,0.6c-0.01,0.27-0.01,0.47-0.01,0.6c0,0.13,0,0.33,0.01,0.59
		c0,0.26,0.01,0.46,0.01,0.6c0,0.1,0.18,0.15,0.54,0.15c0.39,0,0.7-0.13,0.92-0.39C61.95,101.24,62.05,100.92,62.05,100.51z"/>
	<path class="st5" d="M67.95,101.26c0,0.58-0.07,0.97-0.21,1.18c-0.25,0.39-0.89,0.58-1.9,0.58c-0.46,0-0.81-0.04-1.06-0.11
		c-0.39-0.11-0.65-0.33-0.77-0.65c-0.06-0.16-0.09-0.44-0.09-0.84c0-0.09,0-0.23,0.01-0.42c0.01-0.18,0.01-0.32,0.01-0.41
		c0-0.26-0.01-0.66-0.04-1.18c-0.02-0.53-0.04-0.92-0.04-1.18c0-0.05,0.02-0.08,0.07-0.08c0.14,0,0.35,0.01,0.63,0.02
		c0.28,0.01,0.49,0.02,0.63,0.02c0.06,0,0.08,0.02,0.08,0.07c0,0.3-0.01,0.75-0.03,1.35c-0.02,0.6-0.03,1.05-0.03,1.35
		c0,0.36,0.04,0.6,0.11,0.72c0.1,0.17,0.31,0.26,0.63,0.26c0.46,0,0.7-0.23,0.7-0.68c0-0.33-0.01-0.82-0.02-1.48
		c-0.02-0.66-0.02-1.15-0.02-1.48c0-0.07,0.03-0.11,0.08-0.11c0.13,0,0.34-0.01,0.61-0.02c0.27-0.01,0.47-0.02,0.61-0.02
		c0.07,0,0.1,0.03,0.1,0.08c0,0.26-0.01,0.65-0.03,1.18c-0.02,0.53-0.03,0.92-0.03,1.18c0,0.07,0,0.18,0,0.33
		C67.95,101.07,67.95,101.18,67.95,101.26z"/>
	<path class="st5" d="M72.59,102.16c0,0.04-0.02,0.08-0.07,0.14c-0.42,0.5-0.97,0.74-1.66,0.74c-0.71,0-1.28-0.24-1.72-0.73
		c-0.43-0.47-0.64-1.06-0.64-1.77c0-0.69,0.21-1.27,0.63-1.76c0.44-0.5,1-0.76,1.67-0.76c0.73,0,1.31,0.23,1.73,0.68
		c0.04,0.05,0.07,0.09,0.07,0.13c0,0.04-0.08,0.2-0.24,0.48c-0.16,0.28-0.26,0.43-0.3,0.47c-0.02,0.02-0.04,0.03-0.07,0.03
		c-0.01,0-0.07-0.05-0.17-0.14c-0.12-0.11-0.24-0.19-0.36-0.26c-0.18-0.09-0.37-0.14-0.56-0.14c-0.33,0-0.6,0.12-0.8,0.37
		c-0.18,0.23-0.28,0.52-0.28,0.86c0,0.34,0.09,0.63,0.28,0.87c0.2,0.25,0.47,0.38,0.8,0.38c0.2,0,0.38-0.04,0.56-0.13
		c0.12-0.06,0.23-0.14,0.35-0.24c0.1-0.09,0.16-0.13,0.17-0.13c0.02,0,0.04,0.01,0.07,0.04c0.04,0.04,0.13,0.18,0.3,0.43
		C72.51,101.99,72.59,102.13,72.59,102.16z"/>
	<path class="st5" d="M76.44,101.87c0,0.1-0.02,0.28-0.06,0.54c-0.04,0.28-0.08,0.45-0.11,0.51c-0.03,0.04-0.06,0.06-0.11,0.06
		c-0.02,0-0.05,0-0.1-0.01c-0.17-0.02-0.65-0.03-1.45-0.03c-0.17,0-0.43,0-0.78,0c-0.34,0-0.6,0-0.78,0c-0.07,0-0.11-0.03-0.11-0.1
		c0-0.25,0.01-0.64,0.04-1.15c0.03-0.51,0.04-0.89,0.04-1.14c0-0.26-0.01-0.74-0.04-1.45c-0.01-0.18-0.02-0.45-0.04-0.81l0-0.05
		c0-0.05,0.02-0.08,0.09-0.08c0.17,0,0.42,0,0.76,0.01c0.34,0.01,0.59,0.01,0.76,0.01c0.17,0,0.42,0,0.75-0.01
		c0.33-0.01,0.58-0.01,0.75-0.01c0.12,0,0.19,0.04,0.2,0.13c0.01,0.05,0.03,0.21,0.05,0.47c0.02,0.26,0.04,0.42,0.04,0.48
		c0,0.05-0.02,0.07-0.07,0.07c-0.01,0-0.04,0-0.07,0c-0.6-0.05-1.15-0.07-1.63-0.07c-0.12,0-0.19,0.03-0.22,0.09
		c-0.01,0.03-0.02,0.11-0.02,0.26c0,0.15,0.02,0.26,0.07,0.31c0.04,0.04,0.11,0.06,0.22,0.06c0.02,0,0.07,0,0.13-0.01
		c0.07,0,0.12-0.01,0.16-0.01c0.29,0,0.58-0.01,0.87-0.02c0.02,0,0.09-0.01,0.19-0.02c0.08-0.01,0.14-0.01,0.18-0.01
		c0.06,0,0.08,0.03,0.08,0.08c0-0.05-0.02,0.13-0.06,0.52c-0.02,0.18-0.03,0.36-0.03,0.54c0,0.05-0.03,0.07-0.1,0.07l-0.31-0.03
		c-0.13-0.01-0.42-0.02-0.89-0.02H74.5c-0.09,0-0.15,0.02-0.16,0.07c0,0.01,0,0.08,0,0.21c0,0.17,0.01,0.28,0.03,0.33
		c0.04,0.09,0.18,0.14,0.44,0.15c-0.01,0,0.16,0,0.5,0c0.12,0,0.3-0.01,0.54-0.03c0.24-0.02,0.42-0.03,0.53-0.03
		C76.42,101.74,76.44,101.79,76.44,101.87z"/>
	<path class="st5" d="M54.56,88.21c3.94,0,7.87,0,11.81,0c1.76,0,1.76-2.74,0-2.74c-3.94,0-7.87,0-11.81,0
		C52.8,85.48,52.8,88.21,54.56,88.21L54.56,88.21z"/>
	<path class="st5" d="M48.59,94.68c-0.04,0-0.08,0-0.13,0.03v0.01l-0.13,0.41c0.05-0.03,0.09-0.04,0.13-0.04
		c0.04,0,0.07,0.01,0.09,0.05c0.01,0.03,0.01,0.04,0.01,0.07c0,0.14-0.1,0.35-0.33,0.6c-0.08,0.08-0.12,0.13-0.12,0.16
		s0.03,0.07,0.09,0.12c0,0-0.01,0.04-0.05,0.12c-0.04,0.08-0.09,0.16-0.14,0.22c-0.05,0.08-0.1,0.13-0.16,0.17v0.01l-0.14,0.45
		c0.24-0.09,0.47-0.35,0.72-0.76c0.31-0.5,0.46-0.92,0.46-1.25C48.89,94.81,48.79,94.68,48.59,94.68z"/>
	<path class="st5" d="M50.25,94.78c0.19,0,0.29,0.1,0.29,0.31c0,0.18-0.07,0.36-0.21,0.54c-0.11,0.14-0.2,0.21-0.28,0.21
		c-0.07,0-0.1-0.04-0.1-0.12c0-0.04,0.01-0.07,0.03-0.1c0.01-0.01,0.04-0.04,0.09-0.08c0.04-0.04,0.09-0.1,0.14-0.19
		c0.03-0.06,0.05-0.1,0.05-0.14c0-0.04-0.02-0.06-0.07-0.06c-0.05,0-0.13,0.04-0.24,0.12c-0.17,0.13-0.33,0.33-0.5,0.61
		c-0.17,0.29-0.26,0.52-0.26,0.69c0,0.05,0.02,0.1,0.05,0.14c0.05,0.06,0.11,0.1,0.19,0.1c0.15,0,0.34-0.1,0.55-0.29
		c0.18-0.16,0.33-0.33,0.45-0.49c0.06-0.09,0.12-0.14,0.17-0.14c0.03,0,0.05,0.01,0.07,0.04c0.02,0.02,0.03,0.05,0.03,0.07
		c0,0.09-0.12,0.27-0.35,0.53c-0.37,0.41-0.71,0.62-1.01,0.62c-0.18,0-0.32-0.06-0.42-0.2c-0.07-0.1-0.1-0.21-0.1-0.34
		c0-0.26,0.11-0.55,0.32-0.89c0.2-0.32,0.44-0.58,0.71-0.78C50,94.83,50.13,94.78,50.25,94.78z"/>
	<path class="st5" d="M52.07,96.45c-0.08,0.14-0.16,0.26-0.24,0.36c-0.15,0.19-0.31,0.29-0.46,0.29c-0.13,0-0.24-0.06-0.31-0.19
		c-0.05-0.08-0.07-0.18-0.07-0.29c0-0.27,0.09-0.57,0.26-0.9c0.19-0.37,0.42-0.65,0.69-0.84c0.18-0.13,0.35-0.19,0.51-0.19
		c0.1,0,0.19,0.03,0.26,0.1c0.06,0.06,0.09,0.12,0.09,0.19c0,0.05-0.02,0.13-0.06,0.22c0.04,0.05,0.06,0.1,0.06,0.14
		c0,0.05-0.03,0.14-0.1,0.25c-0.07,0.12-0.14,0.28-0.21,0.48c-0.08,0.21-0.12,0.38-0.12,0.51c0,0.1,0.03,0.19,0.09,0.25
		c0.02,0.02,0.07,0.05,0.15,0.09c0.06,0.03,0.09,0.08,0.09,0.15c0,0.05-0.02,0.09-0.05,0.11c-0.04,0.03-0.08,0.05-0.13,0.05
		c-0.13,0-0.25-0.06-0.34-0.18c-0.08-0.1-0.12-0.22-0.12-0.36C52.05,96.65,52.06,96.57,52.07,96.45z M52.53,95.24
		c-0.03-0.05-0.06-0.09-0.1-0.12s-0.07-0.04-0.11-0.04c-0.19,0-0.39,0.16-0.61,0.49c-0.24,0.36-0.36,0.67-0.36,0.92
		c0,0.06,0.01,0.11,0.03,0.14c0.02,0.03,0.06,0.05,0.11,0.05c0.12,0,0.26-0.13,0.41-0.38c0.09-0.14,0.2-0.34,0.33-0.61
		c0.09-0.17,0.15-0.29,0.19-0.35C52.44,95.32,52.47,95.28,52.53,95.24z"/>
	<path class="st5" d="M53.54,95.84c-0.07,0.19-0.13,0.35-0.17,0.46c-0.04,0.12-0.06,0.2-0.06,0.25c0,0.06,0.03,0.09,0.09,0.09
		c0.09,0,0.2-0.08,0.34-0.25c0.07-0.08,0.17-0.23,0.29-0.44c0.05-0.08,0.11-0.13,0.16-0.13c0.06,0,0.1,0.03,0.1,0.09
		c0,0.11-0.12,0.32-0.37,0.64c-0.25,0.34-0.49,0.51-0.7,0.51c-0.09,0-0.17-0.04-0.23-0.12c-0.04-0.06-0.06-0.13-0.06-0.21
		c0-0.14,0.04-0.33,0.13-0.57c0.08-0.24,0.21-0.54,0.37-0.89c0.42-0.89,0.85-1.62,1.29-2.19c0.35-0.46,0.64-0.69,0.87-0.69
		c0.07,0,0.13,0.03,0.18,0.09c0.05,0.06,0.07,0.12,0.07,0.2c0,0.34-0.31,0.92-0.92,1.72c-0.27,0.36-0.6,0.71-0.99,1.07
		C53.85,95.56,53.71,95.68,53.54,95.84z M53.8,95.25c0.51-0.44,0.97-0.99,1.37-1.66c0.21-0.35,0.31-0.58,0.31-0.69
		c0-0.05-0.02-0.08-0.07-0.08c-0.14,0-0.38,0.27-0.74,0.81C54.38,94.07,54.09,94.61,53.8,95.25z"/>
	<polygon class="st5" points="80,82.46 80,83.73 51.92,83.73 52.33,82.46 	"/>
	<path class="st1" d="M97.66,82.28c6.04,6.35,12.08,12.7,18.12,19.05c1.1,1.15,2.84-0.59,1.75-1.75
		c-6.04-6.35-12.08-12.7-18.12-19.05C98.31,79.38,96.56,81.13,97.66,82.28L97.66,82.28z"/>
	<path class="st1" d="M60.55,82.31c2.53,2.61,5.07,5.23,7.6,7.84c1.11,1.14,2.86-0.6,1.75-1.75c-2.53-2.61-5.07-5.23-7.6-7.84
		C61.19,79.42,59.45,81.17,60.55,82.31L60.55,82.31z"/>
	<path class="st3" d="M174.53,119.32v7.56c0,1.21-0.98,2.19-2.19,2.19H17.09c-0.19-1.3-0.35-2.61-0.48-3.93
		c-0.27-2.64-0.44-5.31-0.49-8.01h156.22C173.55,117.12,174.53,118.1,174.53,119.32z"/>
	<path class="st1" d="M62.48,76.13c2.53,2.61,5.07,5.23,7.6,7.84c1.11,1.14,2.86-0.6,1.75-1.75c-2.53-2.61-5.07-5.23-7.6-7.84
		C63.12,73.24,61.37,74.99,62.48,76.13L62.48,76.13z"/>
	<path class="st14" d="M106.48,125.1H95.06c-0.67,0-1.21-0.55-1.21-1.21v-1.69c0-0.67,0.55-1.21,1.21-1.21h11.42
		c0.67,0,1.21,0.55,1.21,1.21v1.69C107.7,124.55,107.15,125.1,106.48,125.1z"/>
	<path class="st10" d="M106.48,125.95H95.06c-0.67,0-1.21-0.55-1.21-1.21v-1.69c0-0.67,0.55-1.21,1.21-1.21h11.42
		c0.67,0,1.21,0.55,1.21,1.21v1.69C107.7,125.4,107.15,125.95,106.48,125.95z"/>
	<path class="st2" d="M62.84,97.91c-0.44-0.44-0.92-0.77-1.44-0.96c-0.52-0.2-1.03-0.28-1.56-0.26c-0.52,0.03-1.03,0.15-1.52,0.38
		c-0.49,0.23-0.94,0.55-1.36,0.96c-0.4,0.4-0.72,0.85-0.96,1.35c-0.23,0.5-0.36,1-0.38,1.52c-0.02,0.52,0.06,1.04,0.26,1.55
		c0.2,0.52,0.52,1,0.96,1.44c0.39,0.39,0.82,0.69,1.27,0.89l0,0c2.24,1.06,5.63,1.37,5.63,1.37c0.45,0.06,0.76-0.02,1.05-0.31
		c0.29-0.29,0.35-0.66,0.31-1.05c0,0-0.31-3.4-1.37-5.63l0,0C63.53,98.73,63.24,98.3,62.84,97.91z M61.56,100.22
		c0.11,0.22,0.18,0.45,0.21,0.7c0.03,0.24,0,0.48-0.08,0.72c-0.08,0.24-0.22,0.46-0.43,0.67c-0.21,0.21-0.43,0.35-0.67,0.43
		c-0.24,0.08-0.48,0.1-0.72,0.08c-0.24-0.03-0.48-0.1-0.7-0.21c-0.22-0.11-0.42-0.26-0.59-0.43c-0.17-0.17-0.32-0.37-0.43-0.6
		c-0.11-0.22-0.18-0.45-0.2-0.68c-0.02-0.23,0.01-0.47,0.08-0.71c0.08-0.24,0.22-0.46,0.43-0.67c0.21-0.21,0.43-0.35,0.67-0.43
		c0.24-0.08,0.48-0.11,0.71-0.09c0.24,0.02,0.47,0.08,0.69,0.19c0.23,0.11,0.43,0.25,0.6,0.43C61.3,99.8,61.44,100,61.56,100.22z"/>
	<path class="st10" d="M53.37,94.34c-0.66,0.66-0.65,1.73,0.01,2.39c0.67,0.67,2.68,1.37,3.22,0.84c0.54-0.54-0.17-2.55-0.84-3.22
		C55.1,93.69,54.03,93.68,53.37,94.34z"/>
	<path class="st10" d="M52.95,97.77c-0.39,0-0.76,0.15-1.03,0.42c-0.28,0.28-0.43,0.64-0.42,1.03c0,0.81,0.66,1.47,1.47,1.47
		c0.61,0,1.69-0.45,2.2-0.95c0.17-0.17,0.27-0.34,0.27-0.51c0-0.43-0.67-0.84-0.95-0.99C53.95,97.96,53.33,97.77,52.95,97.77z"/>
	<path class="st10" d="M58.26,92.46c-0.39,0-0.76,0.15-1.03,0.42c-0.28,0.28-0.43,0.64-0.42,1.03c0,0.38,0.2,1,0.49,1.53
		c0.16,0.29,0.56,0.95,0.99,0.95c0.17,0,0.34-0.1,0.51-0.27c0.5-0.5,0.95-1.58,0.95-2.2C59.73,93.12,59.07,92.46,58.26,92.46z"/>
	<path class="st5" d="M160.48,109.43l-25.02-49.88c-0.23-0.46,0.1-1.01,0.62-1.01l2.57-0.01l24.84,49.49
		c0.32,0.64-0.14,1.4-0.86,1.4L160.48,109.43z"/>
	<path class="st10" d="M161.09,119.74h-4.07v-16.48h4.07c2.68,0,4.85,2.17,4.85,4.85v6.77
		C165.94,117.57,163.77,119.74,161.09,119.74z"/>
	<path class="st15" d="M159.61,105.51c2.24,1.44,3.66,3.82,3.66,6.51c0,0.8,1.24,0.8,1.24,0c0-3.13-1.67-5.9-4.27-7.58
		C159.57,104.01,158.95,105.08,159.61,105.51L159.61,105.51z"/>
	<rect x="156.56" y="103.28" class="st15" width="0.82" height="16.51"/>
</g>
</svg>
