<?xml version="1.0" encoding="utf-8"?>
<!-- Generator: Adobe Illustrator 23.0.3, SVG Export Plug-In . SVG Version: 6.00 Build 0)  -->
<svg version="1.1" id="Layer_1" xmlns="http://www.w3.org/2000/svg" xmlns:xlink="http://www.w3.org/1999/xlink" x="0px" y="0px"
	 viewBox="0 0 57 58" style="enable-background:new 0 0 57 58;" xml:space="preserve">
<style type="text/css">
	.st0{fill:#EA8D4E;}
	.st1{fill:#910811;stroke:#FFFEF9;stroke-width:0.5911;stroke-miterlimit:10;}
	.st2{fill:#910811;}
	.st3{fill:#790002;}
	.st4{fill:#AA4637;stroke:#FFFFFF;stroke-width:0.286;stroke-miterlimit:10;}
	.st5{opacity:0.9;fill:#7A1502;}
	.st6{fill:#7DB343;}
	.st7{fill:#599F4D;}
	.st8{fill:#74AC6A;}
</style>
<g>
	<circle class="st0" cx="28.5" cy="29" r="24"/>
	<g>
		<path class="st1" d="M31.21,15.49c-0.36-0.19-0.69-0.43-1.01-0.69c-1.86-1.49-4.25-2.39-6.86-2.39c-5.95,0-10.78,4.66-10.78,10.4
			c0,1.96,0.57,3.8,1.55,5.36c1.57,2.5,2.93,5.12,3.94,7.89c2.02,5.58,6.95,9.52,12.7,9.52c7.56,0,13.69-6.8,13.69-15.19
			C44.44,22.99,33.7,16.81,31.21,15.49z"/>
		<path class="st2" d="M19.96,13.55l-6.29,12.73c-0.37-1.02-0.57-2.12-0.57-3.27C13.11,18.66,15.96,14.95,19.96,13.55z"/>
		<path class="st2" d="M24.54,12.98l-8.62,17.45c-0.41-0.76-0.86-1.5-1.32-2.24c-0.23-0.37-0.43-0.74-0.61-1.14l6.8-13.77
			c0.88-0.23,1.8-0.35,2.75-0.35C23.88,12.93,24.21,12.95,24.54,12.98z"/>
		<path class="st2" d="M28.31,14.06l-10.27,20.8c-0.51-1.28-1.1-2.53-1.75-3.75l8.91-18.05C26.31,13.24,27.35,13.58,28.31,14.06z"/>
		<path class="st2" d="M31.59,16.15L20.18,39.26c-0.72-1.04-1.32-2.19-1.76-3.43c-0.02-0.06-0.04-0.11-0.06-0.17l10.52-21.31
			c0.46,0.26,0.9,0.57,1.31,0.89c0.31,0.25,0.62,0.47,0.97,0.66C31.28,15.98,31.43,16.06,31.59,16.15z"/>
		<path class="st2" d="M34.89,18.18L22.98,42.29c-0.88-0.7-1.69-1.53-2.39-2.45l11.54-23.38C32.88,16.88,33.84,17.47,34.89,18.18z"
			/>
		<path class="st2" d="M38.02,20.55L26.33,44.23c-1.01-0.39-1.96-0.91-2.84-1.54l11.92-24.13C36.26,19.14,37.15,19.81,38.02,20.55z"
			/>
		<path class="st2" d="M40.92,23.4L30.24,45.04c-1.14-0.04-2.25-0.25-3.31-0.59l11.58-23.47C39.37,21.73,40.18,22.54,40.92,23.4z"/>
		<path class="st2" d="M43.32,27.25l-8.41,17.04c-1.25,0.46-2.58,0.73-3.97,0.75l10.42-21.1C42.19,24.99,42.87,26.09,43.32,27.25z"
			/>
		<path class="st2" d="M43.95,30.35c0,6.12-3.36,11.36-8.16,13.57l7.82-15.83C43.83,28.83,43.95,29.58,43.95,30.35z"/>
		<g>
			<path class="st3" d="M20.8,13.29l-6.8,13.77c-0.12-0.26-0.23-0.51-0.32-0.78l6.29-12.73C20.24,13.45,20.51,13.36,20.8,13.29z"/>
		</g>
		<g>
			<path class="st3" d="M25.21,13.07l-8.91,18.05c-0.11-0.23-0.24-0.46-0.37-0.68l8.62-17.45C24.77,13,24.99,13.03,25.21,13.07z"/>
		</g>
		<g>
			<path class="st3" d="M28.87,14.36L18.35,35.67c-0.1-0.27-0.2-0.54-0.31-0.81l10.27-20.8C28.5,14.15,28.69,14.25,28.87,14.36z"/>
		</g>
		<g>
			<path class="st3" d="M32.14,16.46L20.6,39.84c-0.14-0.18-0.29-0.38-0.42-0.57v-0.01l11.41-23.11
				C31.76,16.24,31.94,16.34,32.14,16.46z"/>
		</g>
		<g>
			<path class="st3" d="M35.42,18.55L23.5,42.68c-0.17-0.13-0.34-0.26-0.51-0.39l11.91-24.11C35.06,18.3,35.24,18.42,35.42,18.55z"
				/>
		</g>
		<g>
			<path class="st3" d="M38.52,20.98L26.93,44.44c-0.2-0.07-0.4-0.14-0.6-0.22l11.69-23.67C38.19,20.69,38.35,20.83,38.52,20.98z"/>
		</g>
		<g>
			<path class="st3" d="M41.36,23.95l-10.42,21.1c-0.07,0.01-0.15,0.01-0.23,0.01c-0.15,0-0.31-0.01-0.47-0.01L40.92,23.4
				C41.07,23.58,41.22,23.76,41.36,23.95z"/>
		</g>
		<g>
			<path class="st3" d="M43.62,28.09L43.62,28.09L35.8,43.92c-0.29,0.14-0.58,0.26-0.89,0.37l8.41-17.04
				C43.44,27.53,43.54,27.81,43.62,28.09z"/>
		</g>
		<circle class="st4" cx="20.73" cy="19.83" r="2.54"/>
	</g>
	<path class="st5" d="M40.75,28.75c-0.2-2.18-2.01-3.9-4.24-3.9c-0.1,0-0.19,0.02-0.28,0.03c-1.34-1.58-3.33-2.58-5.56-2.58
		c-1.63,0-3.13,0.54-4.35,1.45c-0.25-0.05-0.5-0.08-0.77-0.08c-2.36,0-4.28,1.92-4.28,4.28c0,1.07,0.4,2.03,1.05,2.78
		c-0.43,0.93-0.68,1.97-0.68,3.07c0,4.03,3.27,7.29,7.29,7.29c0.13,0,0.26-0.01,0.39-0.02c0.48,0.18,0.99,0.29,1.53,0.29
		c0.9,0,1.73-0.28,2.42-0.76c0.65,0.19,1.34,0.3,2.05,0.3c4.03,0,7.29-3.27,7.29-7.29C42.61,31.74,41.9,30.04,40.75,28.75z"/>
	<g>
		<rect x="35.7" y="20.31" class="st6" width="1.2" height="20.69"/>
		<path class="st7" d="M37.22,19.84c0,0.64-0.41,1.16-0.92,1.16c-0.51,0-0.92-0.52-0.92-1.16c0-0.64,0.92-1.91,0.92-1.91
			S37.22,19.2,37.22,19.84z"/>
		<path class="st7" d="M36.92,19.62c0,0.6-0.39,1.09-0.86,1.09s-0.86-0.49-0.86-1.09s0.86-1.79,0.86-1.79S36.92,19.01,36.92,19.62z"
			/>
		<path class="st7" d="M37.47,19.59c0,0.6-0.39,1.09-0.86,1.09c-0.48,0-0.86-0.49-0.86-1.09s0.86-1.79,0.86-1.79
			S37.47,18.99,37.47,19.59z"/>
		<path class="st6" d="M37.18,20.37c0,0.61-0.39,1.11-0.88,1.11c-0.48,0-0.88-0.5-0.88-1.11s0.88-1.82,0.88-1.82
			S37.18,19.75,37.18,20.37z"/>
		<path class="st8" d="M37.68,20.64c0,0.52-0.33,0.94-0.74,0.94s-0.74-0.42-0.74-0.94c0-0.52,0.74-1.54,0.74-1.54
			S37.68,20.12,37.68,20.64z"/>
		<path class="st8" d="M36.9,20.97c0,0.52-0.33,0.94-0.74,0.94s-0.74-0.42-0.74-0.94c0-0.52,0.74-1.54,0.74-1.54
			S36.9,20.45,36.9,20.97z"/>
		<path class="st8" d="M36.28,20.45c0,0.52-0.33,0.94-0.74,0.94s-0.74-0.42-0.74-0.94c0-0.52,0.74-1.54,0.74-1.54
			S36.28,19.93,36.28,20.45z"/>
		<path class="st8" d="M36.23,26.68c0,0.31-0.2,0.57-0.45,0.57s-0.45-0.25-0.45-0.57c0-0.31,0.45-0.93,0.45-0.93
			S36.23,26.36,36.23,26.68z"/>
		<path class="st8" d="M37.15,29.41c0,0.31-0.2,0.57-0.45,0.57c-0.25,0-0.45-0.25-0.45-0.57c0-0.31,0.45-0.93,0.45-0.93
			S37.15,29.1,37.15,29.41z"/>
		<path class="st8" d="M36.27,31.82c0,0.31-0.2,0.57-0.45,0.57c-0.25,0-0.45-0.25-0.45-0.57s0.45-0.93,0.45-0.93
			S36.27,31.5,36.27,31.82z"/>
		<path class="st8" d="M37.08,35.47c0,0.31-0.2,0.57-0.45,0.57s-0.45-0.25-0.45-0.57s0.45-0.93,0.45-0.93S37.08,35.16,37.08,35.47z"
			/>
		<path class="st8" d="M36.25,37.6c0,0.31-0.2,0.57-0.45,0.57s-0.45-0.25-0.45-0.57s0.45-0.93,0.45-0.93S36.25,37.28,36.25,37.6z"/>
		<path class="st6" d="M36.29,21.68c0,0.43-0.27,0.77-0.61,0.77s-0.61-0.34-0.61-0.77s0.61-1.26,0.61-1.26S36.29,21.26,36.29,21.68z
			"/>
		<path class="st8" d="M37.32,22.71c0,0.3-0.19,0.54-0.43,0.54c-0.24,0-0.43-0.24-0.43-0.54s0.43-0.89,0.43-0.89
			S37.32,22.41,37.32,22.71z"/>
		<path class="st6" d="M37.59,21.68c0,0.43-0.27,0.77-0.61,0.77s-0.61-0.34-0.61-0.77s0.61-1.26,0.61-1.26S37.59,21.26,37.59,21.68z
			"/>
		<path class="st8" d="M36.16,22.72c0,0.3-0.19,0.54-0.43,0.54c-0.24,0-0.43-0.24-0.43-0.54s0.43-0.89,0.43-0.89
			S36.16,22.42,36.16,22.72z"/>
		<path class="st7" d="M36.91,21.75c0,0.43-0.27,0.77-0.61,0.77c-0.34,0-0.61-0.34-0.61-0.77s0.61-1.26,0.61-1.26
			S36.91,21.33,36.91,21.75z"/>
		<path class="st6" d="M36.73,23.05c0,0.3-0.19,0.54-0.43,0.54c-0.24,0-0.43-0.24-0.43-0.54s0.43-0.89,0.43-0.89
			S36.73,22.75,36.73,23.05z"/>
	</g>
	<g>
		<rect x="32.26" y="22.03" class="st6" width="1.2" height="20.69"/>
		<path class="st7" d="M33.78,21.56c0,0.64-0.41,1.16-0.92,1.16c-0.51,0-0.92-0.52-0.92-1.16c0-0.64,0.92-1.91,0.92-1.91
			S33.78,20.92,33.78,21.56z"/>
		<path class="st7" d="M33.48,21.34c0,0.6-0.39,1.09-0.86,1.09s-0.86-0.49-0.86-1.09s0.86-1.79,0.86-1.79S33.48,20.73,33.48,21.34z"
			/>
		<path class="st7" d="M34.03,21.31c0,0.6-0.39,1.09-0.86,1.09c-0.48,0-0.86-0.49-0.86-1.09s0.86-1.79,0.86-1.79
			S34.03,20.71,34.03,21.31z"/>
		<path class="st6" d="M33.73,22.09c0,0.61-0.39,1.11-0.88,1.11c-0.48,0-0.88-0.5-0.88-1.11s0.88-1.82,0.88-1.82
			S33.73,21.48,33.73,22.09z"/>
		<path class="st8" d="M34.24,22.36c0,0.52-0.33,0.94-0.74,0.94s-0.74-0.42-0.74-0.94c0-0.52,0.74-1.54,0.74-1.54
			S34.24,21.85,34.24,22.36z"/>
		<path class="st8" d="M33.46,22.69c0,0.52-0.33,0.94-0.74,0.94s-0.74-0.42-0.74-0.94c0-0.52,0.74-1.54,0.74-1.54
			S33.46,22.18,33.46,22.69z"/>
		<path class="st8" d="M32.84,22.17c0,0.52-0.33,0.94-0.74,0.94c-0.41,0-0.74-0.42-0.74-0.94c0-0.52,0.74-1.54,0.74-1.54
			S32.84,21.65,32.84,22.17z"/>
		<path class="st8" d="M32.79,28.4c0,0.31-0.2,0.57-0.45,0.57c-0.25,0-0.45-0.25-0.45-0.57s0.45-0.93,0.45-0.93
			S32.79,28.09,32.79,28.4z"/>
		<path class="st8" d="M33.7,31.14c0,0.31-0.2,0.57-0.45,0.57c-0.25,0-0.45-0.25-0.45-0.57c0-0.31,0.45-0.93,0.45-0.93
			S33.7,30.82,33.7,31.14z"/>
		<path class="st8" d="M32.83,33.54c0,0.31-0.2,0.57-0.45,0.57s-0.45-0.25-0.45-0.57s0.45-0.93,0.45-0.93S32.83,33.23,32.83,33.54z"
			/>
		<path class="st8" d="M33.63,37.2c0,0.31-0.2,0.57-0.45,0.57s-0.45-0.25-0.45-0.57s0.45-0.93,0.45-0.93S33.63,36.88,33.63,37.2z"/>
		<path class="st8" d="M32.81,39.32c0,0.31-0.2,0.57-0.45,0.57s-0.45-0.25-0.45-0.57c0-0.31,0.45-0.93,0.45-0.93
			S32.81,39.01,32.81,39.32z"/>
		<path class="st6" d="M32.85,23.41c0,0.43-0.27,0.77-0.61,0.77c-0.34,0-0.61-0.34-0.61-0.77s0.61-1.26,0.61-1.26
			S32.85,22.98,32.85,23.41z"/>
		<path class="st8" d="M33.88,24.43c0,0.3-0.19,0.54-0.43,0.54c-0.24,0-0.43-0.24-0.43-0.54s0.43-0.89,0.43-0.89
			S33.88,24.13,33.88,24.43z"/>
		<path class="st6" d="M34.15,23.41c0,0.43-0.27,0.77-0.61,0.77s-0.61-0.34-0.61-0.77s0.61-1.26,0.61-1.26S34.15,22.98,34.15,23.41z
			"/>
		<path class="st8" d="M32.72,24.45c0,0.3-0.19,0.54-0.43,0.54c-0.24,0-0.43-0.24-0.43-0.54s0.43-0.89,0.43-0.89
			S32.72,24.15,32.72,24.45z"/>
		<path class="st7" d="M33.47,23.47c0,0.43-0.27,0.77-0.61,0.77s-0.61-0.34-0.61-0.77s0.61-1.26,0.61-1.26S33.47,23.05,33.47,23.47z
			"/>
		<path class="st6" d="M33.29,24.77c0,0.3-0.19,0.54-0.43,0.54c-0.24,0-0.43-0.24-0.43-0.54s0.43-0.89,0.43-0.89
			S33.29,24.47,33.29,24.77z"/>
	</g>
	<g>
		<rect x="29.24" y="19.65" class="st6" width="1.2" height="20.69"/>
		<path class="st7" d="M30.76,19.18c0,0.64-0.41,1.16-0.92,1.16s-0.92-0.52-0.92-1.16c0-0.64,0.92-1.91,0.92-1.91
			S30.76,18.54,30.76,19.18z"/>
		<path class="st7" d="M30.47,18.96c0,0.6-0.39,1.09-0.86,1.09c-0.48,0-0.86-0.49-0.86-1.09c0-0.6,0.86-1.79,0.86-1.79
			S30.47,18.36,30.47,18.96z"/>
		<path class="st7" d="M31.01,18.94c0,0.6-0.39,1.09-0.86,1.09c-0.48,0-0.86-0.49-0.86-1.09c0-0.6,0.86-1.79,0.86-1.79
			S31.01,18.33,31.01,18.94z"/>
		<path class="st6" d="M30.72,19.71c0,0.61-0.39,1.11-0.88,1.11s-0.88-0.5-0.88-1.11s0.88-1.82,0.88-1.82S30.72,19.1,30.72,19.71z"
			/>
		<path class="st8" d="M31.23,19.99c0,0.52-0.33,0.94-0.74,0.94s-0.74-0.42-0.74-0.94c0-0.52,0.74-1.54,0.74-1.54
			S31.23,19.47,31.23,19.99z"/>
		<path class="st8" d="M30.45,20.32c0,0.52-0.33,0.94-0.74,0.94s-0.74-0.42-0.74-0.94c0-0.52,0.74-1.54,0.74-1.54
			S30.45,19.8,30.45,20.32z"/>
		<path class="st8" d="M29.82,19.79c0,0.52-0.33,0.94-0.74,0.94s-0.74-0.42-0.74-0.94c0-0.52,0.74-1.54,0.74-1.54
			S29.82,19.28,29.82,19.79z"/>
		<path class="st8" d="M29.77,26.02c0,0.31-0.2,0.57-0.45,0.57c-0.25,0-0.45-0.25-0.45-0.57c0-0.31,0.45-0.93,0.45-0.93
			S29.77,25.71,29.77,26.02z"/>
		<path class="st8" d="M30.69,28.76c0,0.31-0.2,0.57-0.45,0.57c-0.25,0-0.45-0.25-0.45-0.57c0-0.31,0.45-0.93,0.45-0.93
			S30.69,28.44,30.69,28.76z"/>
		<path class="st8" d="M29.82,31.16c0,0.31-0.2,0.57-0.45,0.57c-0.25,0-0.45-0.25-0.45-0.57c0-0.31,0.45-0.93,0.45-0.93
			S29.82,30.85,29.82,31.16z"/>
		<path class="st8" d="M30.62,34.82c0,0.31-0.2,0.57-0.45,0.57c-0.25,0-0.45-0.25-0.45-0.57c0-0.31,0.45-0.93,0.45-0.93
			S30.62,34.5,30.62,34.82z"/>
		<path class="st8" d="M29.8,36.94c0,0.31-0.2,0.57-0.45,0.57c-0.25,0-0.45-0.25-0.45-0.57s0.45-0.93,0.45-0.93
			S29.8,36.63,29.8,36.94z"/>
		<path class="st6" d="M29.84,21.03c0,0.43-0.27,0.77-0.61,0.77c-0.34,0-0.61-0.34-0.61-0.77s0.61-1.26,0.61-1.26
			S29.84,20.6,29.84,21.03z"/>
		<path class="st8" d="M30.87,22.05c0,0.3-0.19,0.54-0.43,0.54c-0.24,0-0.43-0.24-0.43-0.54s0.43-0.89,0.43-0.89
			S30.87,21.75,30.87,22.05z"/>
		<path class="st6" d="M31.14,21.03c0,0.43-0.27,0.77-0.61,0.77c-0.34,0-0.61-0.34-0.61-0.77s0.61-1.26,0.61-1.26
			S31.14,20.6,31.14,21.03z"/>
		<path class="st8" d="M29.71,22.07c0,0.3-0.19,0.54-0.43,0.54c-0.24,0-0.43-0.24-0.43-0.54c0-0.3,0.43-0.89,0.43-0.89
			S29.71,21.77,29.71,22.07z"/>
		<path class="st7" d="M30.45,21.1c0,0.43-0.27,0.77-0.61,0.77c-0.34,0-0.61-0.34-0.61-0.77s0.61-1.26,0.61-1.26
			S30.45,20.67,30.45,21.1z"/>
		<path class="st6" d="M30.28,22.4c0,0.3-0.19,0.54-0.43,0.54c-0.24,0-0.43-0.24-0.43-0.54s0.43-0.89,0.43-0.89
			S30.28,22.09,30.28,22.4z"/>
	</g>
</g>
</svg>
