<?xml version="1.0" encoding="utf-8"?>
<!-- Generator: Adobe Illustrator 23.0.2, SVG Export Plug-In . SVG Version: 6.00 Build 0)  -->
<svg version="1.1" id="Layer_1" xmlns="http://www.w3.org/2000/svg" xmlns:xlink="http://www.w3.org/1999/xlink" x="0px" y="0px"
	 viewBox="0 0 200 200" style="enable-background:new 0 0 200 200;" xml:space="preserve">
<style type="text/css">
	.st0{fill:#D2E2B5;}
	.st1{fill:#FFFFFF;}
	.st2{fill:#7DB343;stroke:#7DB343;stroke-width:1.4282;stroke-miterlimit:10;}
	.st3{fill:none;stroke:#562606;stroke-width:1.6918;stroke-miterlimit:10;}
	.st4{fill:#EF6D02;}
	.st5{clip-path:url(#SVGID_2_);}
	.st6{clip-path:url(#SVGID_4_);}
	.st7{clip-path:url(#SVGID_6_);}
	.st8{clip-path:url(#SVGID_8_);}
	.st9{clip-path:url(#SVGID_10_);}
	.st10{clip-path:url(#SVGID_12_);}
	.st11{clip-path:url(#SVGID_14_);}
	.st12{clip-path:url(#SVGID_16_);}
	.st13{fill:none;stroke:#6D3007;stroke-width:0.8639;stroke-miterlimit:10;}
	.st14{fill:#6D3007;}
	.st15{fill:none;stroke:#6D3007;stroke-width:0.8435;stroke-miterlimit:10;}
	.st16{fill:#CAA65A;}
	.st17{fill:#FF94CB;}
	.st18{fill:#9E7E47;}
	.st19{fill:#7DB343;}
	.st20{fill:#D35B09;}
	.st21{fill:#F5D26E;}
	.st22{fill:#2D2D2D;}
	.st23{opacity:0.19;}
	.st24{fill:#AA4D0E;}
	.st25{fill:#562606;}
	.st26{fill:none;stroke:#562606;stroke-width:0.8478;stroke-miterlimit:10;}
</style>
<g>
	<g>
		<path class="st0" d="M184.88,99.87c0,1.35-0.02,2.69-0.08,4.02c-0.6,13.24-4.25,25.68-10.27,36.63
			c-14.27,25.96-41.84,43.58-73.56,43.66c-31.72,0.08-59.37-17.41-73.76-43.3c-4.84-8.72-8.18-18.38-9.67-28.65
			c-0.16-1.1-0.3-2.22-0.42-3.34c-0.24-2.25-0.38-4.52-0.43-6.81c-0.02-0.6-0.02-1.2-0.02-1.8c-0.11-46.46,37.45-84.2,83.9-84.31
			C147.03,15.85,184.77,53.41,184.88,99.87z"/>
		<path class="st1" d="M100.57,15.96c46.46-0.11,84.2,37.45,84.31,83.91c0,1.35-0.02,2.69-0.08,4.02
			c-0.6,13.24-4.25,25.68-10.27,36.63c-14.27,25.96-41.84,43.58-73.56,43.66c-31.72,0.08-59.37-17.41-73.76-43.3
			c-4.84-8.72-8.19-18.38-9.67-28.65c-0.16-1.1-0.3-2.22-0.42-3.34c-0.24-2.25-0.38-4.52-0.43-6.81c-0.02-0.6-0.02-1.2-0.02-1.8
			C16.55,53.82,54.12,16.07,100.57,15.96 M100.55,5.68c-12.74,0.03-25.09,2.56-36.72,7.51c-11.23,4.78-21.31,11.61-29.95,20.3
			c-8.64,8.69-15.42,18.8-20.15,30.05c-4.9,11.66-7.36,24.02-7.33,36.76c0,0.75,0.01,1.42,0.03,2.05c0.06,2.56,0.22,5.12,0.49,7.62
			c0.12,1.2,0.28,2.47,0.47,3.75c1.63,11.31,5.29,22.13,10.85,32.15c16.71,30.05,48.42,48.67,82.77,48.59
			c34.35-0.08,65.98-18.85,82.54-48.98c6.99-12.72,10.87-26.56,11.53-41.12c0.07-1.49,0.1-3.01,0.09-4.51
			c-0.03-12.74-2.56-25.1-7.51-36.73c-4.78-11.23-11.61-21.31-20.3-29.95c-8.69-8.64-18.8-15.42-30.05-20.15
			C125.65,8.12,113.28,5.65,100.55,5.68L100.55,5.68z"/>
	</g>
	<g id="CZwmTH_2_">
		<g>
			<path class="st2" d="M113.02,69.49c3.78,0.43,7.22,0.12,10.46-1.58c0.47-0.25,0.87-0.64,1.5-0.13c2.96,2.41,6.21,2.08,9.51,0.85
				c1.14-0.42,1.14-0.43,1.98,0.54c-1.09,0.31-2.17,0.54-3.2,0.92c-2.81,1.04-4.43,2.87-4.69,6.06c-0.21,2.6-1.1,5.13-0.92,7.79
				c0.15,2.24,0.73,4.3,2.42,5.9c0.7,0.67,1.45,1.3,2.52,0.7c1.08-0.61,1.63-1.52,1.41-2.78c-0.15-0.88-0.39-1.74-0.6-2.61
				c-1.08-4.55,0.69-8.2,3.63-11.48c0.25-0.28,0.55-0.72,0.97-0.49c1.46,0.82,3.42,0.88,4.15,2.81c0.26,0.69,0.58,1.36,0.98,1.98
				c2.06,3.2,2.29,6.35-0.11,9.46c-1.03,1.33-0.16,1.65,0.98,1.85c2.35,0.41,4.58,0.02,6.65-1.13c2.58-1.44,4.69-3.43,6.44-5.8
				c0.19-0.26,0.52-0.65,0.45-0.84c-0.78-1.91,0.68-1.59,1.68-1.77c1.49-0.27,2.97-0.55,4.34-1.25c1.85-0.94,2.38-2.12,1.78-4.08
				c-0.08-0.25-0.35-0.49-0.12-0.76c1.29-1.51,1.8-3.72,4.24-4.19c2.41-0.47,4.74-1.3,7.14-1.84c1.34-0.3,2.14-1.06,2.71-2.23
				c1.32-2.68,1.95-5.58,2.69-8.44c0.13-0.49-0.22-1.52,0.77-1.35c1.03,0.18,2.49-0.53,2.99,1.1c0.38,1.23,0.76,2.46,1.05,3.71
				c0.17,0.74,0.39,1.3,1.28,1.2c1.29-0.15,1.6,0.95,1.94,1.73c0.37,0.86-0.72,0.96-1.17,1.31c-2.2,1.74-4.31,3.56-5.94,5.88
				c-1.72,2.46-2,5-0.26,7.48c0.97,1.38,0.49,1.85-0.79,2.42c-2.1,0.93-4.05,2.14-5.81,3.65c-1.11,0.95-2.16,1.98-2.71,3.36
				c-0.23,0.57-0.85,1.3,0.46,1.63c0.62,0.16,0.43,3.69-0.17,4.1c-0.4,0.27-0.74-0.06-1.07-0.24c-1.13-0.6-2.26-1.2-3.84-2.04
				c1.16,2.03,2.02,3.68,3.03,5.24c0.81,1.25,0.72,2.36-0.08,3.56c-1.05-1.97-2.07-3.88-3.2-5.98c-0.88,1.19-1.1,2.28-0.89,3.53
				c0.7,4.06,2.37,7.79,4,11.52c1.06,2.44,0.74,3.65-1.48,5.19c-2.29,2.73-4.74,5.35-6.83,8.23c-1.61,2.21-3.11,4.52-4.87,6.61
				c-2.24,2.65-2.48,5.5-1.49,8.63c1.01,3.18,2.73,5.99,4.53,8.75c0.98,1.5,2.02,2.95,2.98,4.47c1.39,2.2,1.21,4.48-0.37,6.54
				c-0.42,0.55-0.7,0.73-1.28,0.16c-2.97-2.91-5.57-6.14-7.94-9.53c-0.54-0.77-0.53-1.91-0.8-2.88c-1.34-4.64-4.49-6.41-9.08-5.05
				c-0.69,0.2-1.12,0.13-1.66-0.29c-4.03-3.14-10.99-2.09-14.35-0.03c-1.31,0.81-2.15,2-2.06,3.6c0.05,0.87-0.24,1.03-1.02,0.95
				c-3.47-0.33-6.95-0.55-10.41-0.95c-1.29-0.15-2.59-0.19-3.89-0.05c-2.15,0.24-4.14,0.82-5.35,2.83
				c-0.45,0.74-1.24,1.11-1.97,1.53c-1.36,0.78-2.76,1.48-4.08,2.32c-2.76,1.75-4.05,4.24-3.6,7.54c0.08,0.6,0.12,1.2,0.18,1.9
				c-1.87-0.34-3.46-1.15-5.13-1.72c-0.64-0.22-0.71-0.81-0.81-1.36c-0.38-2.2-1.36-4.08-2.8-5.79c-0.96-1.15-1.69-2.48-2.29-3.88
				c-0.94-2.18-2.9-3.31-4.87-4.42c-0.7-0.39-1.11,0.06-1.44,0.44c-1.79,2.1-3.68,2.09-5.92,0.63c-1.01-0.65-1.87-1.21-2.39-2.36
				c-1.2-2.67-2.77-5.13-5.1-6.98c-2.71-2.16-5.66-2.86-8.89-1.19c-0.55,0.29-1.07,0.24-1.63,0.16c-7.06-1.13-13.62-3.54-19.48-7.67
				c-2.06-1.45-4.45-1.78-6.79-2.21c-1.71-0.32-2.9-0.89-3.5-2.73c-0.98-3.01-2.76-5.44-5.81-6.77c-2.11-0.92-3.12-2.52-3.66-4.89
				c-1.38-6.03-2.65-12.1-4.52-18.02c-0.2-0.64-0.3-1.3-0.36-1.97c-0.16-2.08,0.37-5.38,1.18-7.3c0.84-1.98,0.92-4.15,0.91-6.32
				c0-1.53,0.36-2.85,1.24-4.08c3.61-5.04,4.96-10.81,5.46-16.85c0.08-0.94,0.01-1.89,0-2.82c2.77,0.77,3.39,1.64,3.75,5.47
				c3.46-1.22,2.87-4.09,2.83-6.87c3.1,0.81,6.09,1.63,9.1,2.38c21.51,5.29,43.33,8.02,65.49,7.97c2.19,0,4.25,0.11,6.36,0.98
				c3.05,1.25,6.38,1.63,9.65,2.1c0.43,0.06,0.91-0.06,1.37,0.39C116.66,65.32,114.66,67.12,113.02,69.49z"/>
		</g>
	</g>
	<g>
		<line class="st3" x1="171.84" y1="93.66" x2="171.84" y2="49.63"/>
		<polygon class="st4" points="148.6,70.41 170.61,49.87 170.61,70.41 		"/>
		<g>
			<defs>
				<polygon id="SVGID_1_" points="148.64,70.41 170.65,49.87 170.65,70.41 				"/>
			</defs>
			<clipPath id="SVGID_2_">
				<use xlink:href="#SVGID_1_"  style="overflow:visible;"/>
			</clipPath>
			<g class="st5">
				<path class="st1" d="M167.94,64.56c0-0.56-0.1-1.07-0.3-1.52c-0.2-0.45-0.47-0.83-0.82-1.14c-0.35-0.31-0.75-0.55-1.2-0.72
					c-0.46-0.17-0.94-0.25-1.46-0.25c-0.51,0-1,0.08-1.46,0.25c-0.46,0.17-0.86,0.4-1.2,0.72c-0.34,0.31-0.61,0.69-0.81,1.14
					c-0.2,0.45-0.3,0.96-0.3,1.52c0,0.5,0.08,0.95,0.24,1.37l-0.01,0c0.74,2.08,2.69,4.42,2.69,4.42c0.25,0.32,0.49,0.47,0.85,0.47
					c0.36,0,0.64-0.19,0.85-0.47c0,0,1.95-2.34,2.69-4.42l-0.01,0C167.86,65.51,167.94,65.06,167.94,64.56z M165.67,65.2
					c-0.07,0.21-0.17,0.4-0.31,0.57c-0.14,0.17-0.31,0.31-0.51,0.41c-0.2,0.1-0.43,0.15-0.7,0.15c-0.26,0-0.5-0.05-0.7-0.15
					c-0.2-0.1-0.37-0.24-0.51-0.41c-0.14-0.17-0.24-0.36-0.31-0.57c-0.07-0.21-0.1-0.43-0.1-0.65c0-0.22,0.03-0.44,0.1-0.65
					c0.07-0.21,0.17-0.4,0.3-0.56c0.13-0.16,0.3-0.29,0.5-0.39c0.2-0.1,0.43-0.15,0.7-0.15c0.26,0,0.5,0.05,0.7,0.15
					c0.2,0.1,0.37,0.23,0.51,0.39c0.14,0.16,0.24,0.35,0.31,0.56c0.07,0.21,0.11,0.43,0.11,0.65
					C165.77,64.78,165.74,64.99,165.67,65.2z"/>
				<path class="st1" d="M164.22,56.33c-0.83,0-1.5,0.68-1.5,1.52c0,0.85,0.83,2.56,1.5,2.56s1.5-1.71,1.5-2.56
					C165.72,57.01,165.05,56.33,164.22,56.33z"/>
				<path class="st1" d="M161.79,58.23c-0.25-0.25-0.57-0.38-0.92-0.38c-0.35,0-0.67,0.14-0.92,0.38c-0.51,0.51-0.51,1.35,0,1.86
					c0.38,0.39,1.35,0.79,1.98,0.79c0.21,0,0.39-0.04,0.49-0.15c0.27-0.27,0.11-0.95,0.02-1.23
					C162.29,58.98,162.03,58.47,161.79,58.23z"/>
				<path class="st1" d="M168.49,58.23c-0.25-0.25-0.57-0.38-0.92-0.38c-0.35,0-0.67,0.14-0.92,0.38c-0.24,0.24-0.51,0.75-0.66,1.27
					c-0.08,0.28-0.24,0.96,0.02,1.23c0.1,0.1,0.28,0.15,0.49,0.15c0.63,0,1.6-0.4,1.98-0.79C169,59.57,169,58.74,168.49,58.23z"/>
			</g>
		</g>
	</g>
	<g>
		<line class="st3" x1="155.33" y1="137.13" x2="155.33" y2="93.09"/>
		<polygon class="st4" points="132.09,113.87 154.09,93.33 154.09,113.87 		"/>
		<g>
			<defs>
				<polygon id="SVGID_3_" points="132.13,113.87 154.14,93.33 154.14,113.87 				"/>
			</defs>
			<clipPath id="SVGID_4_">
				<use xlink:href="#SVGID_3_"  style="overflow:visible;"/>
			</clipPath>
			<g class="st6">
				<path class="st1" d="M151.43,108.02c0-0.56-0.1-1.07-0.3-1.52c-0.2-0.45-0.47-0.83-0.82-1.14c-0.35-0.31-0.75-0.55-1.2-0.72
					c-0.46-0.17-0.94-0.25-1.46-0.25c-0.51,0-1,0.08-1.46,0.25c-0.46,0.17-0.86,0.4-1.2,0.72c-0.34,0.31-0.61,0.69-0.81,1.14
					c-0.2,0.45-0.3,0.96-0.3,1.52c0,0.5,0.08,0.95,0.24,1.37l-0.01,0c0.74,2.08,2.69,4.42,2.69,4.42c0.25,0.32,0.49,0.47,0.85,0.47
					c0.36,0,0.64-0.19,0.85-0.47c0,0,1.95-2.34,2.69-4.42l-0.01,0C151.34,108.97,151.43,108.52,151.43,108.02z M149.16,108.67
					c-0.07,0.21-0.17,0.4-0.31,0.57c-0.14,0.17-0.31,0.31-0.51,0.41c-0.2,0.1-0.43,0.15-0.7,0.15c-0.26,0-0.5-0.05-0.7-0.15
					c-0.2-0.1-0.37-0.24-0.51-0.41c-0.14-0.17-0.24-0.36-0.31-0.57c-0.07-0.21-0.1-0.43-0.1-0.65c0-0.22,0.03-0.44,0.1-0.65
					c0.07-0.21,0.17-0.4,0.3-0.56c0.13-0.16,0.3-0.29,0.5-0.39c0.2-0.1,0.43-0.15,0.7-0.15c0.26,0,0.5,0.05,0.7,0.15
					c0.2,0.1,0.37,0.23,0.51,0.39c0.14,0.16,0.24,0.35,0.31,0.56c0.07,0.21,0.11,0.43,0.11,0.65
					C149.26,108.24,149.23,108.46,149.16,108.67z"/>
				<path class="st1" d="M147.7,99.79c-0.83,0-1.5,0.68-1.5,1.52c0,0.85,0.83,2.56,1.5,2.56c0.68,0,1.5-1.71,1.5-2.56
					C149.21,100.47,148.53,99.79,147.7,99.79z"/>
				<path class="st1" d="M145.27,101.69c-0.25-0.25-0.57-0.38-0.92-0.38c-0.35,0-0.67,0.14-0.92,0.38c-0.51,0.51-0.51,1.35,0,1.86
					c0.38,0.39,1.35,0.79,1.98,0.79c0.21,0,0.39-0.04,0.49-0.15c0.27-0.27,0.11-0.95,0.02-1.23
					C145.78,102.45,145.52,101.93,145.27,101.69z"/>
				<path class="st1" d="M151.98,101.69c-0.25-0.25-0.57-0.38-0.92-0.38c-0.35,0-0.67,0.14-0.92,0.38
					c-0.24,0.24-0.51,0.75-0.66,1.27c-0.08,0.28-0.24,0.96,0.02,1.23c0.1,0.1,0.28,0.15,0.49,0.15c0.63,0,1.6-0.4,1.98-0.79
					C152.48,103.04,152.48,102.2,151.98,101.69z"/>
			</g>
		</g>
	</g>
	<g>
		<line class="st3" x1="100.5" y1="96.88" x2="100.5" y2="52.84"/>
		<polygon class="st4" points="77.27,73.62 99.27,53.08 99.27,73.62 		"/>
		<g>
			<defs>
				<polygon id="SVGID_5_" points="77.31,73.62 99.31,53.08 99.31,73.62 				"/>
			</defs>
			<clipPath id="SVGID_6_">
				<use xlink:href="#SVGID_5_"  style="overflow:visible;"/>
			</clipPath>
			<g class="st7">
				<path class="st1" d="M96.6,67.77c0-0.56-0.1-1.07-0.3-1.52c-0.2-0.45-0.47-0.83-0.82-1.14c-0.35-0.31-0.75-0.55-1.2-0.72
					c-0.46-0.17-0.94-0.25-1.46-0.25c-0.51,0-1,0.08-1.46,0.25c-0.46,0.17-0.86,0.4-1.2,0.72c-0.34,0.31-0.61,0.69-0.81,1.14
					c-0.2,0.45-0.3,0.96-0.3,1.52c0,0.5,0.08,0.95,0.24,1.37l-0.01,0c0.74,2.08,2.69,4.42,2.69,4.42c0.25,0.32,0.49,0.47,0.85,0.47
					c0.36,0,0.64-0.19,0.85-0.47c0,0,1.95-2.34,2.69-4.42l-0.01,0C96.52,68.72,96.6,68.27,96.6,67.77z M94.33,68.41
					c-0.07,0.21-0.17,0.4-0.31,0.57c-0.14,0.17-0.31,0.31-0.51,0.41c-0.2,0.1-0.43,0.15-0.7,0.15c-0.26,0-0.5-0.05-0.7-0.15
					c-0.2-0.1-0.37-0.24-0.51-0.41c-0.14-0.17-0.24-0.36-0.31-0.57c-0.07-0.21-0.1-0.43-0.1-0.65c0-0.22,0.03-0.44,0.1-0.65
					c0.07-0.21,0.17-0.4,0.3-0.56c0.13-0.16,0.3-0.29,0.5-0.39c0.2-0.1,0.43-0.15,0.7-0.15c0.26,0,0.5,0.05,0.7,0.15
					c0.2,0.1,0.37,0.23,0.51,0.39c0.14,0.16,0.24,0.35,0.31,0.56c0.07,0.21,0.11,0.43,0.11,0.65C94.44,67.99,94.4,68.2,94.33,68.41z
					"/>
				<path class="st1" d="M92.88,59.54c-0.83,0-1.5,0.68-1.5,1.52c0,0.85,0.83,2.56,1.5,2.56c0.68,0,1.5-1.71,1.5-2.56
					C94.38,60.22,93.71,59.54,92.88,59.54z"/>
				<path class="st1" d="M90.45,61.44c-0.25-0.25-0.57-0.38-0.92-0.38c-0.35,0-0.67,0.14-0.92,0.38c-0.51,0.51-0.51,1.35,0,1.86
					c0.38,0.39,1.35,0.79,1.98,0.79c0.21,0,0.39-0.04,0.49-0.15c0.27-0.27,0.11-0.95,0.02-1.23C90.96,62.19,90.69,61.68,90.45,61.44
					z"/>
				<path class="st1" d="M97.15,61.44c-0.25-0.25-0.57-0.38-0.92-0.38c-0.35,0-0.67,0.14-0.92,0.38c-0.24,0.24-0.51,0.75-0.66,1.27
					c-0.08,0.28-0.24,0.96,0.02,1.23c0.1,0.1,0.28,0.15,0.49,0.15c0.63,0,1.6-0.4,1.98-0.79C97.66,62.79,97.66,61.95,97.15,61.44z"
					/>
			</g>
		</g>
	</g>
	<g>
		<line class="st3" x1="123.29" y1="133.72" x2="123.29" y2="89.69"/>
		<polygon class="st4" points="100.06,110.47 122.06,89.93 122.06,110.47 		"/>
		<g>
			<defs>
				<polygon id="SVGID_7_" points="100.1,110.47 122.1,89.93 122.1,110.47 				"/>
			</defs>
			<clipPath id="SVGID_8_">
				<use xlink:href="#SVGID_7_"  style="overflow:visible;"/>
			</clipPath>
			<g class="st8">
				<path class="st1" d="M119.39,104.62c0-0.56-0.1-1.07-0.3-1.52c-0.2-0.45-0.47-0.83-0.82-1.14c-0.35-0.31-0.75-0.55-1.2-0.72
					c-0.46-0.17-0.94-0.25-1.46-0.25c-0.51,0-1,0.08-1.46,0.25c-0.46,0.17-0.86,0.4-1.2,0.72c-0.34,0.31-0.61,0.69-0.81,1.14
					c-0.2,0.45-0.3,0.96-0.3,1.52c0,0.5,0.08,0.95,0.24,1.37l-0.01,0c0.74,2.08,2.69,4.42,2.69,4.42c0.25,0.32,0.49,0.47,0.85,0.47
					c0.36,0,0.64-0.19,0.85-0.47c0,0,1.95-2.34,2.69-4.42l-0.01,0C119.31,105.57,119.39,105.12,119.39,104.62z M117.12,105.26
					c-0.07,0.21-0.17,0.4-0.31,0.57c-0.14,0.17-0.31,0.31-0.51,0.41c-0.2,0.1-0.43,0.15-0.7,0.15c-0.26,0-0.5-0.05-0.7-0.15
					c-0.2-0.1-0.37-0.24-0.51-0.41c-0.14-0.17-0.24-0.36-0.31-0.57c-0.07-0.21-0.1-0.43-0.1-0.65c0-0.22,0.03-0.44,0.1-0.65
					c0.07-0.21,0.17-0.4,0.3-0.56c0.13-0.16,0.3-0.29,0.5-0.39c0.2-0.1,0.43-0.15,0.7-0.15c0.26,0,0.5,0.05,0.7,0.15
					c0.2,0.1,0.37,0.23,0.51,0.39c0.14,0.16,0.24,0.35,0.31,0.56c0.07,0.21,0.11,0.43,0.11,0.65
					C117.22,104.84,117.19,105.05,117.12,105.26z"/>
				<path class="st1" d="M115.67,96.39c-0.83,0-1.5,0.68-1.5,1.52c0,0.85,0.83,2.56,1.5,2.56c0.68,0,1.5-1.71,1.5-2.56
					C117.17,97.07,116.5,96.39,115.67,96.39z"/>
				<path class="st1" d="M113.24,98.29c-0.25-0.25-0.57-0.38-0.92-0.38c-0.35,0-0.67,0.14-0.92,0.38c-0.51,0.51-0.51,1.35,0,1.86
					c0.38,0.39,1.35,0.79,1.98,0.79c0.21,0,0.39-0.04,0.49-0.15c0.27-0.27,0.11-0.95,0.02-1.23
					C113.74,99.04,113.48,98.53,113.24,98.29z"/>
				<path class="st1" d="M119.94,98.29c-0.25-0.25-0.57-0.38-0.92-0.38c-0.35,0-0.67,0.14-0.92,0.38c-0.24,0.24-0.51,0.75-0.66,1.27
					c-0.08,0.28-0.24,0.96,0.02,1.23c0.1,0.1,0.28,0.15,0.49,0.15c0.63,0,1.6-0.4,1.98-0.79C120.45,99.63,120.45,98.8,119.94,98.29z
					"/>
			</g>
		</g>
	</g>
	<g>
		<line class="st3" x1="94.68" y1="155.4" x2="94.68" y2="111.36"/>
		<polygon class="st4" points="71.44,132.15 93.44,111.61 93.44,132.15 		"/>
		<g>
			<defs>
				<polygon id="SVGID_9_" points="71.48,132.15 93.49,111.61 93.49,132.15 				"/>
			</defs>
			<clipPath id="SVGID_10_">
				<use xlink:href="#SVGID_9_"  style="overflow:visible;"/>
			</clipPath>
			<g class="st9">
				<path class="st1" d="M90.78,126.3c0-0.56-0.1-1.07-0.3-1.52c-0.2-0.45-0.47-0.83-0.82-1.14c-0.35-0.31-0.75-0.55-1.2-0.72
					c-0.46-0.17-0.94-0.25-1.46-0.25c-0.51,0-1,0.08-1.46,0.25c-0.46,0.17-0.86,0.4-1.2,0.72c-0.34,0.31-0.61,0.69-0.81,1.14
					c-0.2,0.45-0.3,0.96-0.3,1.52c0,0.5,0.08,0.95,0.24,1.37l-0.01,0c0.74,2.08,2.69,4.42,2.69,4.42c0.25,0.32,0.49,0.47,0.85,0.47
					c0.36,0,0.64-0.19,0.85-0.47c0,0,1.95-2.34,2.69-4.42l-0.01,0C90.69,127.25,90.78,126.79,90.78,126.3z M88.51,126.94
					c-0.07,0.21-0.17,0.4-0.31,0.57c-0.14,0.17-0.31,0.31-0.51,0.41c-0.2,0.1-0.43,0.15-0.7,0.15c-0.26,0-0.5-0.05-0.7-0.15
					c-0.2-0.1-0.37-0.24-0.51-0.41c-0.14-0.17-0.24-0.36-0.31-0.57c-0.07-0.21-0.1-0.43-0.1-0.65c0-0.22,0.03-0.44,0.1-0.65
					c0.07-0.21,0.17-0.4,0.3-0.56c0.13-0.16,0.3-0.29,0.5-0.39c0.2-0.1,0.43-0.15,0.7-0.15c0.26,0,0.5,0.05,0.7,0.15
					c0.2,0.1,0.37,0.23,0.51,0.39c0.14,0.16,0.24,0.35,0.31,0.56c0.07,0.21,0.11,0.43,0.11,0.65
					C88.61,126.51,88.58,126.73,88.51,126.94z"/>
				<path class="st1" d="M87.05,118.07c-0.83,0-1.5,0.68-1.5,1.52c0,0.85,0.83,2.56,1.5,2.56c0.68,0,1.5-1.71,1.5-2.56
					C88.56,118.75,87.88,118.07,87.05,118.07z"/>
				<path class="st1" d="M84.62,119.97c-0.25-0.25-0.57-0.38-0.92-0.38c-0.35,0-0.67,0.14-0.92,0.38c-0.51,0.51-0.51,1.35,0,1.86
					c0.38,0.39,1.35,0.79,1.98,0.79c0.21,0,0.39-0.04,0.49-0.15c0.27-0.27,0.11-0.95,0.02-1.23
					C85.13,120.72,84.87,120.21,84.62,119.97z"/>
				<path class="st1" d="M91.33,119.97c-0.25-0.25-0.57-0.38-0.92-0.38c-0.35,0-0.67,0.14-0.92,0.38c-0.24,0.24-0.51,0.75-0.66,1.27
					c-0.08,0.28-0.24,0.96,0.02,1.23c0.1,0.1,0.28,0.15,0.49,0.15c0.63,0,1.6-0.4,1.98-0.79C91.83,121.31,91.83,120.48,91.33,119.97
					z"/>
			</g>
		</g>
	</g>
	<g>
		<line class="st3" x1="73.8" y1="121.8" x2="73.8" y2="77.76"/>
		<polygon class="st4" points="50.57,98.54 72.57,78 72.57,98.54 		"/>
		<g>
			<defs>
				<polygon id="SVGID_11_" points="50.61,98.54 72.61,78 72.61,98.54 				"/>
			</defs>
			<clipPath id="SVGID_12_">
				<use xlink:href="#SVGID_11_"  style="overflow:visible;"/>
			</clipPath>
			<g class="st10">
				<path class="st1" d="M69.9,92.69c0-0.56-0.1-1.07-0.3-1.52c-0.2-0.45-0.47-0.83-0.82-1.14c-0.35-0.31-0.75-0.55-1.2-0.72
					c-0.46-0.17-0.94-0.25-1.46-0.25c-0.51,0-1,0.08-1.46,0.25c-0.46,0.17-0.86,0.4-1.2,0.72c-0.34,0.31-0.61,0.69-0.81,1.14
					c-0.2,0.45-0.3,0.96-0.3,1.52c0,0.5,0.08,0.95,0.24,1.37l-0.01,0c0.74,2.08,2.69,4.42,2.69,4.42c0.25,0.32,0.49,0.47,0.85,0.47
					c0.36,0,0.64-0.19,0.85-0.47c0,0,1.95-2.34,2.69-4.42l-0.01,0C69.82,93.64,69.9,93.19,69.9,92.69z M67.63,93.34
					c-0.07,0.21-0.17,0.4-0.31,0.57c-0.14,0.17-0.31,0.31-0.51,0.41c-0.2,0.1-0.43,0.15-0.7,0.15c-0.26,0-0.5-0.05-0.7-0.15
					c-0.2-0.1-0.37-0.24-0.51-0.41c-0.14-0.17-0.24-0.36-0.31-0.57c-0.07-0.21-0.1-0.43-0.1-0.65c0-0.22,0.03-0.44,0.1-0.65
					c0.07-0.21,0.17-0.4,0.3-0.56c0.13-0.16,0.3-0.29,0.5-0.39c0.2-0.1,0.43-0.15,0.7-0.15c0.26,0,0.5,0.05,0.7,0.15
					c0.2,0.1,0.37,0.23,0.51,0.39c0.14,0.16,0.24,0.35,0.31,0.56c0.07,0.21,0.11,0.43,0.11,0.65C67.74,92.91,67.7,93.12,67.63,93.34
					z"/>
				<path class="st1" d="M66.18,84.46c-0.83,0-1.5,0.68-1.5,1.52c0,0.85,0.83,2.56,1.5,2.56c0.68,0,1.5-1.71,1.5-2.56
					C67.68,85.14,67.01,84.46,66.18,84.46z"/>
				<path class="st1" d="M63.75,86.36c-0.25-0.25-0.57-0.38-0.92-0.38c-0.35,0-0.67,0.14-0.92,0.38c-0.51,0.51-0.51,1.35,0,1.86
					c0.38,0.39,1.35,0.79,1.98,0.79c0.21,0,0.39-0.04,0.49-0.15c0.27-0.27,0.11-0.95,0.02-1.23C64.26,87.11,63.99,86.6,63.75,86.36z
					"/>
				<path class="st1" d="M70.45,86.36c-0.25-0.25-0.57-0.38-0.92-0.38c-0.35,0-0.67,0.14-0.92,0.38c-0.24,0.24-0.51,0.75-0.66,1.27
					c-0.08,0.28-0.24,0.96,0.02,1.23c0.1,0.1,0.28,0.15,0.49,0.15c0.63,0,1.6-0.4,1.98-0.79C70.96,87.71,70.96,86.87,70.45,86.36z"
					/>
			</g>
		</g>
	</g>
	<g>
		<line class="st3" x1="46.21" y1="84.08" x2="46.21" y2="40.04"/>
		<polygon class="st4" points="22.97,60.83 44.97,40.29 44.97,60.83 		"/>
		<g>
			<defs>
				<polygon id="SVGID_13_" points="23.01,60.83 45.01,40.29 45.01,60.83 				"/>
			</defs>
			<clipPath id="SVGID_14_">
				<use xlink:href="#SVGID_13_"  style="overflow:visible;"/>
			</clipPath>
			<g class="st11">
				<path class="st1" d="M42.3,54.98c0-0.56-0.1-1.07-0.3-1.52c-0.2-0.45-0.47-0.83-0.82-1.14c-0.35-0.31-0.75-0.55-1.2-0.72
					c-0.46-0.17-0.94-0.25-1.46-0.25c-0.51,0-1,0.08-1.46,0.25c-0.46,0.17-0.86,0.4-1.2,0.72c-0.34,0.31-0.61,0.69-0.81,1.14
					c-0.2,0.45-0.3,0.96-0.3,1.52c0,0.5,0.08,0.95,0.24,1.37l-0.01,0c0.74,2.08,2.69,4.42,2.69,4.42c0.25,0.32,0.49,0.47,0.85,0.47
					c0.36,0,0.64-0.19,0.85-0.47c0,0,1.95-2.34,2.69-4.42l-0.01,0C42.22,55.93,42.3,55.48,42.3,54.98z M40.04,55.62
					c-0.07,0.21-0.17,0.4-0.31,0.57c-0.14,0.17-0.31,0.31-0.51,0.41c-0.2,0.1-0.43,0.15-0.7,0.15c-0.26,0-0.5-0.05-0.7-0.15
					c-0.2-0.1-0.37-0.24-0.51-0.41c-0.14-0.17-0.24-0.36-0.31-0.57c-0.07-0.21-0.1-0.43-0.1-0.65c0-0.22,0.03-0.44,0.1-0.65
					c0.07-0.21,0.17-0.4,0.3-0.56c0.13-0.16,0.3-0.29,0.5-0.39c0.2-0.1,0.43-0.15,0.7-0.15c0.26,0,0.5,0.05,0.7,0.15
					c0.2,0.1,0.37,0.23,0.51,0.39c0.14,0.16,0.24,0.35,0.31,0.56c0.07,0.21,0.11,0.43,0.11,0.65C40.14,55.2,40.1,55.41,40.04,55.62z
					"/>
				<path class="st1" d="M38.58,46.75c-0.83,0-1.5,0.68-1.5,1.52c0,0.85,0.83,2.56,1.5,2.56s1.5-1.71,1.5-2.56
					C40.08,47.43,39.41,46.75,38.58,46.75z"/>
				<path class="st1" d="M36.15,48.65c-0.25-0.25-0.57-0.38-0.92-0.38c-0.35,0-0.67,0.14-0.92,0.38c-0.51,0.51-0.51,1.35,0,1.86
					c0.38,0.39,1.35,0.79,1.98,0.79c0.21,0,0.39-0.04,0.49-0.15c0.27-0.27,0.11-0.95,0.02-1.23C36.66,49.4,36.39,48.89,36.15,48.65z
					"/>
				<path class="st1" d="M42.85,48.65c-0.25-0.25-0.57-0.38-0.92-0.38c-0.35,0-0.67,0.14-0.92,0.38c-0.24,0.24-0.51,0.75-0.66,1.27
					c-0.08,0.28-0.24,0.96,0.02,1.23c0.1,0.1,0.28,0.15,0.49,0.15c0.63,0,1.6-0.4,1.98-0.79C43.36,49.99,43.36,49.16,42.85,48.65z"
					/>
			</g>
		</g>
	</g>
	<g>
		<line class="st3" x1="36.34" y1="122.02" x2="36.34" y2="77.98"/>
		<polygon class="st4" points="13.1,98.76 35.1,78.23 35.1,98.76 		"/>
		<g>
			<defs>
				<polygon id="SVGID_15_" points="13.14,98.76 35.14,78.23 35.14,98.76 				"/>
			</defs>
			<clipPath id="SVGID_16_">
				<use xlink:href="#SVGID_15_"  style="overflow:visible;"/>
			</clipPath>
			<g class="st12">
				<path class="st1" d="M32.44,92.92c0-0.56-0.1-1.07-0.3-1.52c-0.2-0.45-0.47-0.83-0.82-1.14c-0.35-0.31-0.75-0.55-1.2-0.72
					c-0.46-0.17-0.94-0.25-1.46-0.25c-0.51,0-1,0.08-1.46,0.25c-0.46,0.17-0.86,0.4-1.2,0.72c-0.34,0.31-0.61,0.69-0.81,1.14
					c-0.2,0.45-0.3,0.96-0.3,1.52c0,0.5,0.08,0.95,0.24,1.37l-0.01,0c0.74,2.08,2.69,4.42,2.69,4.42c0.25,0.32,0.49,0.47,0.85,0.47
					c0.36,0,0.64-0.19,0.85-0.47c0,0,1.95-2.34,2.69-4.42l-0.01,0C32.35,93.87,32.44,93.41,32.44,92.92z M30.17,93.56
					c-0.07,0.21-0.17,0.4-0.31,0.57c-0.14,0.17-0.31,0.31-0.51,0.41c-0.2,0.1-0.43,0.15-0.7,0.15c-0.26,0-0.5-0.05-0.7-0.15
					c-0.2-0.1-0.37-0.24-0.51-0.41c-0.14-0.17-0.24-0.36-0.31-0.57c-0.07-0.21-0.1-0.43-0.1-0.65c0-0.22,0.03-0.44,0.1-0.65
					c0.07-0.21,0.17-0.4,0.3-0.56c0.13-0.16,0.3-0.29,0.5-0.39c0.2-0.1,0.43-0.15,0.7-0.15c0.26,0,0.5,0.05,0.7,0.15
					c0.2,0.1,0.37,0.23,0.51,0.39c0.14,0.16,0.24,0.35,0.31,0.56c0.07,0.21,0.11,0.43,0.11,0.65
					C30.27,93.13,30.24,93.35,30.17,93.56z"/>
				<path class="st1" d="M28.71,84.69c-0.83,0-1.5,0.68-1.5,1.52c0,0.85,0.83,2.56,1.5,2.56s1.5-1.71,1.5-2.56
					C30.22,85.37,29.54,84.69,28.71,84.69z"/>
				<path class="st1" d="M26.28,86.59c-0.25-0.25-0.57-0.38-0.92-0.38c-0.35,0-0.67,0.14-0.92,0.38c-0.51,0.51-0.51,1.35,0,1.86
					c0.38,0.39,1.35,0.79,1.98,0.79c0.21,0,0.39-0.04,0.49-0.15c0.27-0.27,0.11-0.95,0.02-1.23C26.79,87.34,26.52,86.83,26.28,86.59
					z"/>
				<path class="st1" d="M32.99,86.59c-0.25-0.25-0.57-0.38-0.92-0.38c-0.35,0-0.67,0.14-0.92,0.38c-0.24,0.24-0.51,0.75-0.66,1.27
					c-0.08,0.28-0.24,0.96,0.02,1.23c0.1,0.1,0.28,0.15,0.49,0.15c0.63,0,1.6-0.4,1.98-0.79C33.49,87.93,33.49,87.1,32.99,86.59z"/>
			</g>
		</g>
	</g>
	<path class="st1" d="M100.78,1C46.06,1,1.71,45.36,1.71,100.08c0,54.7,44.36,99.06,99.08,99.06c54.7,0,99.06-44.36,99.06-99.06
		C199.84,45.36,155.49,1,100.78,1z M100.78,184.19c-31.72,0-59.34-17.56-73.67-43.49c-4.82-8.72-8.14-18.4-9.6-28.67
		c-0.16-1.1-0.3-2.21-0.42-3.33c-0.23-2.25-0.36-4.52-0.42-6.81c-0.01-0.61-0.01-1.21-0.01-1.8c0-46.46,37.66-84.11,84.11-84.11
		s84.1,37.65,84.1,84.11c0,1.34-0.03,2.68-0.09,4.01c-0.62,13.25-4.3,25.67-10.36,36.61C160.1,166.63,132.49,184.19,100.78,184.19z"
		/>
</g>
<g>
	<path class="st1" d="M184.9,100.01c0,1.35-0.03,2.71-0.09,4.05c-0.63,13.37-4.34,25.91-10.46,36.95
		c-14.46,26.17-42.34,43.9-74.34,43.9c-32.02,0-59.89-17.73-74.36-43.9c-4.86-8.8-8.22-18.57-9.69-28.94
		c-0.16-1.11-0.31-2.23-0.42-3.36c-0.23-2.27-0.36-4.56-0.42-6.87c-0.01-0.61-0.01-1.22-0.01-1.82c0-46.9,38.02-84.9,84.9-84.9
		S184.9,53.11,184.9,100.01z"/>
	<path class="st0" d="M184.9,100c0,1.36-0.03,2.72-0.09,4.06c-0.63,13.36-4.35,25.91-10.45,36.95
		c-14.46,26.17-42.34,43.89-74.36,43.89s-59.89-17.72-74.35-43.89c-4.87-8.81-8.22-18.57-9.69-28.94c-0.16-1.12-0.3-2.24-0.42-3.37
		c-0.23-2.27-0.37-4.56-0.42-6.88c-0.02-0.61-0.02-1.21-0.02-1.82c0-46.89,38.01-84.9,84.9-84.9C146.89,15.1,184.9,53.11,184.9,100z
		"/>
	<g>
		<g id="S_Left_Leg_1_">
			<line class="st13" x1="129.45" y1="129.48" x2="129.35" y2="153.83"/>
			<circle class="st14" cx="129.4" cy="142.23" r="1.41"/>
			<ellipse class="st14" cx="128.31" cy="153.97" rx="2.28" ry="1.6"/>
		</g>
		<g id="S_Right_Leg_1_">
			<line class="st13" x1="144.97" y1="129.48" x2="144.87" y2="153.83"/>
			<ellipse class="st14" cx="146.02" cy="153.97" rx="2.28" ry="1.6"/>
			<circle class="st14" cx="144.9" cy="142.23" r="1.41"/>
		</g>
		<g id="S_Right_arm_3_">
			<path class="st15" d="M159.3,104.89c4.71,2.42,13.6-17.51,13.6-17.51"/>
			<circle class="st14" cx="173.37" cy="86.6" r="1.37"/>
		</g>
		<g id="S_Right_arm_2_">
			<path class="st15" d="M51.07,104.89c-4.71,2.42-13.6-17.51-13.6-17.51"/>
			<circle class="st14" cx="37" cy="86.6" r="1.37"/>
		</g>
		<g id="S_Left_arm_1_">
			<path class="st15" d="M114.15,99.83c-5.22-0.86-7.6,20.83-7.6,20.83"/>
			<circle class="st14" cx="106.34" cy="121.55" r="1.37"/>
		</g>
		<g id="Suzie_Body_1_">
			<path class="st16" d="M125.88,66.25c3.94-9.61,17.54-9.61,21.48,0l9.73,23.73l4.09,9.98c7.73,18.85-5.24,39.96-24.56,39.96h0h0
				c-19.31,0-32.28-21.11-24.56-39.96l4.09-9.98L125.88,66.25z"/>
			<ellipse class="st17" cx="123.39" cy="97.76" rx="4.24" ry="2.37"/>
			<ellipse class="st17" cx="151.13" cy="97.76" rx="4.24" ry="2.37"/>
			<ellipse class="st18" cx="141.37" cy="69.62" rx="3.55" ry="2.62"/>
			<ellipse class="st18" cx="146.89" cy="128.12" rx="3.55" ry="2.62"/>
			<ellipse class="st18" cx="128.56" cy="111.37" rx="2.7" ry="1.99"/>
			<ellipse class="st18" cx="124.05" cy="126.74" rx="2.7" ry="1.99"/>
			<ellipse class="st18" cx="155.02" cy="111.11" rx="1.85" ry="1.34"/>
			<ellipse class="st18" cx="117.34" cy="104.61" rx="1.85" ry="1.34"/>
			<ellipse class="st18" cx="131.41" cy="79.41" rx="1.85" ry="1.34"/>
			<g>
				<path class="st14" d="M150.94,86.13c-0.73,1.25-2.59,2.01-4.42,1.16c-0.16-0.07-0.28-0.24-0.27-0.34c0.01-0.1,0.02-0.2,0.03-0.3
					c0.02-0.11,0.14-0.11,0.27-0.04c1.57,0.89,3.19,0.28,3.82-0.71c0.06-0.08,0.16-0.13,0.25-0.09c0.08,0.03,0.17,0.06,0.25,0.08
					C150.98,85.91,151.01,86.02,150.94,86.13z"/>
			</g>
			<g>
				<path class="st14" d="M150.93,88.11c-1.14,1.01-2.86,1.01-3.99,0c-0.1-0.09-0.12-0.22-0.05-0.28c0.06-0.06,0.12-0.12,0.18-0.18
					c0.07-0.06,0.18-0.05,0.26,0.02c0.92,0.81,2.3,0.81,3.22,0c0.08-0.07,0.19-0.08,0.26-0.02c0.06,0.06,0.12,0.12,0.18,0.18
					C151.05,87.89,151.03,88.02,150.93,88.11z"/>
			</g>
			<g>
				<path class="st14" d="M122.74,86.13c0.73,1.25,2.59,2.01,4.42,1.16c0.16-0.07,0.28-0.24,0.27-0.34c-0.01-0.1-0.02-0.2-0.03-0.3
					c-0.02-0.11-0.14-0.11-0.27-0.04c-1.57,0.89-3.19,0.28-3.82-0.71c-0.06-0.08-0.16-0.13-0.25-0.09
					c-0.08,0.03-0.17,0.06-0.25,0.08C122.7,85.91,122.67,86.02,122.74,86.13z"/>
			</g>
			<g>
				<path class="st14" d="M122.75,88.11c1.14,1.01,2.86,1.01,3.99,0c0.1-0.09,0.12-0.22,0.05-0.28c-0.06-0.06-0.12-0.12-0.18-0.18
					c-0.07-0.06-0.18-0.05-0.26,0.02c-0.92,0.81-2.3,0.81-3.22,0c-0.08-0.07-0.19-0.08-0.26-0.02c-0.06,0.06-0.12,0.12-0.18,0.18
					C122.63,87.89,122.65,88.02,122.75,88.11z"/>
			</g>
			<g>
				<circle class="st14" cx="128.31" cy="89.62" r="4.23"/>
				<circle class="st14" cx="144.92" cy="89.62" r="4.23"/>
				<circle class="st1" cx="145.77" cy="88.16" r="1.86"/>
				<circle class="st1" cx="129.16" cy="88.16" r="1.86"/>
			</g>
		</g>
		<g id="Right_Arm_1_">
			<path class="st13" d="M92.92,102.15c5.42-0.17,4.89,22.18,4.89,22.18"/>
			<circle class="st14" cx="97.9" cy="125.26" r="1.41"/>
		</g>
		<g id="Left_Leg_2_">
			<line class="st13" x1="64.73" y1="130.71" x2="64.63" y2="155.07"/>
			<circle class="st14" cx="64.68" cy="143.46" r="1.41"/>
			<ellipse class="st14" cx="63.59" cy="155.2" rx="2.28" ry="1.6"/>
		</g>
		<g id="Right_Leg_2_">
			<line class="st13" x1="80.25" y1="130.71" x2="80.15" y2="155.07"/>
			<ellipse class="st14" cx="81.3" cy="155.2" rx="2.28" ry="1.6"/>
			<circle class="st14" cx="80.18" cy="143.46" r="1.41"/>
		</g>
		<g id="Body_2_">
			<g>
				<path class="st19" d="M76.18,73.15h-9.56l-3.63-44.37c0-4.1,3.99-1.41,8.9-1.41l0,0c4.92,0,8.9-3.04,8.9,1.06L76.18,73.15z"/>
				
					<ellipse transform="matrix(0.7071 -0.7071 0.7071 0.7071 -1.9552 67.7895)" class="st19" cx="80.85" cy="36.25" rx="8.15" ry="5.19"/>
				
					<ellipse transform="matrix(0.7071 -0.7071 0.7071 0.7071 -7.2002 55.1267)" class="st19" cx="62.94" cy="36.25" rx="5.19" ry="8.15"/>
				
					<ellipse transform="matrix(0.8137 -0.5813 0.5813 0.8137 -12.4495 56.0766)" class="st19" cx="81.25" cy="47.46" rx="8.91" ry="5.68"/>
				
					<ellipse transform="matrix(0.5813 -0.8137 0.8137 0.5813 -13.0467 69.5629)" class="st19" cx="61.07" cy="47.46" rx="5.68" ry="8.91"/>
				
					<ellipse transform="matrix(0.7071 -0.7071 0.7071 0.7071 4.0811 63.2301)" class="st19" cx="78.37" cy="26.69" rx="6.65" ry="4.24"/>
				
					<ellipse transform="matrix(0.7071 -0.7071 0.7071 0.7071 0.292 54.0824)" class="st19" cx="65.43" cy="26.69" rx="4.24" ry="6.65"/>
				<ellipse class="st19" cx="71.9" cy="21.62" rx="4.15" ry="6.51"/>
			</g>
			<path class="st4" d="M82.64,133.94c-3.94,9.61-17.54,9.61-21.48,0l-9.73-23.73l-4.09-9.98c-7.73-18.85,5.24-39.96,24.56-39.96h0
				h0c19.31,0,32.28,21.11,24.56,39.96l-4.09,9.98L82.64,133.94z"/>
			<g>
				<path class="st20" d="M89.29,92.29c-4.51-0.3-9.04-0.3-13.55,0c-0.75,0.05-1.41-0.51-1.47-1.27c-0.03-0.42-0.07-0.83-0.1-1.25
					c-0.06-0.75,0.53-1.41,1.31-1.47c4.69-0.31,9.39-0.31,14.07,0c0.79,0.05,1.37,0.71,1.31,1.47c-0.03,0.42-0.07,0.83-0.1,1.25
					C90.71,91.78,90.05,92.34,89.29,92.29z"/>
			</g>
			<g>
				<path class="st20" d="M67.74,101.87c-3.73-0.24-7.47-0.24-11.2,0c-0.66,0.04-1.24-0.45-1.3-1.12c-0.04-0.52-0.08-1.05-0.12-1.57
					c-0.05-0.66,0.47-1.25,1.16-1.29c3.9-0.25,7.81-0.25,11.71,0c0.7,0.04,1.22,0.63,1.16,1.29c-0.04,0.52-0.08,1.05-0.12,1.57
					C68.98,101.42,68.4,101.91,67.74,101.87z"/>
			</g>
			<g>
				<path class="st20" d="M80.06,116.49c-2.2-0.12-4.4-0.12-6.6,0c-0.75,0.04-1.41-0.52-1.47-1.27c-0.03-0.42-0.07-0.83-0.1-1.25
					c-0.06-0.75,0.54-1.42,1.35-1.46c2.34-0.13,4.69-0.13,7.04,0c0.81,0.04,1.41,0.71,1.35,1.46c-0.03,0.42-0.07,0.83-0.1,1.25
					C81.47,115.97,80.81,116.53,80.06,116.49z"/>
			</g>
			<g>
				<path class="st20" d="M76.56,130.62c-2.98-0.18-5.96-0.18-8.93,0c-0.75,0.04-1.41-0.52-1.47-1.27c-0.03-0.42-0.07-0.83-0.1-1.25
					c-0.06-0.75,0.53-1.42,1.33-1.46c3.13-0.19,6.28-0.19,9.41,0c0.8,0.05,1.39,0.71,1.33,1.46c-0.03,0.42-0.07,0.83-0.1,1.25
					C77.98,130.1,77.32,130.66,76.56,130.62z"/>
			</g>
			<g>
				<path class="st20" d="M71.63,78.42c-5.85-0.4-11.72-0.4-17.56,0c-0.75,0.05-1.41-0.51-1.47-1.26c-0.03-0.42-0.07-0.83-0.1-1.25
					c-0.06-0.75,0.52-1.41,1.3-1.47c6.03-0.41,12.08-0.41,18.1,0c0.78,0.05,1.36,0.71,1.3,1.47c-0.03,0.42-0.07,0.83-0.1,1.25
					C73.05,77.91,72.39,78.47,71.63,78.42z"/>
			</g>
			<ellipse class="st17" cx="58.67" cy="98.99" rx="4.24" ry="2.37"/>
			<ellipse class="st17" cx="86.41" cy="98.99" rx="4.24" ry="2.37"/>
			<g>
				<circle class="st14" cx="63.59" cy="90.85" r="4.23"/>
				<circle class="st1" cx="62.79" cy="89.39" r="1.86"/>
				<circle class="st14" cx="80.2" cy="90.85" r="4.23"/>
				<circle class="st1" cx="79" cy="89.39" r="1.86"/>
			</g>
			<g>
				<path class="st14" d="M77.55,102.17c-3.2,2.91-8.11,2.91-11.31,0c-0.22-0.2-0.27-0.51-0.1-0.66c0.09-0.09,0.18-0.17,0.26-0.26
					c0.16-0.15,0.44-0.12,0.63,0.05c2.76,2.5,6.98,2.5,9.74,0c0.19-0.17,0.47-0.2,0.63-0.05c0.09,0.09,0.18,0.17,0.26,0.26
					C77.82,101.66,77.78,101.97,77.55,102.17z"/>
			</g>
		</g>
		<g>
			<path d="M149.18,54.48V66.9h-0.35c-1.44-0.85-3.62-1.4-6.06-1.4c-2.43,0-4.61,0.54-6.04,1.4h-0.36c-1.43-0.86-3.6-1.4-6.02-1.4
				c-2.45,0-4.63,0.55-6.06,1.4h-0.27V54.48H149.18z"/>
			<polygon points="162,52.66 160.13,53.02 146.29,55.66 136.78,57.48 127.14,55.66 113.11,53.02 111.23,52.66 136.78,47.04 			"/>
			<polygon points="160.13,53.02 146.29,55.66 136.78,57.48 127.14,55.66 113.11,53.02 136.78,47.81 			"/>
			<polygon class="st21" points="155.82,67.53 152.73,67.53 153.86,63.52 155.02,63.52 			"/>
			<polygon class="st21" points="154.17,54 137.5,52.62 138.13,51.87 155.02,53.37 			"/>
			<ellipse class="st22" cx="136.66" cy="51.97" rx="1.67" ry="0.91"/>
			<polygon class="st22" points="162,52.66 162,53.44 150.33,55.66 136.78,58.25 123.05,55.66 111.23,53.44 111.23,52.66 
				113.11,53.02 127.14,55.66 136.78,57.48 146.29,55.66 160.13,53.02 			"/>
			<rect x="153.86" y="53.37" class="st21" width="1.16" height="10.15"/>
			<rect x="153.56" y="61.42" width="1.75" height="2.13"/>
		</g>
		<g id="jZbBBq.tif_1_">
			<g>
				<path class="st14" d="M136.89,103.51c-1.37-0.01-2.57-0.4-3.61-1.23c-0.64-0.51-1.13-1.12-1.42-1.89
					c-0.11-0.3-0.19-0.6-0.14-0.92c0.06-0.36,0.27-0.55,0.64-0.61c0.26-0.04,0.52,0,0.77,0.06c0.63,0.15,1.26,0.25,1.9,0.32
					c0.39,0.04,0.78,0.06,1.16,0.08c0.52,0.02,1.04,0.01,1.56-0.01c0.74-0.03,1.47-0.11,2.2-0.25c0.35-0.07,0.7-0.17,1.06-0.21
					c0.26-0.02,0.5,0.01,0.71,0.16c0.29,0.2,0.31,0.5,0.27,0.81c-0.09,0.7-0.42,1.29-0.87,1.81c-0.81,0.94-1.84,1.52-3.05,1.77
					C137.66,103.47,137.26,103.51,136.89,103.51z"/>
			</g>
		</g>
		<g>
			<ellipse class="st23" cx="136.61" cy="175.81" rx="27.21" ry="3.26"/>
			<polygon class="st24" points="157.28,122.8 116.9,122.87 113.41,117.28 160.62,117.28 			"/>
			<polygon class="st14" points="152.11,175.53 121.5,175.53 118.1,120.22 155.64,120.22 			"/>
			<rect x="113.41" y="113.86" class="st25" width="47.21" height="3.42"/>
			<polygon class="st19" points="128.86,120.22 132.2,120.22 132.2,154 128.86,155.95 			"/>
			<polygon class="st19" points="144.88,120.22 144.88,155.95 141.53,154 141.53,120.22 			"/>
			<polygon class="st4" points="141.53,120.22 141.53,154 136.86,151.3 132.2,154 132.2,120.22 			"/>
			<g>
				<path class="st1" d="M139.31,138.03c0-0.37-0.07-0.7-0.2-1c-0.13-0.3-0.31-0.55-0.54-0.75c-0.23-0.21-0.49-0.36-0.79-0.47
					c-0.3-0.11-0.62-0.16-0.96-0.16c-0.34,0-0.65,0.05-0.96,0.16c-0.3,0.11-0.57,0.27-0.79,0.47c-0.22,0.21-0.4,0.46-0.53,0.75
					c-0.13,0.3-0.2,0.63-0.2,1c0,0.33,0.05,0.63,0.16,0.9l0,0c0.49,1.37,1.77,2.91,1.77,2.91c0.16,0.21,0.32,0.31,0.56,0.31
					c0.24,0,0.42-0.13,0.56-0.31c0,0,1.28-1.54,1.77-2.91l0,0C139.26,138.65,139.31,138.36,139.31,138.03z M137.82,138.45
					c-0.04,0.14-0.11,0.26-0.2,0.38c-0.09,0.11-0.2,0.2-0.33,0.27c-0.13,0.07-0.28,0.1-0.46,0.1c-0.17,0-0.33-0.03-0.46-0.1
					c-0.13-0.07-0.24-0.16-0.33-0.27c-0.09-0.11-0.16-0.24-0.2-0.38c-0.04-0.14-0.07-0.28-0.07-0.43c0-0.15,0.02-0.29,0.07-0.43
					c0.04-0.14,0.11-0.26,0.2-0.37c0.09-0.11,0.2-0.19,0.33-0.26c0.13-0.07,0.28-0.1,0.46-0.1c0.17,0,0.33,0.03,0.46,0.1
					c0.13,0.07,0.24,0.15,0.33,0.26c0.09,0.11,0.16,0.23,0.21,0.37c0.05,0.14,0.07,0.28,0.07,0.43
					C137.89,138.17,137.87,138.31,137.82,138.45z"/>
				<path class="st1" d="M136.87,132.62c-0.54,0-0.99,0.45-0.99,1c0,0.56,0.54,1.68,0.99,1.68c0.44,0,0.99-1.13,0.99-1.68
					C137.85,133.06,137.41,132.62,136.87,132.62z"/>
				<path class="st1" d="M135.27,133.86c-0.16-0.16-0.38-0.25-0.61-0.25c-0.23,0-0.44,0.09-0.61,0.25c-0.33,0.34-0.33,0.89,0,1.22
					c0.25,0.26,0.89,0.52,1.3,0.52c0.14,0,0.25-0.03,0.32-0.1c0.18-0.18,0.07-0.62,0.02-0.81
					C135.6,134.36,135.43,134.02,135.27,133.86z"/>
				<path class="st1" d="M139.68,133.86c-0.16-0.16-0.38-0.25-0.61-0.25c-0.23,0-0.44,0.09-0.61,0.25c-0.16,0.16-0.33,0.5-0.43,0.84
					c-0.05,0.18-0.16,0.63,0.02,0.81c0.07,0.07,0.18,0.1,0.32,0.1c0.42,0,1.05-0.26,1.3-0.52
					C140.01,134.75,140.01,134.2,139.68,133.86z"/>
			</g>
		</g>
		<g>
			<ellipse class="st23" cx="71.9" cy="175.81" rx="27.21" ry="3.26"/>
			<polygon class="st24" points="92.56,122.8 52.18,122.87 48.7,117.28 95.9,117.28 			"/>
			<polygon class="st14" points="87.39,175.53 56.78,175.53 53.38,120.22 90.92,120.22 			"/>
			<rect x="48.7" y="113.86" class="st25" width="47.21" height="3.42"/>
			<polygon class="st19" points="64.14,120.22 67.48,120.22 67.48,154 64.14,155.95 			"/>
			<polygon class="st19" points="80.16,120.22 80.16,155.95 76.81,154 76.81,120.22 			"/>
			<polygon class="st4" points="76.81,120.22 76.81,154 72.15,151.3 67.48,154 67.48,120.22 			"/>
			<g>
				<path class="st1" d="M74.6,138.03c0-0.37-0.07-0.7-0.2-1c-0.13-0.3-0.31-0.55-0.54-0.75c-0.23-0.21-0.49-0.36-0.79-0.47
					c-0.3-0.11-0.62-0.16-0.96-0.16c-0.34,0-0.65,0.05-0.96,0.16c-0.3,0.11-0.57,0.27-0.79,0.47c-0.22,0.21-0.4,0.46-0.53,0.75
					c-0.13,0.3-0.2,0.63-0.2,1c0,0.33,0.05,0.63,0.16,0.9l0,0c0.49,1.37,1.77,2.91,1.77,2.91c0.16,0.21,0.32,0.31,0.56,0.31
					c0.24,0,0.42-0.13,0.56-0.31c0,0,1.28-1.54,1.77-2.91l0,0C74.54,138.65,74.6,138.36,74.6,138.03z M73.1,138.45
					c-0.04,0.14-0.11,0.26-0.2,0.38c-0.09,0.11-0.2,0.2-0.33,0.27c-0.13,0.07-0.28,0.1-0.46,0.1c-0.17,0-0.33-0.03-0.46-0.1
					c-0.13-0.07-0.24-0.16-0.33-0.27c-0.09-0.11-0.16-0.24-0.2-0.38c-0.04-0.14-0.07-0.28-0.07-0.43c0-0.15,0.02-0.29,0.07-0.43
					c0.04-0.14,0.11-0.26,0.2-0.37c0.09-0.11,0.2-0.19,0.33-0.26c0.13-0.07,0.28-0.1,0.46-0.1c0.17,0,0.33,0.03,0.46,0.1
					c0.13,0.07,0.24,0.15,0.33,0.26c0.09,0.11,0.16,0.23,0.21,0.37c0.05,0.14,0.07,0.28,0.07,0.43
					C73.17,138.17,73.15,138.31,73.1,138.45z"/>
				<path class="st1" d="M72.15,132.62c-0.54,0-0.99,0.45-0.99,1c0,0.56,0.54,1.68,0.99,1.68s0.99-1.13,0.99-1.68
					C73.14,133.06,72.69,132.62,72.15,132.62z"/>
				<path class="st1" d="M70.55,133.86c-0.16-0.16-0.38-0.25-0.61-0.25c-0.23,0-0.44,0.09-0.61,0.25c-0.33,0.34-0.33,0.89,0,1.22
					c0.25,0.26,0.89,0.52,1.3,0.52c0.14,0,0.25-0.03,0.32-0.1c0.18-0.18,0.07-0.62,0.02-0.81
					C70.88,134.36,70.71,134.02,70.55,133.86z"/>
				<path class="st1" d="M74.96,133.86c-0.16-0.16-0.38-0.25-0.61-0.25c-0.23,0-0.44,0.09-0.61,0.25c-0.16,0.16-0.33,0.5-0.43,0.84
					c-0.05,0.18-0.16,0.63,0.02,0.81c0.07,0.07,0.18,0.1,0.32,0.1c0.42,0,1.05-0.26,1.3-0.52C75.29,134.75,75.29,134.2,74.96,133.86
					z"/>
			</g>
		</g>
		<line class="st26" x1="37" y1="90.91" x2="37" y2="68.63"/>
		<polygon class="st4" points="25.26,79.15 36.39,68.76 36.39,79.15 		"/>
	</g>
	<path class="st1" d="M100.01,0C44.77,0,0,44.77,0,100.01C0,155.23,44.77,200,100.01,200c55.22,0,99.99-44.77,99.99-99.99
		C200,44.77,155.23,0,100.01,0z M100.01,184.91c-32.02,0-59.89-17.73-74.36-43.9c-4.86-8.8-8.22-18.57-9.69-28.94
		c-0.16-1.11-0.31-2.23-0.42-3.36c-0.23-2.27-0.36-4.56-0.42-6.87c-0.01-0.61-0.01-1.22-0.01-1.82c0-46.9,38.02-84.9,84.9-84.9
		s84.89,38,84.89,84.9c0,1.35-0.03,2.71-0.09,4.05c-0.63,13.37-4.34,25.91-10.46,36.95C159.89,167.18,132.01,184.91,100.01,184.91z"
		/>
</g>
</svg>
