<?xml version="1.0" encoding="utf-8"?>
<!-- Generator: Adobe Illustrator 24.1.1, SVG Export Plug-In . SVG Version: 6.00 Build 0)  -->
<svg version="1.1" id="Layer_1" xmlns="http://www.w3.org/2000/svg" xmlns:xlink="http://www.w3.org/1999/xlink" x="0px" y="0px"
	 viewBox="0 0 300 300" style="enable-background:new 0 0 300 300;" xml:space="preserve">
<style type="text/css">
	.st0{fill:#7DB343;}
	.st1{fill:#6D3007;}
	.st2{fill:#EF6D02;}
	.st3{fill:#FFFFFF;}
	.st4{fill:#CAA65A;}
	.st5{fill:#D35B09;}
	.st6{fill:#FF94CB;}
	.st7{fill:#9E7E47;}
</style>
<g>
	<path class="st0" d="M119.51,59.86c-1.57-0.6-3.37-0.79-5.27-0.65c1.95-1.68,3.68-3.72,5-6.01c4.05-7.06,2.54-13.73-3.36-14.91
		c-2.14-0.43-4.56-0.06-6.98,0.9c1.42-1.3,2.68-2.83,3.66-4.53c3.3-5.76,2.08-11.21-2.74-12.17c-3.25-0.65-7.31,0.92-10.61,3.78
		c0.92-5.79-0.95-11.92-4.55-14.33c-4-2.67-8.63,0.25-10.33,6.53c-0.7,2.56-0.79,5.29-0.39,7.8c-3.31-2.86-7.36-4.43-10.61-3.78
		c-4.82,0.96-6.04,6.41-2.74,12.17c0.97,1.7,2.24,3.23,3.66,4.53c-2.41-0.96-4.84-1.33-6.98-0.9c-5.9,1.18-7.41,7.85-3.36,14.91
		c1.49,2.6,3.52,4.88,5.79,6.67c-3.19-0.89-6.31-0.97-8.85-0.01c-6.15,2.33-6.58,9.8-0.94,16.68c4.89,5.98,12.74,9.55,18.76,8.86
		l2.91,35.66H99.7l3.67-35.58c5.74-0.06,12.63-3.49,17.09-8.94C126.09,69.66,125.67,62.19,119.51,59.86z"/>
	<g>
		<path class="st1" d="M232.79,192.16c-0.95,0-1.82-0.25-2.6-0.75l1.28-2.01c0.62,0.39,1.36,0.48,2.26,0.25
			c7.57-1.9,20.97-23.23,25.49-31.29l2.08,1.17c-0.68,1.22-16.89,29.9-26.99,32.44C233.78,192.09,233.27,192.16,232.79,192.16z"/>
	</g>
	<g>
		<path class="st1" d="M47.11,215.46c-0.03-1.4-0.73-34.33,6.67-41.67c1.14-1.13,2.41-1.69,3.83-1.63l-0.08,2.39
			c-0.74-0.03-1.41,0.28-2.07,0.94c-5.54,5.5-6.19,30.68-5.97,39.92L47.11,215.46z"/>
	</g>
	<g>
		<g>
			<path class="st1" d="M163.42,205.69c-1.35-0.35-33.21-8.71-38.25-17.83c-0.77-1.4-0.95-2.79-0.52-4.13l2.28,0.73
				c-0.22,0.7-0.11,1.44,0.34,2.25c3.77,6.83,27.81,14.35,36.76,16.68L163.42,205.69z"/>
		</g>
		<g>
			<circle class="st1" cx="164.03" cy="204.45" r="2.67"/>
		</g>
	</g>
	<g>
		<g>
			<path class="st1" d="M120.89,179.81l-0.02-2.39c9.24-0.07,34.39-1.49,39.71-7.19c0.63-0.68,0.92-1.37,0.88-2.1l2.38-0.15
				c0.09,1.4-0.42,2.71-1.51,3.88C155.23,179.48,122.29,179.8,120.89,179.81z"/>
		</g>
		<g>
			<circle class="st1" cx="120.6" cy="178.46" r="2.67"/>
		</g>
	</g>
	<g>
		<path class="st2" d="M111.94,236.4c-7.47,18.23-33.28,18.23-40.75,0l-18.45-45.02l-7.76-18.93
			c-14.66-35.77,9.95-75.81,46.58-75.81h0h0c36.64,0,61.24,40.04,46.58,75.81l-7.76,18.93L111.94,236.4z"/>
	</g>
	<path class="st3" d="M143.14,296c-24.63,0-47.83-1.27-65.32-3.58c-23.22-3.06-31.86-6.96-31.86-14.36
		c0-6.73,7.11-10.54,25.84-13.49l0.03-6.41c-0.93-1.38-1.45-3.03-1.45-4.77c0-1.77,0.54-3.44,1.49-4.83l0.01-2.84
		c-2.13-2.37-3.83-5.11-5.08-8.16l-9.08-22.16c0.02,0.24,0.03,0.48,0.03,0.72c0,4.72-3.84,8.56-8.56,8.56s-8.56-3.84-8.56-8.56
		c0-1.85,0.59-3.59,1.62-5.02c0-6.14,0.27-18.27,2.21-28.05l-3.87-9.44c-6.93-16.91-6.21-35.89,1.97-52.1
		c6.88-13.64,18.35-23.88,31.92-28.71l-0.23-2.85c-6.57-1.17-13.27-5.13-17.86-10.75c-4.48-5.48-6.24-11.68-4.81-17
		c1.05-3.92,3.69-6.95,7.48-8.62c-2.61-5.3-2.99-10.71-1.02-15.04c1.34-2.95,3.64-5.14,6.6-6.35c-1.1-3.61-0.99-7.15,0.37-10.14
		c1.52-3.33,4.51-5.67,8.22-6.41c0.86-0.17,1.76-0.26,2.67-0.26c1.24,0,2.51,0.16,3.8,0.48c0,0,0-0.01,0-0.01
		C81.65,8.66,86.72,4,92.63,4c2.21,0,4.41,0.68,6.35,1.98c3.12,2.09,5.41,5.68,6.57,9.9c1.29-0.32,2.57-0.48,3.81-0.48
		c0.91,0,1.81,0.09,2.67,0.26c3.71,0.74,6.71,3.08,8.22,6.41c1.36,2.99,1.47,6.54,0.37,10.14c2.96,1.2,5.26,3.39,6.6,6.35
		c2.12,4.66,1.52,10.55-1.64,16.23c2.63,1.76,4.48,4.32,5.32,7.44c1.42,5.32-0.33,11.52-4.81,17c-4.21,5.14-10.21,8.91-16.26,10.4
		l-0.29,2.77c13.83,4.54,25.59,14.64,32.75,28.32c3.96,7.56,6.27,15.74,6.93,24.04l15.47-37.74c4.38-10.69,14.28-17.33,25.83-17.33
		s21.45,6.64,25.83,17.33l26.21,63.95c0.24,0.58,0.46,1.16,0.68,1.74c3.42-4.53,6.86-9.78,9.6-14.32c-0.24-2.48,0.59-5.03,2.45-6.89
		c1.62-1.62,3.77-2.51,6.05-2.51c2.29,0,4.44,0.89,6.05,2.51c3.34,3.34,3.34,8.77,0,12.11c-0.62,0.62-1.33,1.14-2.09,1.54
		c-3.81,6.36-11.08,17.73-18.22,24.81c2,25.23-11.45,49.28-33.17,59.65c0.48,0.97,0.77,2.04,0.85,3.15
		c0.15,1.94-0.36,3.83-1.43,5.42l-0.03,6.22c19.6,2.96,27.03,6.82,27.03,13.68c0,7.4-8.63,11.29-31.86,14.36
		C190.97,294.73,167.77,296,143.14,296z M85.98,262.75c4.78-0.5,9.89-0.93,15.28-1.3l0.01-3.22c-0.85-1.23-1.36-2.67-1.47-4.2
		c0-0.02,0-0.04,0-0.06c-2.31,0.6-4.71,0.91-7.16,0.91c-1.76,0-3.5-0.16-5.2-0.47c-0.16,1.39-0.66,2.7-1.44,3.82L85.98,262.75z
		 M183.85,261.38c5.38,0.35,10.49,0.77,15.27,1.25l0.02-4.4c-0.79-1.15-1.27-2.47-1.43-3.81c-2.39,0.32-4.8,0.48-7.22,0.48
		c-1.74,0-3.48-0.08-5.22-0.25c-0.19,1.31-0.68,2.53-1.41,3.6L183.85,261.38z M115.43,260.69c8.95-0.37,18.25-0.56,27.71-0.56
		c9.05,0,17.96,0.17,26.55,0.51l0.01-2.48c-0.93-1.38-1.45-3.03-1.45-4.77c0-1.06,0.19-2.08,0.55-3.03
		c-19.31-8.49-33.04-28.25-34.86-50.43c-0.02-0.01-0.04-0.02-0.05-0.03l-15.44,37.67c-0.79,1.93-1.78,3.75-2.94,5.44l-0.02,5.66
		c0.8,1.2,1.28,2.6,1.39,4.08c0.15,1.94-0.36,3.83-1.43,5.42L115.43,260.69z"/>
	<ellipse class="st0" cx="142.08" cy="279.12" rx="91.29" ry="12.05"/>
	<g>
		<g>
			<path class="st1" d="M163.42,195.91c-1.35-0.35-33.21-8.71-38.25-17.83c-0.77-1.4-0.95-2.79-0.52-4.13l2.28,0.73
				c-0.22,0.7-0.11,1.44,0.34,2.25c3.77,6.83,27.81,14.35,36.76,16.68L163.42,195.91z"/>
		</g>
		<g>
			<circle class="st1" cx="164.03" cy="194.67" r="2.67"/>
		</g>
	</g>
	<g>
		<path class="st1" d="M47.11,215.46c-0.03-1.4-0.73-34.33,6.67-41.67c1.14-1.13,2.41-1.69,3.83-1.63l-0.08,2.39
			c-0.74-0.03-1.41,0.28-2.07,0.94c-5.54,5.5-6.19,30.68-5.97,39.92L47.11,215.46z"/>
	</g>
	<path class="st0" d="M119.51,59.86c-1.57-0.6-3.37-0.79-5.27-0.65c1.95-1.68,3.68-3.72,5-6.01c4.05-7.06,2.54-13.73-3.36-14.91
		c-2.14-0.43-4.56-0.06-6.98,0.9c1.42-1.3,2.68-2.83,3.66-4.53c3.3-5.76,2.08-11.21-2.74-12.17c-3.25-0.65-7.31,0.92-10.61,3.78
		c0.92-5.79-0.95-11.92-4.55-14.33c-4-2.67-8.63,0.25-10.33,6.53c-0.7,2.56-0.79,5.29-0.39,7.8c-3.31-2.86-7.36-4.43-10.61-3.78
		c-4.82,0.96-6.04,6.41-2.74,12.17c0.97,1.7,2.24,3.23,3.66,4.53c-2.41-0.96-4.84-1.33-6.98-0.9c-5.9,1.18-7.41,7.85-3.36,14.91
		c1.49,2.6,3.52,4.88,5.79,6.67c-3.19-0.89-6.31-0.97-8.85-0.01c-6.15,2.33-6.58,9.8-0.94,16.68c4.89,5.98,12.74,9.55,18.76,8.86
		l2.91,35.66H99.7l3.67-35.58c5.74-0.06,12.63-3.49,17.09-8.94C126.09,69.66,125.67,62.19,119.51,59.86z"/>
	<g>
		<path class="st1" d="M232.79,192.16c-0.95,0-1.82-0.25-2.6-0.75l1.28-2.01c0.62,0.39,1.36,0.48,2.26,0.25
			c7.57-1.9,20.97-23.23,25.49-31.29l2.08,1.17c-0.68,1.22-16.89,29.9-26.99,32.44C233.78,192.09,233.27,192.16,232.79,192.16z"/>
	</g>
	<g>
		<circle class="st1" cx="260.26" cy="158.61" r="2.67"/>
	</g>
	<g>
		<g>
			<path class="st1" d="M120.89,191.69l-0.02-2.39c9.24-0.07,34.39-1.49,39.71-7.19c0.63-0.68,0.92-1.37,0.88-2.1l2.38-0.15
				c0.09,1.4-0.42,2.71-1.51,3.88C155.23,191.36,122.29,191.68,120.89,191.69z"/>
		</g>
		<g>
			<circle class="st1" cx="120.6" cy="190.34" r="2.67"/>
		</g>
	</g>
	<g>
		
			<rect x="152.65" y="252.18" transform="matrix(3.824064e-03 -1 1 3.824064e-03 -78.2885 428.1502)" class="st1" width="46.2" height="2.39"/>
	</g>
	<g>
		
			<rect x="182.09" y="252.18" transform="matrix(3.824064e-03 -1 1 3.824064e-03 -48.9578 457.5932)" class="st1" width="46.2" height="2.39"/>
	</g>
	<g>
		<path class="st4" d="M169.06,110.31c7.47-18.23,33.28-18.23,40.75,0l18.45,45.02l7.76,18.93c14.66,35.77-9.95,75.81-46.58,75.81h0
			h0c-36.64,0-61.24-40.04-46.58-75.81l7.76-18.93L169.06,110.31z"/>
	</g>
	<g>
		
			<rect x="54.78" y="252.18" transform="matrix(3.824064e-03 -1 1 3.824064e-03 -175.7852 330.2799)" class="st1" width="46.2" height="2.39"/>
	</g>
	<g>
		
			<rect x="84.22" y="252.18" transform="matrix(3.824064e-03 -1 1 3.824064e-03 -146.4551 359.7224)" class="st1" width="46.2" height="2.39"/>
	</g>
	<g>
		<path class="st2" d="M111.94,236.4c-7.47,18.23-33.28,18.23-40.75,0l-18.45-45.02l-7.76-18.93
			c-14.66-35.77,9.95-75.81,46.58-75.81h0h0c36.64,0,61.24,40.04,46.58,75.81l-7.76,18.93L111.94,236.4z"/>
	</g>
	<g>
		<path class="st5" d="M123.79,157.32c-8.04-0.49-16.11-0.49-24.15,0c-1.86,0.11-3.49-1.27-3.64-3.13c-0.02-0.27-0.04-0.53-0.06-0.8
			c-0.15-1.86,1.3-3.49,3.24-3.61c8.35-0.51,16.72-0.51,25.07,0c1.94,0.12,3.39,1.75,3.24,3.61c-0.02,0.27-0.04,0.53-0.06,0.8
			C127.28,156.05,125.65,157.44,123.79,157.32z"/>
	</g>
	<g>
		<path class="st5" d="M82.58,175.48c-6.35-0.37-12.71-0.37-19.06,0c-1.86,0.11-3.49-1.28-3.64-3.14c-0.02-0.27-0.04-0.53-0.06-0.8
			c-0.15-1.86,1.31-3.5,3.26-3.61c6.64-0.39,13.29-0.39,19.93,0c1.96,0.11,3.42,1.75,3.26,3.61c-0.02,0.27-0.04,0.53-0.06,0.8
			C86.07,174.2,84.44,175.59,82.58,175.48z"/>
	</g>
	<g>
		<path class="st5" d="M106.27,203.25c-3.65-0.18-7.3-0.18-10.95,0c-1.85,0.09-3.48-1.29-3.64-3.15c-0.02-0.27-0.04-0.53-0.06-0.8
			c-0.16-1.86,1.34-3.5,3.34-3.6c3.89-0.19,7.79-0.19,11.68,0c2,0.1,3.49,1.74,3.34,3.6c-0.02,0.27-0.04,0.53-0.06,0.8
			C109.75,201.95,108.12,203.34,106.27,203.25z"/>
	</g>
	<g>
		<path class="st5" d="M99.64,230.04c-5.12-0.28-10.26-0.28-15.39,0c-1.86,0.1-3.48-1.28-3.64-3.14c-0.02-0.27-0.04-0.53-0.06-0.8
			c-0.15-1.86,1.32-3.5,3.29-3.6c5.4-0.29,10.81-0.29,16.21,0c1.97,0.11,3.44,1.75,3.29,3.6c-0.02,0.27-0.04,0.53-0.06,0.8
			C103.12,228.76,101.5,230.15,99.64,230.04z"/>
	</g>
	<g>
		<path class="st5" d="M90.28,131.01c-10.57-0.69-21.18-0.69-31.75,0c-1.86,0.12-3.49-1.27-3.64-3.12c-0.02-0.27-0.04-0.53-0.06-0.8
			c-0.15-1.86,1.29-3.49,3.21-3.62c10.9-0.71,21.83-0.71,32.73,0c1.93,0.12,3.36,1.76,3.21,3.62c-0.02,0.27-0.04,0.53-0.06,0.8
			C93.77,129.74,92.14,131.13,90.28,131.01z"/>
	</g>
	<ellipse class="st6" cx="66.48" cy="170.09" rx="8.05" ry="4.5"/>
	<ellipse class="st6" cx="119.1" cy="170.09" rx="8.05" ry="4.5"/>
	<g>
		<circle class="st1" cx="75.81" cy="154.65" r="8.03"/>
		<circle class="st3" cx="77.42" cy="151.87" r="3.52"/>
		<circle class="st1" cx="107.32" cy="154.65" r="8.03"/>
		<circle class="st3" cx="108.16" cy="151.87" r="3.52"/>
	</g>
	<g>
		<circle class="st1" cx="48.13" cy="217.19" r="2.67"/>
	</g>
	<g>
		<circle class="st1" cx="77.88" cy="254.45" r="2.67"/>
	</g>
	<g>
		<ellipse class="st1" cx="75.81" cy="276.72" rx="4.33" ry="3.04"/>
	</g>
	<g>
		<ellipse class="st1" cx="109.41" cy="276.72" rx="4.33" ry="3.04"/>
	</g>
	<g>
		<circle class="st1" cx="107.28" cy="254.45" r="2.67"/>
	</g>
	<path class="st1" d="M101.95,176.43c-5.96,5.1-14.8,5.1-20.76,0c-0.64-0.54-0.75-1.39-0.3-1.81l0,0c0.45-0.42,1.21-0.34,1.74,0.11
		c5.13,4.39,12.74,4.39,17.87,0c0.53-0.45,1.3-0.54,1.74-0.11c0,0,0,0,0,0C102.7,175.05,102.58,175.89,101.95,176.43z"/>
	<path class="st1" d="M199.82,174.82c-5.96,5.1-14.8,5.1-20.76,0c-0.64-0.54-0.75-1.39-0.3-1.81c0,0,0,0,0,0
		c0.45-0.42,1.21-0.34,1.74,0.11c5.13,4.39,12.74,4.39,17.87,0c0.53-0.45,1.3-0.54,1.74-0.11c0,0,0,0,0,0
		C200.57,173.43,200.45,174.28,199.82,174.82z"/>
	<g>
		<circle class="st1" cx="175.75" cy="254.45" r="2.67"/>
	</g>
	<g>
		<ellipse class="st1" cx="173.68" cy="276.72" rx="4.33" ry="3.04"/>
	</g>
	<g>
		<ellipse class="st1" cx="207.29" cy="276.72" rx="4.33" ry="3.04"/>
	</g>
	<g>
		<circle class="st1" cx="205.15" cy="254.45" r="2.67"/>
	</g>
	<g>
		<circle class="st1" cx="48.13" cy="217.19" r="2.67"/>
	</g>
	<ellipse class="st7" cx="198.46" cy="116.71" rx="6.73" ry="4.97"/>
	<ellipse class="st7" cx="208.92" cy="227.68" rx="6.73" ry="4.97"/>
	<ellipse class="st7" cx="174.16" cy="195.9" rx="5.12" ry="3.78"/>
	<ellipse class="st7" cx="165.6" cy="225.06" rx="5.12" ry="3.78"/>
	<ellipse class="st7" cx="224.36" cy="195.42" rx="3.51" ry="2.54"/>
	<ellipse class="st7" cx="152.87" cy="183.09" rx="3.51" ry="2.54"/>
	<ellipse class="st7" cx="179.56" cy="135.29" rx="3.51" ry="2.54"/>
	<g>
		<g>
			<path class="st1" d="M215.08,155.27c-4.21-4.95-11.43-6.09-16.97-2.7c-0.59,0.36-0.79,1.04-0.48,1.44c0,0,0,0,0,0
				c0.31,0.4,0.95,0.43,1.44,0.13c4.76-2.92,10.98-1.94,14.6,2.32c0.38,0.44,0.99,0.61,1.41,0.32l0,0
				C215.51,156.5,215.53,155.8,215.08,155.27z"/>
			<path class="st1" d="M214.61,157.77c-0.56,0-1.15-0.26-1.57-0.76c-3.33-3.92-9.15-4.84-13.53-2.15
				c-0.88,0.54-1.97,0.39-2.54-0.33c-0.27-0.35-0.38-0.8-0.29-1.27c0.1-0.56,0.47-1.07,1-1.4c5.84-3.58,13.6-2.35,18.04,2.87
				c0.4,0.47,0.59,1.07,0.51,1.64c-0.06,0.47-0.3,0.87-0.67,1.12C215.27,157.68,214.94,157.77,214.61,157.77z M204.98,151.65
				c3.5,0,6.96,1.48,9.34,4.27c0.09,0.1,0.19,0.15,0.25,0.16c-0.01-0.07-0.04-0.17-0.13-0.27l0,0c-3.91-4.6-10.75-5.68-15.89-2.53
				c-0.12,0.07-0.18,0.16-0.21,0.22c0.07,0.01,0.18-0.01,0.29-0.08C200.59,152.23,202.79,151.65,204.98,151.65z"/>
		</g>
		<g>
			<path class="st1" d="M163.8,155.27c4.21-4.95,11.43-6.09,16.97-2.7c0.59,0.36,0.79,1.04,0.48,1.44c0,0,0,0,0,0
				c-0.31,0.4-0.95,0.43-1.44,0.13c-4.76-2.92-10.98-1.94-14.6,2.32c-0.38,0.44-0.99,0.61-1.41,0.32l0,0
				C163.37,156.5,163.35,155.8,163.8,155.27z"/>
			<path class="st1" d="M164.27,157.77c-0.34,0-0.66-0.09-0.95-0.29c-0.37-0.25-0.61-0.65-0.67-1.12c-0.08-0.57,0.11-1.16,0.51-1.64
				l0,0c4.44-5.22,12.2-6.45,18.04-2.87c0.53,0.32,0.89,0.83,1,1.4c0.09,0.47-0.02,0.92-0.29,1.27c-0.57,0.73-1.66,0.87-2.54,0.33
				c-4.38-2.69-10.2-1.76-13.53,2.15C165.42,157.5,164.83,157.77,164.27,157.77z M173.9,151.49c-3.54,0-7.06,1.5-9.46,4.33l0,0
				c-0.09,0.11-0.12,0.21-0.13,0.27c0.06-0.01,0.17-0.06,0.26-0.17c3.86-4.54,10.6-5.61,15.68-2.49c0.12,0.07,0.23,0.09,0.29,0.08
				c-0.03-0.06-0.09-0.15-0.21-0.22C178.35,152.07,176.12,151.49,173.9,151.49z"/>
		</g>
	</g>
	<circle class="st7" cx="164.09" cy="164.32" r="0.71"/>
	<circle class="st7" cx="161.8" cy="166.28" r="0.71"/>
	<circle class="st7" cx="159.4" cy="165.48" r="0.71"/>
	<circle class="st7" cx="157.11" cy="167.44" r="0.71"/>
	<circle class="st7" cx="172.26" cy="164.31" r="0.71"/>
	<circle class="st7" cx="169.97" cy="166.27" r="0.71"/>
	<circle class="st7" cx="167.57" cy="165.47" r="0.71"/>
	<circle class="st7" cx="165.28" cy="167.43" r="0.71"/>
	<circle class="st7" cx="175.98" cy="165.48" r="0.71"/>
	<circle class="st7" cx="173.69" cy="167.44" r="0.71"/>
	<circle class="st7" cx="212.09" cy="164.32" r="0.71"/>
	<circle class="st7" cx="214.38" cy="166.28" r="0.71"/>
	<circle class="st7" cx="216.78" cy="165.48" r="0.71"/>
	<circle class="st7" cx="219.07" cy="167.44" r="0.71"/>
	<circle class="st7" cx="203.91" cy="164.31" r="0.71"/>
	<circle class="st7" cx="206.2" cy="166.27" r="0.71"/>
	<circle class="st7" cx="208.6" cy="165.47" r="0.71"/>
	<circle class="st7" cx="210.89" cy="167.43" r="0.71"/>
	<circle class="st7" cx="200.19" cy="165.48" r="0.71"/>
	<circle class="st7" cx="202.48" cy="167.44" r="0.71"/>
</g>
</svg>
