<?xml version="1.0" encoding="utf-8"?>
<!-- Generator: Adobe Illustrator 23.0.1, SVG Export Plug-In . SVG Version: 6.00 Build 0)  -->
<svg version="1.1" id="Layer_1" xmlns="http://www.w3.org/2000/svg" xmlns:xlink="http://www.w3.org/1999/xlink" x="0px" y="0px"
	 viewBox="0 0 230 230" style="enable-background:new 0 0 230 230;" xml:space="preserve">
<style type="text/css">
	.st0{fill:#F6EC8B;}
	.st1{fill:#FFFFFF;}
	.st2{fill:#B08774;}
	.st3{fill:#CDA18B;}
	.st4{fill:#C59A88;}
	.st5{fill:#9A9CA2;}
	.st6{fill:#F2F2F2;}
	.st7{fill:#8CCBEB;}
	.st8{fill:#C0272D;}
	.st9{fill:#754D24;}
	.st10{fill:#A67D52;}
	.st11{fill:#69BC45;}
	.st12{fill:#579943;}
	.st13{fill:#E87200;}
	.st14{fill:#C05B28;}
	.st15{fill:#80BC41;}
	.st16{fill:#666667;}
	.st17{font-family:'Roboto-Medium';}
	.st18{font-size:1.9973px;}
	.st19{fill:#8C6378;}
	.st20{fill:#CBB8C0;}
	.st21{fill:#587D38;}
	.st22{fill:#A0B43A;}
	.st23{fill:#ACBD37;}
	.st24{fill:#85B040;}
	.st25{fill:#E37839;}
	.st26{fill:#EA442D;}
	.st27{fill:#EBDBCD;}
	.st28{fill:#984D22;}
	.st29{fill:#C9D661;}
	.st30{fill:#4D4E4E;}
	.st31{fill:#C1C0C0;}
	.st32{fill:none;}
	.st33{fill:#7FC146;}
	.st34{fill:#F0D0B3;}
	.st35{fill:#CCCBCB;}
</style>
<g>
	<g>
		<path class="st0" d="M213.91,115c0,54.63-44.28,98.91-98.91,98.91c-2.23,0-4.44-0.07-6.63-0.22c-7.68-0.51-15.11-1.89-22.21-4.06
			c-8.63-2.62-16.75-6.39-24.21-11.14c-0.4-0.25-0.79-0.51-1.18-0.77C33.86,180.06,16.09,149.61,16.09,115
			c0-48.39,34.74-88.66,80.64-97.23c4.53-0.85,9.17-1.38,13.89-1.59c1.46-0.07,2.92-0.1,4.39-0.1c1.47,0,2.93,0.03,4.39,0.1
			c15.06,0.66,29.25,4.68,41.84,11.34C192.56,44.12,213.91,77.07,213.91,115z"/>
		<path class="st1" d="M115,16.09c1.47,0,2.93,0.03,4.39,0.1c15.06,0.66,29.25,4.68,41.84,11.34c31.34,16.6,52.69,49.54,52.69,87.47
			c0,54.63-44.28,98.91-98.91,98.91c-2.23,0-4.44-0.07-6.63-0.22c-7.68-0.51-15.11-1.89-22.21-4.06
			c-8.63-2.62-16.75-6.39-24.21-11.14c-0.4-0.25-0.79-0.51-1.18-0.77C33.86,180.06,16.09,149.61,16.09,115
			c0-48.39,34.74-88.66,80.64-97.23c4.53-0.85,9.17-1.38,13.89-1.59C112.07,16.12,113.53,16.09,115,16.09 M115,4
			c-1.69,0-3.35,0.04-4.94,0.11c-5.2,0.23-10.44,0.83-15.56,1.78C42.06,15.68,4,61.57,4,115c0,37.49,18.73,72.18,50.09,92.8
			c0.41,0.27,0.85,0.56,1.37,0.89c8.46,5.39,17.61,9.6,27.18,12.51c8.07,2.46,16.46,3.99,24.93,4.55c2.45,0.16,4.95,0.24,7.43,0.24
			c14.98,0,29.52-2.94,43.21-8.73c13.22-5.59,25.09-13.59,35.28-23.78c10.19-10.19,18.19-22.06,23.78-35.28
			c5.79-13.69,8.73-28.23,8.73-43.21c0-41.23-22.65-78.84-59.12-98.15c-14.6-7.73-30.4-12.01-46.96-12.74
			C118.35,4.04,116.69,4,115,4L115,4z"/>
	</g>
	<path class="st2" d="M155.34,116.32c-0.04,0.26-0.1,0.47-0.19,0.62c-0.96,1.79-2.31,4.41-3.95,7.58c-0.04,0.08-0.08,0.16-0.13,0.25
		c-0.01,0.01-0.01,0.02-0.02,0.04c-0.02,0.04-0.04,0.07-0.05,0.11c-0.12,0.23-0.24,0.46-0.36,0.7c-0.05,0.1-0.1,0.2-0.16,0.3
		c-0.02,0.04-0.04,0.07-0.05,0.11c-2.34,4.53-5.17,10.01-8.24,15.76c-0.26,0.48-0.51,0.96-0.77,1.44
		c-8.79,16.38-19.33,34.5-25.84,39.18c0,0-3.67,16.66-7.2,31.28c-7.68-0.51-15.11-1.89-22.21-4.06
		c-8.63-2.62-16.75-6.39-24.21-11.14c5.53-10.93,10.7-23.09,14.5-35.31c0.82-2.62,1.47-5.58,2-8.76c0.34-2.01,0.62-4.1,0.86-6.24
		c0.47-4.11,0.77-8.44,0.97-12.78c0-0.01,0-0.01,0-0.01c0.06-1.32,0.11-2.65,0.16-3.98c0.45-13.72,0.04-27.02,0.48-33.62
		c0.34-5.05,6.26-11.07,14.11-17.08c0.23-0.18,0.47-0.36,0.7-0.53c1.64-1.24,3.35-2.47,5.11-3.69c0.02-0.02,0.04-0.03,0.07-0.04
		c0.18-0.13,0.36-0.25,0.54-0.37c0.02-0.01,0.04-0.02,0.06-0.04c0,0,0,0,0.01,0c0.22-0.16,0.45-0.31,0.67-0.47
		c0.79-0.54,1.59-1.08,2.39-1.61c0.05-0.03,0.09-0.06,0.14-0.09c0.88-0.59,1.75-1.16,2.64-1.73c1.29-0.83,2.58-1.66,3.87-2.48
		c0.01-0.01,0.03-0.02,0.04-0.03h0.01c0.05-0.04,0.11-0.07,0.16-0.11c0.01-0.01,0.02-0.02,0.04-0.02c0.06-0.04,0.12-0.07,0.18-0.11
		c0.01,0,0.01-0.01,0.01-0.01c2.14-1.35,4.25-2.66,6.29-3.92c0.04-0.02,0.08-0.05,0.11-0.07c0.8-0.5,1.58-0.98,2.35-1.46
		c1.23-0.76,2.46-1.21,3.69-1.4c0.05-0.01,0.11-0.01,0.17-0.02c0.12-0.02,0.24-0.03,0.36-0.04c0.13-0.01,0.26-0.02,0.39-0.02
		c2.53-0.1,5.02,0.94,7.43,2.78c0.07,0.05,0.13,0.1,0.19,0.15c0.01,0.01,0.01,0.01,0.01,0.01c0.03,0.02,0.06,0.05,0.09,0.07
		c1.38,1.1,2.74,2.47,4.06,4.04c0.02,0.02,0.03,0.03,0.04,0.05l0.01,0.01c0.03,0.04,0.06,0.07,0.09,0.11
		c0.65,0.78,1.28,1.61,1.91,2.48c0.4,0.56,0.8,1.14,1.19,1.73c0.02,0.03,0.04,0.06,0.06,0.09c0.85,1.28,1.68,2.64,2.48,4.05
		c0.03,0.05,0.07,0.11,0.1,0.17c0.28,0.5,0.56,1.01,0.84,1.52c0.04,0.07,0.07,0.14,0.11,0.21c0.34,0.65,0.68,1.29,1.02,1.95
		c0.04,0.08,0.08,0.16,0.13,0.25c0,0.01,0.01,0.01,0.01,0.02c0.01-0.01,0.01-0.01,0.01,0c0.04,0.08,0.08,0.16,0.12,0.25
		c0.02,0.04,0.03,0.07,0.05,0.1c0.05,0.09,0.1,0.19,0.14,0.28c0.6,1.21,1.18,2.44,1.73,3.68c0.05,0.13,0.11,0.25,0.17,0.37
		c2.18,4.9,4.02,9.93,5.43,14.46c0.01,0.04,0.02,0.08,0.03,0.11c0.01,0.04,0.02,0.07,0.04,0.11c0.04,0.14,0.08,0.28,0.13,0.42
		c0.01,0.04,0.02,0.07,0.04,0.11c0.01,0.04,0.02,0.07,0.03,0.11c0.12,0.39,0.23,0.77,0.34,1.15c0.07,0.24,0.14,0.48,0.21,0.72
		c1.16,4.09,1.89,7.6,2.1,9.98C155.43,114.98,155.43,115.77,155.34,116.32z"/>
	<path class="st3" d="M143.8,56.85c5.88-4.36,11.8-8.74,18.31-12.09c2.75-1.41,6.22-2.59,8.78-0.85c1.92,1.31,2.15,3.94,1.68,6.21
		c-0.47,2.27-1.87,4.24-3.41,5.97c-5.06,5.7-11.79,9.61-18.44,13.31L143.8,56.85z"/>
	<path class="st3" d="M157.03,86.4c6.31,9.43,17.32,14.6,22.48,5.26c0,0-8.83-8.66-12.73-13.31c-0.79-0.94-14.98-4.79-14.98-4.79
		L157.03,86.4z"/>
	<path class="st4" d="M157.81,118.79c0.16,1.84,0.62,5.09,0.78,6.93c0.32,3.67,0.73,7.59,3.1,10.4c1.48,1.75,3.58,2.88,5.76,3.58
		c1.09,0.35,2.3,0.59,3.41,0.43c0.91-0.13,1.49-1.06,1.23-1.94c-1.08-3.72-4.44-15.48-5.78-18.34L157.81,118.79z"/>
	<path class="st3" d="M161.22,112.21c-0.59,7.81,4.64,14.17,10.09,14.57c1.21,0.09,2.52,0,1.82-2.23
		c-0.75-2.38-1.35-17.27-1.79-21.29c-0.06-0.51-0.13-1.03-0.39-1.47c-0.25-0.42-0.65-0.72-1.04-1.02c-3.14-2.37-6.29-4.74-9.43-7.11
		C160.47,93.66,161.41,109.82,161.22,112.21z"/>
	<path class="st1" d="M161.22,27.53v109.89c0,2.41-1.95,4.37-4.36,4.37H100.1c-2.41,0-4.37-1.96-4.37-4.37V20.55
		c0-1.05,0.37-2.02,1-2.78c4.53-0.85,9.17-1.38,13.89-1.59h8.78C134.45,16.84,148.64,20.87,161.22,27.53z"/>
	<rect x="101.51" y="29.08" class="st1" width="53.94" height="95.44"/>
	<ellipse class="st5" cx="128.48" cy="132.94" rx="5.35" ry="5.35"/>
	<rect x="101.44" y="29.05" class="st6" width="53.99" height="95.88"/>
	<rect x="101.44" y="43.26" class="st7" width="53.99" height="26.25"/>
	<polygon class="st8" points="144.29,59.23 137.13,59.23 137.13,55.01 137.89,52.22 140.71,51.14 140.71,51.14 143.54,52.22 
		144.29,54.99 	"/>
	<polygon class="st9" points="137.09,55.74 136.75,55.64 137.77,52.09 140.71,50.95 143.73,52.09 144.61,55.58 144.26,55.67 
		143.43,52.36 140.71,51.33 138.07,52.36 	"/>
	<g>
		<rect x="139.89" y="52.66" class="st1" width="1.57" height="1.3"/>
		<path class="st9" d="M141.63,54.12h-1.9v-1.63h1.9V54.12z M140.06,53.79h1.24v-0.97h-1.24V53.79z"/>
	</g>
	<rect x="138.39" y="55.62" class="st9" width="4.58" height="3.61"/>
	<rect x="138.67" y="55.91" class="st10" width="4.01" height="3.32"/>
	
		<rect x="140.47" y="54.73" transform="matrix(0.6046 -0.7965 0.7965 0.6046 9.8612 134.7568)" class="st9" width="0.38" height="5.44"/>
	
		<rect x="138.02" y="57.24" transform="matrix(0.7958 -0.6055 0.6055 0.7958 -6.0588 96.8871)" class="st9" width="5.25" height="0.38"/>
	<path class="st8" d="M123.32,66.45"/>
	<rect x="155.21" y="59.9" class="st11" width="0.22" height="9.65"/>
	<g>
		<ellipse class="st1" cx="123.02" cy="54.11" rx="1.63" ry="1.65"/>
		<ellipse class="st1" cx="122.21" cy="55.76" rx="1.63" ry="1.65"/>
		
			<ellipse transform="matrix(0.7071 -0.7071 0.7071 0.7071 -3.7409 104.143)" class="st1" cx="123.84" cy="56.59" rx="1.63" ry="1.65"/>
		<ellipse class="st1" cx="125.1" cy="54.11" rx="1.63" ry="1.65"/>
	</g>
	<g>
		<ellipse class="st1" cx="146.63" cy="48.19" rx="1.92" ry="1.94"/>
		<ellipse class="st1" cx="144.91" cy="49.49" rx="1.92" ry="1.94"/>
		<ellipse class="st1" cx="146.2" cy="51.22" rx="1.92" ry="1.94"/>
		<ellipse class="st1" cx="147.67" cy="50.92" rx="1.92" ry="1.94"/>
	</g>
	<g>
		<ellipse class="st1" cx="106.82" cy="50.53" rx="2.05" ry="2.06"/>
		<ellipse class="st1" cx="106.07" cy="53.23" rx="2.32" ry="2.34"/>
		<ellipse class="st1" cx="109.02" cy="52.49" rx="2.32" ry="2.34"/>
		<ellipse class="st1" cx="110.08" cy="50.15" rx="2.32" ry="2.34"/>
	</g>
	<path class="st11" d="M155.21,59.79c0,0-16.09-3.99-28.19-0.22s-15.46,9.99-15.46,9.99h43.64
		C155.2,69.56,155.11,59.71,155.21,59.79z"/>
	<path class="st12" d="M102.65,69.66c0,0,6.38-7.55,17.7-7.55s17.59,7.43,17.59,7.43L102.65,69.66z"/>
	<path class="st11" d="M101.44,69.51c0,0,6.27-7.55,17.59-7.55s17.7,7.54,17.7,7.54L101.44,69.51z"/>
	<rect x="101.44" y="38.26" class="st13" width="53.99" height="5.88"/>
	<rect x="101.44" y="29.05" class="st13" width="53.99" height="9.32"/>
	<rect x="101.44" y="38.37" class="st14" width="53.99" height="0.44"/>
	<path class="st1" d="M113.38,31.95c-0.01,0.16-0.14,0.28-0.29,0.3c-0.05,0-0.09,0.01-0.13,0.03c-0.05,0.03-0.08,0.06-0.11,0.1
		c-0.03,0.04-0.04,0.09-0.05,0.15c-0.01,0.05-0.01,0.11-0.01,0.16v0.19c0,0.03,0.02,0.05,0.05,0.05h0.11c0.16,0,0.29,0.13,0.29,0.29
		l0,0c0,0.16-0.13,0.29-0.29,0.29h-0.11c-0.03,0-0.05,0.02-0.05,0.05v1.37c0,0.22-0.18,0.4-0.39,0.4l0,0c-0.22,0-0.39-0.18-0.39-0.4
		v-1.37c0-0.03-0.02-0.05-0.05-0.05h0c-0.16,0-0.29-0.13-0.29-0.29l0,0c0-0.16,0.13-0.29,0.29-0.29l0,0c0.03,0,0.05-0.02,0.05-0.05
		V32.7c0-0.15,0.02-0.29,0.05-0.42c0.03-0.13,0.09-0.25,0.17-0.35c0.08-0.1,0.18-0.18,0.32-0.24c0.13-0.06,0.3-0.09,0.5-0.09
		c0.01,0,0.03,0,0.04,0C113.26,31.6,113.4,31.76,113.38,31.95L113.38,31.95z"/>
	<path class="st1" d="M114.35,33.29c0.06-0.12,0.15-0.23,0.27-0.3c0.02-0.01,0.04-0.03,0.06-0.04c0.22-0.12,0.49,0.05,0.48,0.31l0,0
		c-0.01,0.16-0.13,0.29-0.29,0.31c-0.06,0.01-0.13,0.02-0.2,0.06c-0.07,0.04-0.13,0.09-0.17,0.14c-0.04,0.05-0.07,0.11-0.09,0.18
		c-0.02,0.06-0.03,0.12-0.03,0.17v0.84c0,0.22-0.18,0.4-0.39,0.4l0,0c-0.22,0-0.39-0.18-0.39-0.4v-1.66c0-0.19,0.15-0.35,0.34-0.35
		h0.07C114.2,32.94,114.35,33.09,114.35,33.29L114.35,33.29z"/>
	<path class="st1" d="M117.51,34.36h-1.29c-0.05,0-0.09,0.05-0.07,0.1c0.01,0.03,0.02,0.06,0.04,0.08c0.03,0.05,0.08,0.1,0.13,0.14
		c0.05,0.04,0.11,0.07,0.18,0.09c0.07,0.02,0.13,0.03,0.2,0.03c0.12,0,0.23-0.02,0.32-0.07c0.02-0.01,0.05-0.03,0.07-0.04
		c0.1-0.07,0.24-0.07,0.35-0.01v0c0.2,0.13,0.19,0.42-0.01,0.55c-0.03,0.02-0.06,0.03-0.09,0.05c-0.18,0.09-0.4,0.13-0.64,0.13
		c-0.18,0-0.35-0.03-0.51-0.08c-0.16-0.06-0.3-0.14-0.42-0.25c-0.12-0.11-0.21-0.24-0.28-0.4c-0.07-0.16-0.1-0.34-0.1-0.54
		c0-0.2,0.03-0.37,0.1-0.53c0.07-0.16,0.16-0.29,0.27-0.41c0.11-0.11,0.25-0.2,0.41-0.26c0.16-0.06,0.33-0.09,0.51-0.09
		c0.18,0,0.34,0.03,0.48,0.09c0.15,0.06,0.27,0.15,0.38,0.26c0.11,0.11,0.18,0.25,0.25,0.41c0.04,0.11,0.07,0.25,0.08,0.37
		C117.86,34.19,117.71,34.36,117.51,34.36z M117.05,33.86c0.05,0,0.08-0.04,0.08-0.09c-0.01-0.09-0.05-0.17-0.11-0.24
		c-0.08-0.09-0.2-0.14-0.35-0.14c-0.08,0-0.15,0.01-0.21,0.04c-0.06,0.02-0.12,0.06-0.17,0.1c-0.05,0.04-0.09,0.09-0.11,0.15
		c-0.01,0.03-0.02,0.05-0.03,0.08c-0.01,0.05,0.02,0.1,0.07,0.1H117.05z"/>
	<path class="st1" d="M119.87,33.46c-0.09,0.1-0.24,0.12-0.36,0.06c-0.14-0.07-0.34-0.13-0.52-0.05c-0.06,0.03-0.09,0.08-0.09,0.15
		c0,0.07,0.03,0.12,0.1,0.14c0.07,0.03,0.18,0.06,0.33,0.1c0.09,0.02,0.18,0.05,0.27,0.08c0.09,0.04,0.17,0.08,0.25,0.14
		c0.07,0.06,0.13,0.13,0.18,0.21c0.04,0.08,0.07,0.18,0.07,0.3c0,0.15-0.03,0.28-0.09,0.38c-0.06,0.1-0.14,0.19-0.24,0.25
		c-0.1,0.06-0.21,0.11-0.33,0.14c-0.12,0.03-0.24,0.04-0.36,0.04c-0.19,0-0.39-0.03-0.57-0.09c-0.04-0.01-0.08-0.03-0.12-0.04
		c-0.2-0.09-0.25-0.34-0.1-0.5l0,0c0.1-0.11,0.26-0.13,0.38-0.05c0.02,0.01,0.05,0.03,0.07,0.04c0.1,0.05,0.21,0.08,0.33,0.08
		c0.06,0,0.13-0.02,0.19-0.05c0.06-0.03,0.09-0.08,0.09-0.16c0-0.07-0.04-0.13-0.11-0.16c-0.08-0.04-0.2-0.07-0.36-0.11
		c-0.08-0.02-0.17-0.05-0.25-0.08c-0.08-0.03-0.16-0.08-0.22-0.13c-0.07-0.05-0.12-0.12-0.16-0.2c-0.04-0.08-0.06-0.18-0.06-0.29
		c0-0.14,0.03-0.27,0.09-0.37c0.06-0.1,0.14-0.18,0.23-0.25c0.1-0.06,0.2-0.11,0.32-0.14c0.12-0.03,0.23-0.05,0.35-0.05
		c0.24,0,0.44,0.05,0.6,0.11C119.97,33.05,120.02,33.31,119.87,33.46L119.87,33.46z"/>
	<path class="st1" d="M121.3,33.13c0,0.03,0.04,0.05,0.06,0.02c0.05-0.06,0.12-0.12,0.2-0.17c0.12-0.08,0.26-0.11,0.43-0.11
		c0.16,0,0.3,0.03,0.41,0.09c0.11,0.06,0.2,0.13,0.27,0.22c0.07,0.09,0.12,0.2,0.15,0.32c0.03,0.12,0.05,0.24,0.05,0.36v1.09
		c0,0.22-0.18,0.4-0.39,0.4l0,0c-0.22,0-0.39-0.18-0.39-0.4v-0.91c0-0.07,0-0.13-0.01-0.19c-0.01-0.06-0.03-0.12-0.06-0.16
		c-0.03-0.05-0.06-0.08-0.11-0.11c-0.04-0.03-0.1-0.04-0.17-0.04c-0.14,0-0.24,0.05-0.32,0.15c-0.07,0.1-0.11,0.22-0.11,0.36v0.9
		c0,0.22-0.18,0.4-0.39,0.4l0,0c-0.22,0-0.39-0.18-0.39-0.4v-2.86c0-0.22,0.18-0.4,0.39-0.4l0,0c0.22,0,0.39,0.18,0.39,0.4V33.13z"
		/>
	<path class="st1" d="M125.26,33.48c-0.1,0.12-0.26,0.15-0.4,0.09c-0.06-0.03-0.14-0.05-0.22-0.05c-0.08,0-0.16,0.02-0.23,0.05
		c-0.07,0.03-0.12,0.08-0.17,0.14c-0.05,0.06-0.09,0.12-0.11,0.2c-0.03,0.07-0.04,0.15-0.04,0.24c0,0.08,0.01,0.16,0.04,0.24
		c0.03,0.07,0.06,0.14,0.11,0.2c0.05,0.06,0.11,0.1,0.18,0.13c0.07,0.03,0.15,0.05,0.23,0.05c0.09,0,0.16-0.02,0.23-0.04
		c0.14-0.06,0.3-0.02,0.39,0.1l0,0c0.15,0.18,0.07,0.46-0.15,0.54c-0.13,0.04-0.29,0.07-0.48,0.07c-0.19,0-0.36-0.03-0.53-0.09
		s-0.31-0.14-0.43-0.25c-0.12-0.11-0.22-0.25-0.28-0.4c-0.07-0.16-0.1-0.34-0.1-0.54c0-0.2,0.03-0.37,0.1-0.53
		c0.07-0.16,0.16-0.29,0.28-0.4c0.12-0.11,0.26-0.2,0.43-0.26c0.16-0.06,0.34-0.09,0.52-0.09c0.2,0,0.36,0.03,0.49,0.08
		C125.34,33.02,125.41,33.3,125.26,33.48L125.26,33.48z"/>
	<path class="st1" d="M129.5,33.19c0,0.02,0.03,0.04,0.05,0.02c0.02-0.03,0.05-0.06,0.08-0.09c0.05-0.05,0.1-0.09,0.16-0.13
		c0.06-0.04,0.13-0.06,0.2-0.09c0.07-0.02,0.15-0.03,0.23-0.03c0.16,0,0.3,0.03,0.41,0.09c0.11,0.06,0.2,0.13,0.27,0.22
		c0.07,0.09,0.12,0.2,0.15,0.32c0.03,0.12,0.05,0.24,0.05,0.36v1.09c0,0.22-0.18,0.4-0.39,0.4l0,0c-0.22,0-0.4-0.18-0.4-0.4v-0.92
		c0-0.07-0.01-0.13-0.02-0.19c-0.01-0.06-0.03-0.12-0.06-0.16c-0.03-0.05-0.06-0.08-0.11-0.11c-0.05-0.03-0.1-0.04-0.17-0.04
		c-0.07,0-0.13,0.01-0.18,0.04c-0.05,0.03-0.1,0.07-0.13,0.11c-0.04,0.05-0.06,0.1-0.08,0.17c-0.02,0.06-0.03,0.13-0.03,0.2v0.91
		c0,0.22-0.18,0.4-0.39,0.4l0,0c-0.22,0-0.39-0.18-0.39-0.4v-1.76c0-0.21,0.17-0.38,0.38-0.38l0,0
		C129.33,32.8,129.5,32.97,129.5,33.19L129.5,33.19z"/>
	<path class="st1" d="M128.32,34.05c0-0.19-0.03-0.37-0.1-0.52c-0.07-0.16-0.16-0.29-0.28-0.39c-0.12-0.11-0.26-0.19-0.41-0.25
		c-0.16-0.06-0.33-0.09-0.5-0.09c-0.18,0-0.34,0.03-0.5,0.09c-0.16,0.06-0.3,0.14-0.41,0.25c-0.12,0.11-0.21,0.24-0.28,0.39
		c-0.07,0.16-0.1,0.33-0.1,0.52c0,0.17,0.03,0.33,0.08,0.47l0,0c0.26,0.72,0.93,1.52,0.93,1.52c0.08,0.11,0.17,0.16,0.29,0.16
		c0.13,0,0.22-0.07,0.29-0.16c0,0,0.67-0.81,0.93-1.52l0,0C128.29,34.38,128.32,34.22,128.32,34.05z M127.54,34.28
		c-0.02,0.07-0.06,0.14-0.11,0.2c-0.05,0.06-0.11,0.11-0.17,0.14c-0.07,0.03-0.15,0.05-0.24,0.05c-0.09,0-0.17-0.02-0.24-0.05
		c-0.07-0.03-0.13-0.08-0.17-0.14c-0.05-0.06-0.08-0.12-0.11-0.2c-0.02-0.07-0.04-0.15-0.04-0.22c0-0.08,0.01-0.15,0.04-0.22
		c0.02-0.07,0.06-0.14,0.1-0.19c0.05-0.06,0.1-0.1,0.17-0.14c0.07-0.03,0.15-0.05,0.24-0.05c0.09,0,0.17,0.02,0.24,0.05
		c0.07,0.03,0.13,0.08,0.17,0.14c0.05,0.06,0.08,0.12,0.11,0.19c0.03,0.07,0.04,0.15,0.04,0.22
		C127.57,34.13,127.56,34.2,127.54,34.28z"/>
	<path class="st1" d="M132.28,33.19c0,0.02,0.03,0.04,0.05,0.02c0.02-0.03,0.05-0.06,0.08-0.09c0.05-0.05,0.1-0.09,0.16-0.13
		c0.06-0.04,0.13-0.06,0.2-0.09c0.07-0.02,0.15-0.03,0.23-0.03c0.16,0,0.3,0.03,0.41,0.09c0.11,0.06,0.2,0.13,0.27,0.22
		c0.07,0.09,0.12,0.2,0.15,0.32c0.03,0.12,0.05,0.24,0.05,0.36v1.09c0,0.22-0.18,0.4-0.4,0.4l0,0c-0.22,0-0.4-0.18-0.4-0.4v-0.92
		c0-0.07-0.01-0.13-0.02-0.19c-0.01-0.06-0.03-0.12-0.06-0.16c-0.03-0.05-0.06-0.08-0.11-0.11c-0.05-0.03-0.1-0.04-0.17-0.04
		c-0.07,0-0.13,0.01-0.18,0.04c-0.05,0.03-0.1,0.07-0.13,0.11c-0.04,0.05-0.06,0.1-0.08,0.17c-0.02,0.06-0.03,0.13-0.03,0.2v0.91
		c0,0.22-0.18,0.4-0.39,0.4l0,0c-0.22,0-0.39-0.18-0.39-0.4v-1.76c0-0.21,0.17-0.38,0.38-0.38l0,0
		C132.11,32.8,132.28,32.97,132.28,33.19L132.28,33.19z"/>
	<path class="st15" d="M127.04,31.22c-0.29,0-0.52,0.23-0.52,0.52c0,0.29,0.28,0.88,0.52,0.88s0.52-0.59,0.52-0.88
		C127.56,31.45,127.32,31.22,127.04,31.22z"/>
	<path class="st15" d="M126.2,31.87c-0.08-0.09-0.2-0.13-0.32-0.13c-0.12,0-0.23,0.05-0.32,0.13c-0.18,0.18-0.18,0.46,0,0.64
		c0.13,0.13,0.47,0.27,0.68,0.27c0.07,0,0.13-0.02,0.17-0.05c0.09-0.09,0.04-0.33,0.01-0.42C126.37,32.13,126.28,31.95,126.2,31.87z
		"/>
	<path class="st15" d="M128.51,31.87c-0.08-0.09-0.2-0.13-0.32-0.13c-0.12,0-0.23,0.05-0.32,0.13c-0.08,0.08-0.17,0.26-0.23,0.44
		c-0.03,0.1-0.08,0.33,0.01,0.42c0.04,0.04,0.1,0.05,0.17,0.05c0.22,0,0.55-0.14,0.68-0.27C128.69,32.33,128.69,32.05,128.51,31.87z
		"/>
	<path class="st1" d="M147.69,65.47h-38.5c-0.63,0-1.14-0.51-1.14-1.14v-1.6c0-0.63,0.51-1.14,1.14-1.14h38.5
		c0.63,0,1.14,0.51,1.14,1.14v1.6C148.83,64.96,148.32,65.47,147.69,65.47z"/>
	<text transform="matrix(0.9909 0 0 1 113.6851 64.1157)" class="st16 st17 st18">Search</text>
	<path class="st16" d="M110.89,63.95L110.89,63.95c-0.21,0-0.41-0.08-0.56-0.23c-0.32-0.32-0.3-0.86,0.05-1.21
		c0.17-0.18,0.41-0.28,0.65-0.28c0.21,0,0.41,0.08,0.56,0.23c0.32,0.32,0.3,0.86-0.05,1.21C111.36,63.85,111.12,63.95,110.89,63.95z
		 M111.03,62.56c-0.15,0-0.3,0.07-0.41,0.18c-0.22,0.22-0.24,0.56-0.05,0.75c0.08,0.08,0.2,0.13,0.32,0.13
		c0.15,0,0.3-0.07,0.41-0.18c0.22-0.22,0.24-0.56,0.05-0.75C111.27,62.61,111.15,62.56,111.03,62.56z"/>
	<path class="st16" d="M112.44,64.61L112.44,64.61c-0.07,0.07-0.18,0.07-0.26,0l-0.96-0.97l0.26-0.26l0.96,0.97
		C112.51,64.43,112.51,64.54,112.44,64.61z"/>
	<rect x="101.44" y="73.88" class="st1" width="53.99" height="27.52"/>
	<path class="st19" d="M113.82,86.04c-0.31,0.06-0.64,0.11-0.99,0.14c-1.17,0.1-2.36-0.06-3.54-0.11c-1.45-0.07-2.95,0.23-3.85,1.49
		c-0.78,1.09-0.9,2.66-0.04,3.74c0.93,1.19,2.62,1.47,4.03,1.52c2.76,0.11,5.25-0.45,7.52-2.09c1.4-1.01,2.36-2.35,3.45-3.64
		c0.9-1.06,2-2.69,1.3-4.12c-0.34-0.7-1.14-0.91-1.83-0.7c-1.47,0.45-2.49,1.78-3.68,2.67C115.4,85.53,114.67,85.86,113.82,86.04z"
		/>
	<path class="st20" d="M108.56,88.38c-0.8,0.16-1.52-0.11-1.61-0.6c-0.09-0.49,0.48-1,1.28-1.16c0.8-0.16,1.52,0.11,1.61,0.6
		C109.93,87.71,109.36,88.23,108.56,88.38z"/>
	<path class="st21" d="M120.75,82.9c0.2-1.19,2.44-3.44,2.85-3.57c0.42,0.17,0.92,0.62,1.02,0.86c-0.77,0.49-2.87,2.17-3.25,2.88
		C121.07,82.9,120.75,82.9,120.75,82.9z"/>
	<path class="st22" d="M121.46,82.08c-1.23-0.66-2.65-0.45-3.53,0.66c-0.02,0.01-0.02,0.01,0,0c0.59-0.25,1.27-0.32,1.96-0.27
		C121.31,82.56,121.46,82.08,121.46,82.08z"/>
	<path class="st22" d="M121.17,86.44c0.06-0.65,0.23-1.64,0.21-2.04c-0.02-0.54-0.56-2.31,0.19-2.14c0.81,0.19,0.76,1.83,0.62,2.41
		C122.07,85.15,121.62,85.94,121.17,86.44z"/>
	<path class="st23" d="M120.82,81.93c-0.07,0.84-0.79,1.87-1.26,2.54c0.55-0.3,2.81-1.29,2.21-2.12c-0.19-0.26-0.64-0.51-0.97-0.54
		L120.82,81.93z"/>
	<path class="st24" d="M138.79,82.37c-0.23-0.4,0.56-0.61,0.82-0.64c0.51-0.08,0.97-0.1,1.43-0.39c0.55-0.35,1.06-0.9,1.31-1.51
		c0.28-0.67,0.01-1.45,0.35-2.11c0.09-0.18,0.18-0.33,0.37-0.41c0.03-0.02,1.1,1.05,1.23,1.15c-0.04-0.03-0.52,0.57-0.56,0.64
		c-0.34,0.6-0.39,1.51-0.01,2.09c0.26,0.39,0.85,0.98,1.33,1.04c-0.32,1.09-1.52,1.5-2.48,1.78c-0.84,0.24-2.41,0-3.08-0.62
		c-0.36-0.33-0.71-0.68-0.78-1.18L138.79,82.37z"/>
	<path class="st25" d="M139.97,82.5c0.08-0.64,1.41-0.97,1.91-0.94c0.71,0.04,1.64,0.11,2.02,0.83c0.79-0.89,2.1-0.87,2.86,0.1
		c0.72,0.91,0.39,2.31,0.19,3.35c-0.34,1.8-0.77,3.57-1.31,5.32c-0.24,0.77-0.38,1.65-0.88,2.3c-0.45,0.59-1.84,1.01-2.23,0.12
		c0.08,0.18-0.5,0.34-0.6,0.35c-0.07,0-0.92-0.19-0.87-0.25c-0.34,0.41-1.07,0.67-1.56,0.41c-0.49-0.26-0.8-0.94-1.05-1.41
		c-0.47-0.89-0.73-1.9-1-2.87c-0.32-1.16-0.76-2.21-0.89-3.42c-0.12-1.12-0.37-2.56,0.16-3.6c0.68-1.33,2.18-1.12,3.2-0.38
		L139.97,82.5z"/>
	<path class="st26" d="M143.89,82.36c0.12,0.15,0.18,0.35,0.21,0.55c0.02,0.2,0,0.4-0.03,0.59c-0.07,0.39-0.21,0.74-0.34,1.1
		c-0.01-0.2,0.02-0.39,0.05-0.58l0.11-0.56C143.95,83.1,144,82.74,143.89,82.36z"/>
	<path class="st26" d="M140.04,82.41c-0.06,0.23-0.06,0.45-0.05,0.68c0.01,0.22,0.04,0.45,0.08,0.67c0.03,0.22,0.08,0.45,0.12,0.67
		c0.04,0.23,0.08,0.45,0.09,0.69c-0.18-0.43-0.32-0.87-0.39-1.33c-0.03-0.23-0.05-0.47-0.04-0.7
		C139.86,82.85,139.91,82.61,140.04,82.41z"/>
	<path class="st26" d="M142.52,93.7c0.03-0.09,0.05-0.17,0.07-0.25c0.02-0.08,0.03-0.16,0.04-0.25c0.03-0.17,0.05-0.35,0.14-0.52
		c0.05,0.18,0.07,0.36,0.04,0.55c-0.02,0.09-0.04,0.19-0.09,0.27C142.68,93.58,142.6,93.66,142.52,93.7z"/>
	<path class="st26" d="M141.23,93.75c-0.1-0.02-0.19-0.1-0.26-0.19c-0.06-0.09-0.1-0.19-0.13-0.29c-0.05-0.2-0.06-0.41,0.01-0.61
		c0.08,0.2,0.12,0.38,0.17,0.56c0.02,0.09,0.05,0.18,0.08,0.27C141.14,93.58,141.17,93.66,141.23,93.75z"/>
	<rect x="102.75" y="103.3" class="st1" width="52.67" height="21.47"/>
	<path class="st27" d="M118.94,111.91c-0.07-0.44-0.23-0.82-0.46-1.15c-0.28-0.39-0.67-0.71-1.13-0.94c-0.5-0.25-1.06-0.41-1.61-0.5
		c-0.34-0.06-0.76-0.11-1.01-0.11c-0.25,0-0.67,0.06-1.01,0.11c-0.55,0.09-1.11,0.25-1.61,0.5c-0.46,0.23-0.85,0.54-1.13,0.94
		c-0.24,0.33-0.4,0.71-0.46,1.15c-0.13,0.83,0.14,1.78,0.9,2.23c0.34,0.2,1.27,0.5,1.62,0.21c-0.11-0.19-0.25-0.36-0.36-0.55
		c-0.25-0.45-0.06-0.92,0.49-0.92c0.64,0,0.82,0.56,0.68,1.12c-0.14,0.57-0.29,1.14-0.5,1.68c-0.2,0.53-0.44,1.06-0.44,1.64
		c0,0.47,0.28,0.49,0.64,0.59c0.37,0.1,0.78,0.14,1.18,0.14c0.4,0.01,0.82-0.04,1.18-0.14c0.36-0.1,0.64-0.12,0.64-0.59
		c0-0.58-0.24-1.11-0.44-1.64c-0.21-0.54-0.36-1.12-0.5-1.68c-0.14-0.56,0.05-1.12,0.68-1.12c0.55,0,0.74,0.47,0.49,0.92
		c-0.1,0.19-0.24,0.37-0.36,0.55c0.35,0.3,1.28,0,1.62-0.21C118.79,113.69,119.06,112.74,118.94,111.91z"/>
	<path class="st28" d="M118.94,111.91c-0.07-0.44-0.23-0.82-0.46-1.15c-0.28-0.39-0.67-0.71-1.13-0.94c-0.5-0.25-1.06-0.41-1.61-0.5
		c-0.34-0.06-0.76-0.11-1.01-0.11c-0.25,0-0.67,0.06-1.01,0.11c-0.55,0.09-1.11,0.25-1.61,0.5c-0.46,0.23-0.85,0.54-1.13,0.94
		c-0.24,0.33-0.4,0.71-0.46,1.15c-0.13,0.83,0.14,1.78,0.9,2.23c0.16,0.1,0.46,0.22,0.77,0.28c-0.88-0.48-1.43-1.21-1.43-2.03
		c0-1.46,1.78-2.64,3.98-2.64c2.2,0,3.98,1.18,3.98,2.64c0,0.81-0.56,1.54-1.43,2.03c0.31-0.07,0.6-0.18,0.77-0.28
		C118.79,113.69,119.06,112.74,118.94,111.91z"/>
	<path class="st22" d="M138.04,116.31c-0.62,1.16-1.08,3.14,0.47,3.83c1.03,0.46,2.98-0.26,4.31-2.52c1.34-2.26,2.5-5.9,2.76-6.92
		c0.26-1.03,0-2.12-0.61-2.34c-0.6-0.23-1.01,0.01-1.9,1.66c-0.89,1.65-2.12,2.84-2.88,3.69
		C139.42,114.56,138.47,115.51,138.04,116.31z"/>
	<path class="st29" d="M138.29,120.02c0.02-0.29,0.09-0.57,0.18-0.85c0.09-0.28,0.19-0.55,0.3-0.82c0.22-0.54,0.48-1.06,0.76-1.57
		c0.56-1.02,1.2-1.99,1.91-2.91c0.18-0.23,0.36-0.45,0.55-0.67c0.19-0.22,0.36-0.43,0.53-0.66c0.34-0.46,0.64-0.94,0.93-1.44
		c0.29-0.5,0.56-1,0.82-1.52c0.26-0.51,0.51-1.04,0.74-1.56c-0.37,1.1-0.81,2.17-1.36,3.19c-0.27,0.51-0.57,1.01-0.91,1.49
		c-0.17,0.24-0.36,0.47-0.54,0.69c-0.18,0.22-0.36,0.44-0.54,0.67c-0.7,0.9-1.35,1.85-1.94,2.84c-0.29,0.49-0.57,0.99-0.83,1.51
		C138.65,118.93,138.41,119.46,138.29,120.02z"/>
	<path class="st29" d="M145.13,108.1c0.02,0.3,0,0.61-0.04,0.91c-0.04,0.3-0.09,0.6-0.15,0.9c-0.12,0.6-0.26,1.19-0.43,1.78
		c-0.33,1.17-0.71,2.33-1.24,3.44c-0.07,0.14-0.14,0.28-0.22,0.41l-0.24,0.39c-0.16,0.26-0.32,0.52-0.49,0.77
		c-0.34,0.5-0.69,1-1.08,1.47c-0.39,0.47-0.8,0.92-1.28,1.31c-0.24,0.19-0.5,0.36-0.78,0.48c-0.14,0.06-0.29,0.1-0.44,0.12
		c-0.15,0.01-0.31,0-0.45-0.05c0.3,0.08,0.6-0.01,0.86-0.14c0.26-0.13,0.5-0.32,0.72-0.52c0.44-0.4,0.83-0.86,1.19-1.34
		c0.36-0.48,0.7-0.98,1.03-1.48c0.16-0.25,0.32-0.51,0.48-0.77l0.23-0.39c0.07-0.13,0.14-0.26,0.21-0.39
		c0.26-0.53,0.48-1.1,0.69-1.66c0.21-0.56,0.4-1.14,0.59-1.71c0.18-0.58,0.36-1.16,0.51-1.74C144.95,109.3,145.1,108.7,145.13,108.1
		z"/>
	<path class="st29" d="M144.08,108.52c0.53-0.73,0.67-1.43,0.9-1.51c0.23-0.08,1.15,0.34,1.15,0.34c-0.02,0.38-0.26,1.54-0.48,2.12
		C145.11,109.14,144.08,108.52,144.08,108.52z"/>
	<text transform="matrix(0.9909 0 0 1 112.8052 98.7749)" class="st30 st17 st18">$2.99/lb</text>
	<text transform="matrix(0.9909 0 0 1 137.5469 98.7749)" class="st30 st17 st18">$1.95/lb</text>
	<text transform="matrix(0.9909 0 0 1 109.9478 123.9629)" class="st30 st17 st18">$12.99/Un</text>
	<text transform="matrix(0.9909 0 0 1 137.6563 123.9629)" class="st30 st17 st18">$2.25/lb</text>
	<rect x="102.76" y="101.29" class="st31" width="52.67" height="0.22"/>
	<text transform="matrix(0.9909 0 0 1 104.4858 77.3237)" class="st30 st17 st18">Veggies</text>
	<text transform="matrix(0.9909 0 0 1 106.5679 42.2222)" class="st1 st17 st18">Choose A Market</text>
	<text transform="matrix(0.9909 0 0 1 136.7793 42.1089)" class="st1 st17 st18">How It Works</text>
	<path id="basket-4_4_" class="st1" d="M148.95,32.83l0.83-0.83c0.03-0.04,0.08-0.05,0.13-0.05c0.11,0,0.18,0.09,0.18,0.18
		c0,0.04-0.02,0.09-0.05,0.13l-0.57,0.58H148.95z M151.06,32.83h0.51l-0.83-0.83c-0.03-0.04-0.08-0.05-0.13-0.05
		c-0.11,0-0.18,0.09-0.18,0.18c0,0.04,0.02,0.09,0.05,0.13L151.06,32.83z M151.71,33.54L151.71,33.54l-0.64,1.6h-1.64l-0.63-1.59
		l0-0.01H151.71z M152.37,33.18h-4.22v0.36h0.11c0.09,0,0.18,0.05,0.22,0.14l0.72,1.81h2.11l0.72-1.81
		c0.04-0.09,0.13-0.14,0.22-0.14h0.11V33.18z M149.91,34.07c0-0.1-0.08-0.18-0.18-0.18s-0.18,0.08-0.18,0.18v0.53
		c0,0.1,0.08,0.18,0.18,0.18s0.18-0.08,0.18-0.18V34.07z M150.44,34.07c0-0.1-0.08-0.18-0.18-0.18s-0.18,0.08-0.18,0.18v0.53
		c0,0.1,0.08,0.18,0.18,0.18s0.18-0.08,0.18-0.18V34.07z M150.96,34.07c0-0.1-0.08-0.18-0.18-0.18c-0.1,0-0.18,0.08-0.18,0.18v0.53
		c0,0.1,0.08,0.18,0.18,0.18c0.1,0,0.18-0.08,0.18-0.18V34.07z"/>
	<path class="st1" d="M144.27,35.65c-0.13,0-0.25-0.06-0.32-0.17c-0.41-0.59-1.11-1.65-1.11-2.24c0-0.82,0.64-1.48,1.43-1.48
		s1.43,0.66,1.43,1.48c0,0.58-0.7,1.65-1.11,2.24C144.51,35.59,144.39,35.65,144.27,35.65z M144.27,32.1c-0.61,0-1.1,0.52-1.1,1.15
		c0,0.35,0.39,1.12,1.05,2.05c0.02,0.02,0.04,0.03,0.05,0.03s0.03,0,0.05-0.03c0.66-0.93,1.05-1.69,1.05-2.05
		C145.37,32.62,144.87,32.1,144.27,32.1z"/>
	<path class="st1" d="M144.27,33.87c-0.39,0-0.71-0.33-0.71-0.74s0.32-0.74,0.71-0.74s0.71,0.33,0.71,0.74
		S144.66,33.87,144.27,33.87z M144.27,32.73c-0.21,0-0.38,0.18-0.38,0.41c0,0.22,0.17,0.41,0.38,0.41c0.21,0,0.38-0.18,0.38-0.41
		C144.65,32.91,144.48,32.73,144.27,32.73z"/>
	<path class="st1" d="M103.97,32.8c1.17,0,2.35,0,3.52,0c0.21,0,0.21-0.33,0-0.33c-1.17,0-2.35,0-3.52,0
		C103.76,32.47,103.76,32.8,103.97,32.8L103.97,32.8z"/>
	<path class="st1" d="M103.97,33.88c1.17,0,2.35,0,3.52,0c0.21,0,0.21-0.33,0-0.33c-1.17,0-2.35,0-3.52,0
		C103.76,33.55,103.76,33.88,103.97,33.88L103.97,33.88z"/>
	<path class="st1" d="M103.97,34.96c1.17,0,2.35,0,3.52,0c0.21,0,0.21-0.33,0-0.33c-1.17,0-2.35,0-3.52,0
		C103.76,34.63,103.76,34.96,103.97,34.96L103.97,34.96z"/>
	<line class="st32" x1="101.44" y1="43.98" x2="126.95" y2="43.98"/>
	<rect x="101.44" y="43.81" class="st33" width="25.51" height="0.33"/>
	<rect x="101.44" y="69.51" class="st6" width="53.99" height="2.64"/>
	<path class="st34" d="M173.32,125.5c-1.12-1.17-3.11-2.35-4.23-3.52c-0.46-0.48-0.92-0.97-1.17-1.59
		c-0.26-0.65-0.24-1.38-0.22-2.09c0.03-0.94,0.06-1.88,0.09-2.82c0.02-0.63-0.21-3.36,0.2-3.84c0.55-0.66,1.55-0.69,2.41-0.66
		l0.02-0.05c1.3,0.81,1.6,2.54,1.72,4.07C172.35,117.8,173.32,125.5,173.32,125.5z"/>
	<path class="st34" d="M171.82,137.47c-1.03-0.77-2.73-1.44-3.76-2.21c-0.42-0.32-0.85-0.64-1.12-1.09
		c-0.29-0.48-1.06-4.85-0.82-5.28c0.3-0.52,0.93-0.69,1.55-0.79c0.16-0.02,0.32,0.03,0.42,0.16c0.42,0.49,1.48,1.79,1.71,2.73
		C170.33,133.15,171.82,137.47,171.82,137.47z"/>
	<path class="st34" d="M171.12,83.13c0,0,5.38,5.52,7.97,8.02c0.3,0.29,0.72,0.61,0.31,0.66c-1.26,0.14-7.5-4.88-7.98-6.7
		C171.09,83.91,170.8,83.51,171.12,83.13z"/>
	<path class="st35" d="M155.12,124.96h-53.39c-0.2,0-0.37-0.17-0.37-0.37V29.28c0-0.2,0.17-0.37,0.37-0.37h53.39
		c0.2,0,0.37,0.17,0.37,0.37v95.32C155.49,124.8,155.32,124.96,155.12,124.96z M101.72,29.21c-0.04,0-0.07,0.03-0.07,0.07v95.32
		c0,0.04,0.03,0.07,0.07,0.07h53.39c0.04,0,0.07-0.03,0.07-0.07V29.28c0-0.04-0.03-0.07-0.07-0.07H101.72z"/>
	<path class="st3" d="M129.35,91.57c-1.67,3.53-5.88,6.71-10.79,9.72c-0.01,0-0.01,0.01-0.01,0.01c-0.06,0.04-0.12,0.07-0.19,0.11
		c-0.06,0.04-0.12,0.07-0.18,0.11c-1,0.61-2.02,1.2-3.06,1.79c-0.02,0.01-0.05,0.03-0.07,0.04c-0.83,0.47-1.67,0.94-2.51,1.41
		c-0.24,1.63-0.46,3.4-0.66,5.19v0.01c-0.02,0.22-0.05,0.43-0.07,0.65c-0.12,1.12-0.24,2.24-0.34,3.32v0.01
		c-0.01,0.08-0.01,0.16-0.02,0.24c0,0,0,0,0,0.01c-0.42,4.48-0.66,8.13-0.66,8.13c0.21,0.74,0.42,1.48,0.61,2.22
		c0.02,0.08,0.05,0.16,0.07,0.25c0.01,0.01,0.01,0.03,0.01,0.04c0.01,0.04,0.02,0.07,0.03,0.11c1.51,5.75,2.53,11.41,2.94,16.87
		c1.16,15.33-2.41,29.02-12.94,38.32c-6.34,5.6-11.52,17.65-15.35,29.53c-8.63-2.62-16.75-6.39-24.21-11.14
		c-0.4-0.25-0.79-0.51-1.18-0.77c7.33-14.42,14.03-30.01,17.68-43.3c0.74-2.7,1.36-5.31,1.83-7.78c0.88-4.68,1.25-8.93,0.95-12.53
		c-0.04-0.42-0.05-0.83-0.05-1.26c0-0.87,0.07-1.76,0.2-2.65c1.27-8.54,8.01-17.51,9.49-22.34c1.67-5.48,3.01-10.8,4.85-14.55
		c1.45-2.95,3.22-4.92,5.72-5.22c0.02,0,0.04-0.01,0.06-0.01h0.01c0.4-0.04,0.82-0.11,1.25-0.21c1.03-0.22,2.16-0.57,3.34-1.03
		c0.58-0.22,1.17-0.47,1.78-0.74c0.01,0,0.02,0,0.02-0.01c5.68-2.48,12.27-6.56,16.81-8.34c1.18-0.47,2.34-0.77,3.39-0.84
		c1.93-0.13,3.47,0.51,4.08,2.32c0,0,0,0,0,0.01C132.92,81.46,132.3,85.33,129.35,91.57z"/>
	<path class="st34" d="M132.31,77.88c-0.01-1.27-2.09-1.44-3.33-1.18c-1.24,0.25-3.15,1.26-4.35,1.65c-1.97,0.65-7.73,4.58-7.75,4.9
		c2.22-0.16,5.34,2.38,6.6,4.22C128.48,86.09,132.36,82.04,132.31,77.88z"/>
</g>
</svg>
