<?xml version="1.0" encoding="utf-8"?>
<!-- Generator: Adobe Illustrator 23.0.3, SVG Export Plug-In . SVG Version: 6.00 Build 0)  -->
<svg version="1.1" id="Layer_1" xmlns="http://www.w3.org/2000/svg" xmlns:xlink="http://www.w3.org/1999/xlink" x="0px" y="0px"
	 viewBox="0 0 57 58" style="enable-background:new 0 0 57 58;" xml:space="preserve">
<style type="text/css">
	.st0{fill:#8EB260;}
	.st1{fill:#C01823;}
</style>
<g>
	<circle class="st0" cx="28.5" cy="29" r="24"/>
	<g id="_x30_St7pd_2_">
		<g>
			<path class="st1" d="M21.85,16.45c2.13,0.03,3.92,0.77,5.41,2.22c0.35,0.34,0.7,0.68,1.04,1.04c0.15,0.16,0.23,0.13,0.37-0.01
				c0.7-0.7,1.37-1.43,2.2-1.98c4.13-2.71,9.74-0.93,11.43,3.81c1.08,3.01,0.45,5.77-1.8,8.06c-3.91,3.96-7.87,7.88-11.8,11.82
				c-0.18,0.18-0.27,0.18-0.45,0c-3.91-3.93-7.83-7.85-11.75-11.76c-0.95-0.95-1.67-2.05-2.01-3.34c-0.73-2.73-0.2-5.21,1.71-7.32
				C17.71,17.3,19.63,16.48,21.85,16.45z"/>
		</g>
	</g>
</g>
</svg>
