<?xml version="1.0" encoding="utf-8"?>
<!-- Generator: Adobe Illustrator 23.0.3, SVG Export Plug-In . SVG Version: 6.00 Build 0)  -->
<svg version="1.1" id="Layer_1" xmlns="http://www.w3.org/2000/svg" xmlns:xlink="http://www.w3.org/1999/xlink" x="0px" y="0px"
	 viewBox="0 0 57 58" style="enable-background:new 0 0 57 58;" xml:space="preserve">
<style type="text/css">
	.st0{fill:#EA8D4E;}
	.st1{fill:#955903;}
	.st2{fill:#98D150;stroke:#7DB343;stroke-width:0.8463;stroke-miterlimit:10;}
	.st3{fill:#BA8953;}
	.st4{fill:#C59C6F;}
</style>
<g>
	<circle class="st0" cx="28.5" cy="29" r="24"/>
	<g>
		<path class="st1" d="M28.5,15.69L28.5,15.69c-0.39,0-0.7-0.32-0.7-0.7v-1.88c0-0.39,0.32-0.7,0.7-0.7l0,0c0.39,0,0.7,0.32,0.7,0.7
			v1.88C29.2,15.37,28.89,15.69,28.5,15.69z"/>
		<g>
			<path class="st2" d="M38.96,31.71c0,7.67-4.68,13.89-10.46,13.89s-10.46-6.22-10.46-13.89s4.68-17.16,10.46-17.16
				S38.96,24.04,38.96,31.71z"/>
		</g>
		<ellipse class="st3" cx="28.5" cy="35.15" rx="5.46" ry="6.91"/>
		<ellipse class="st4" cx="27.38" cy="32.86" rx="3.01" ry="4.11"/>
	</g>
</g>
</svg>
