<?xml version="1.0" encoding="utf-8"?>
<!-- Generator: Adobe Illustrator 23.0.1, SVG Export Plug-In . SVG Version: 6.00 Build 0)  -->
<svg version="1.1" id="Layer_1" xmlns="http://www.w3.org/2000/svg" xmlns:xlink="http://www.w3.org/1999/xlink" x="0px" y="0px"
	 viewBox="0 0 225 50" style="enable-background:new 0 0 225 50;" xml:space="preserve">
<style type="text/css">
	.st0{fill:#FFFFFF;}
	.st1{fill:#E87200;}
</style>
<g>
	<path class="st0" d="M18.51,7.49c-0.13,1.56-1.38,2.8-2.94,2.93c-0.46,0.04-0.9,0.14-1.26,0.34c-0.45,0.25-0.8,0.6-1.05,1.03
		c-0.26,0.43-0.43,0.92-0.53,1.46c-0.1,0.54-0.14,1.09-0.14,1.63v1.88c0,0.29,0.23,0.52,0.52,0.52h1.11c1.61,0,2.92,1.31,2.92,2.92
		v0c0,1.61-1.31,2.92-2.92,2.92H13.1c-0.28,0-0.52,0.23-0.52,0.52v13.58c0,2.17-1.76,3.93-3.93,3.93h0c-2.17,0-3.93-1.76-3.93-3.93
		V23.59c0-0.25-0.21-0.46-0.46-0.46H4.25c-1.61,0-2.92-1.31-2.92-2.92v0c0-1.61,1.31-2.92,2.92-2.92l0,0c0.26,0,0.47-0.21,0.47-0.47
		v-1.83c0-1.47,0.16-2.87,0.48-4.19c0.32-1.33,0.87-2.49,1.65-3.5c0.78-1.01,1.84-1.8,3.16-2.4C11.34,4.3,13,4.01,14.98,4.01
		c0.13,0,0.25,0,0.38,0C17.22,4.05,18.67,5.64,18.51,7.49L18.51,7.49z"/>
	<path class="st0" d="M28.21,20.76c0.61-1.22,1.55-2.24,2.68-2.99c0.2-0.13,0.41-0.25,0.61-0.36c2.23-1.18,4.9,0.52,4.77,3.04v0
		c-0.08,1.59-1.28,2.93-2.87,3.07c-0.65,0.06-1.34,0.22-1.97,0.57c-0.71,0.39-1.29,0.84-1.73,1.39c-0.43,0.54-0.74,1.13-0.93,1.77
		c-0.19,0.64-0.29,1.19-0.29,1.67v8.31c0,2.17-1.76,3.93-3.93,3.93h0c-2.17,0-3.93-1.76-3.93-3.93V20.76c0-1.91,1.55-3.45,3.45-3.45
		h0.67C26.66,17.31,28.21,18.86,28.21,20.76L28.21,20.76z"/>
	<path class="st0" d="M59.84,31.37l-12.95,0c-0.53,0-0.91,0.52-0.74,1.02c0.1,0.28,0.22,0.55,0.38,0.8
		c0.34,0.54,0.77,1.01,1.29,1.41c0.53,0.4,1.12,0.71,1.77,0.93c0.65,0.22,1.33,0.34,2.04,0.34c1.25,0,2.3-0.23,3.16-0.7
		c0.25-0.13,0.49-0.28,0.71-0.44c1.03-0.72,2.4-0.73,3.46-0.06l0,0c2.01,1.27,1.95,4.2-0.09,5.41c-0.3,0.18-0.62,0.35-0.94,0.5
		c-1.84,0.88-3.97,1.32-6.4,1.32c-1.79,0-3.48-0.28-5.08-0.84c-1.6-0.56-3-1.37-4.19-2.44c-1.2-1.07-2.14-2.39-2.83-3.95
		c-0.69-1.56-1.03-3.35-1.03-5.37c0-1.95,0.34-3.71,1.01-5.3c0.67-1.58,1.58-2.92,2.73-4.03c1.15-1.1,2.51-1.96,4.07-2.56
		c1.56-0.61,3.26-0.91,5.08-0.91c1.76,0,3.37,0.3,4.84,0.89c1.47,0.59,2.73,1.45,3.79,2.56c1.05,1.12,1.81,2.5,2.47,4.07
		c0.45,1.06,0.68,2.44,0.78,3.71C63.36,29.7,61.8,31.37,59.84,31.37z M55.22,26.48c0.46,0,0.84-0.41,0.77-0.87
		c-0.14-0.88-0.51-1.66-1.11-2.34c-0.78-0.89-1.96-1.34-3.52-1.34c-0.77,0-1.47,0.12-2.11,0.36c-0.64,0.24-1.2,0.57-1.68,0.98
		c-0.48,0.42-0.86,0.9-1.15,1.46c-0.13,0.25-0.23,0.51-0.31,0.77c-0.15,0.49,0.24,0.98,0.75,0.98L55.22,26.48z"/>
	<path class="st0" d="M83.46,22.54c-0.94,0.97-2.39,1.18-3.59,0.56c-1.41-0.72-3.38-1.31-5.17-0.5c-0.62,0.28-0.93,0.78-0.93,1.49
		c0,0.67,0.34,1.15,1.03,1.44c0.69,0.29,1.8,0.61,3.33,0.96c0.89,0.19,1.8,0.46,2.71,0.81c0.91,0.35,1.73,0.82,2.47,1.39
		c0.73,0.58,1.33,1.28,1.77,2.11c0.45,0.83,0.67,1.82,0.67,2.97c0,1.5-0.3,2.77-0.91,3.81c-0.61,1.04-1.4,1.88-2.37,2.52
		c-0.97,0.64-2.07,1.1-3.28,1.39c-1.21,0.29-2.43,0.43-3.64,0.43c-1.95,0-3.86-0.31-5.73-0.93c-0.4-0.13-0.79-0.28-1.16-0.44
		c-1.97-0.85-2.51-3.38-1.04-4.93l0,0c0.99-1.05,2.58-1.25,3.81-0.5c0.23,0.14,0.46,0.27,0.71,0.39c1.02,0.51,2.11,0.77,3.26,0.77
		c0.64,0,1.27-0.15,1.89-0.46c0.62-0.3,0.93-0.84,0.93-1.61c0-0.73-0.38-1.28-1.15-1.63c-0.77-0.35-1.97-0.72-3.59-1.1
		c-0.83-0.19-1.66-0.45-2.49-0.77c-0.83-0.32-1.57-0.75-2.23-1.29c-0.66-0.54-1.19-1.21-1.61-2.01c-0.42-0.8-0.62-1.76-0.62-2.88
		c0-1.44,0.3-2.66,0.91-3.67c0.61-1.01,1.39-1.83,2.35-2.47c0.96-0.64,2.02-1.11,3.19-1.41c1.17-0.3,2.32-0.46,3.47-0.46
		c2.43,0,4.43,0.49,5.99,1.13C84.42,18.46,84.94,21.01,83.46,22.54L83.46,22.54z"/>
	<path class="st0" d="M97.78,19.19c0,0.34,0.41,0.49,0.63,0.24c0.54-0.61,1.24-1.17,2.05-1.69c1.18-0.75,2.6-1.13,4.27-1.13
		c1.63,0,3,0.29,4.1,0.86c1.1,0.58,2,1.32,2.68,2.23c0.69,0.91,1.18,1.96,1.49,3.14c0.3,1.18,0.46,2.37,0.46,3.55V37.2
		c0,2.18-1.77,3.95-3.95,3.95h0c-2.18,0-3.95-1.77-3.95-3.95v-8.99c0-0.67-0.05-1.31-0.14-1.92c-0.1-0.61-0.28-1.14-0.55-1.61
		c-0.27-0.46-0.63-0.83-1.08-1.1c-0.45-0.27-1.02-0.41-1.73-0.41c-1.37,0-2.43,0.49-3.16,1.46c-0.74,0.98-1.1,2.18-1.1,3.62v8.96
		c0,2.17-1.76,3.93-3.93,3.93h0c-2.17,0-3.93-1.76-3.93-3.93V8.85c0-2.17,1.76-3.93,3.93-3.93h0c2.17,0,3.93,1.76,3.93,3.93V19.19z"
		/>
	<path class="st0" d="M137.38,22.7c-0.99,1.14-2.6,1.47-3.98,0.85c-0.63-0.28-1.37-0.48-2.17-0.47c-0.83,0.01-1.58,0.17-2.25,0.5
		c-0.67,0.34-1.25,0.78-1.73,1.34c-0.48,0.56-0.86,1.21-1.13,1.94c-0.27,0.74-0.41,1.52-0.41,2.35c0,0.83,0.13,1.61,0.38,2.35
		c0.26,0.74,0.63,1.38,1.13,1.94c0.49,0.56,1.09,1,1.77,1.32c0.69,0.32,1.46,0.48,2.32,0.48c0.86,0,1.62-0.18,2.26-0.43
		c1.38-0.55,2.96-0.18,3.9,0.98v0c1.5,1.83,0.7,4.6-1.55,5.35c-1.28,0.43-2.87,0.73-4.81,0.73c-1.89,0-3.65-0.29-5.28-0.86
		c-1.63-0.58-3.05-1.41-4.26-2.52c-1.21-1.1-2.15-2.44-2.85-4c-0.69-1.56-1.04-3.34-1.04-5.32c0-1.95,0.35-3.71,1.04-5.27
		c0.69-1.57,1.64-2.9,2.85-4c1.2-1.1,2.62-1.95,4.26-2.54c1.63-0.59,3.38-0.89,5.23-0.89c1.97,0,3.59,0.34,4.88,0.79
		C138.2,18.1,138.94,20.9,137.38,22.7L137.38,22.7z"/>
	<path class="st0" d="M179.86,19.78c0,0.24,0.3,0.35,0.46,0.16c0.23-0.29,0.5-0.57,0.77-0.86c0.46-0.5,1.01-0.92,1.63-1.27
		c0.62-0.35,1.3-0.64,2.04-0.86c0.73-0.22,1.52-0.34,2.35-0.34c1.6,0,2.96,0.29,4.07,0.86c1.12,0.58,2.02,1.32,2.71,2.23
		c0.69,0.91,1.18,1.96,1.49,3.14c0.3,1.18,0.46,2.37,0.46,3.55V37.2c0,2.18-1.77,3.95-3.95,3.95h0c-2.18,0-3.95-1.77-3.95-3.95
		v-9.08c0-0.67-0.06-1.31-0.17-1.92c-0.11-0.61-0.3-1.14-0.55-1.61c-0.26-0.46-0.62-0.83-1.08-1.1c-0.46-0.27-1.05-0.41-1.75-0.41
		c-0.7,0-1.32,0.14-1.85,0.41c-0.53,0.27-0.97,0.65-1.32,1.13c-0.35,0.48-0.62,1.03-0.79,1.65c-0.18,0.62-0.26,1.27-0.26,1.94v8.99
		c0,2.18-1.77,3.95-3.95,3.95l0,0c-2.18,0-3.95-1.77-3.95-3.95V19.78c0-2.1,1.71-3.81,3.81-3.81l0,0
		C178.16,15.97,179.86,17.67,179.86,19.78L179.86,19.78z"/>
	<path class="st0" d="M168.04,28.37c0-1.92-0.35-3.65-1.04-5.19c-0.69-1.54-1.64-2.85-2.83-3.92c-1.2-1.07-2.58-1.89-4.15-2.45
		c-1.57-0.57-3.26-0.85-5.05-0.85c-1.76,0-3.44,0.28-5.02,0.85c-1.59,0.57-2.97,1.38-4.15,2.45c-1.18,1.07-2.12,2.38-2.81,3.92
		c-0.69,1.54-1.04,3.27-1.04,5.19c0,1.7,0.29,3.25,0.83,4.67l-0.02,0c2.56,7.13,9.28,15.13,9.28,15.13c0.85,1.1,1.69,1.59,2.95,1.59
		c1.26,0,2.2-0.65,2.95-1.59c0,0,6.72-8,9.28-15.13l-0.02,0C167.76,31.63,168.04,30.08,168.04,28.37z M160.21,30.58
		c-0.24,0.72-0.59,1.38-1.06,1.96c-0.47,0.58-1.05,1.05-1.75,1.39c-0.69,0.35-1.49,0.52-2.41,0.52c-0.91,0-1.71-0.17-2.41-0.52
		c-0.69-0.35-1.27-0.81-1.75-1.39c-0.47-0.58-0.83-1.23-1.06-1.96c-0.24-0.72-0.35-1.46-0.35-2.22c0-0.76,0.12-1.49,0.35-2.22
		c0.24-0.72,0.58-1.36,1.04-1.91c0.46-0.55,1.03-1,1.72-1.34c0.69-0.35,1.49-0.52,2.41-0.52c0.91,0,1.71,0.17,2.41,0.52
		c0.69,0.35,1.27,0.79,1.75,1.34c0.47,0.55,0.83,1.19,1.09,1.91c0.25,0.72,0.38,1.46,0.38,2.22
		C160.57,29.12,160.45,29.86,160.21,30.58z"/>
	<path class="st0" d="M207.71,19.78c0,0.24,0.3,0.35,0.46,0.16c0.23-0.29,0.5-0.57,0.77-0.86c0.46-0.5,1.01-0.92,1.63-1.27
		c0.62-0.35,1.3-0.64,2.04-0.86c0.73-0.22,1.52-0.34,2.35-0.34c1.6,0,2.96,0.29,4.07,0.86c1.12,0.58,2.02,1.32,2.71,2.23
		c0.69,0.91,1.18,1.96,1.49,3.14c0.3,1.18,0.46,2.37,0.46,3.55V37.2c0,2.18-1.77,3.95-3.95,3.95h0c-2.18,0-3.95-1.77-3.95-3.95
		v-9.08c0-0.67-0.06-1.31-0.17-1.92c-0.11-0.61-0.3-1.14-0.55-1.61c-0.26-0.46-0.62-0.83-1.08-1.1c-0.46-0.27-1.05-0.41-1.75-0.41
		c-0.7,0-1.32,0.14-1.85,0.41c-0.53,0.27-0.97,0.65-1.32,1.13c-0.35,0.48-0.62,1.03-0.79,1.65c-0.18,0.62-0.26,1.27-0.26,1.94v8.99
		c0,2.18-1.77,3.95-3.95,3.95l0,0c-2.18,0-3.95-1.77-3.95-3.95V19.78c0-2.1,1.71-3.81,3.81-3.81h0
		C206,15.97,207.71,17.67,207.71,19.78L207.71,19.78z"/>
	<path class="st1" d="M155.2,0.23c-2.86,0-5.18,2.33-5.18,5.18c0,2.89,2.85,8.75,5.18,8.75c2.33,0,5.18-5.86,5.18-8.75
		C160.38,2.56,158.06,0.23,155.2,0.23z"/>
	<path class="st1" d="M146.81,6.72c-0.85-0.85-1.98-1.32-3.18-1.32c-1.2,0-2.33,0.47-3.18,1.32c-1.75,1.75-1.75,4.6,0,6.36
		c1.33,1.33,4.66,2.7,6.85,2.7c0.73,0,1.34-0.15,1.69-0.51c0.93-0.93,0.37-3.24,0.08-4.19C148.55,9.3,147.64,7.55,146.81,6.72z"/>
	<path class="st1" d="M169.94,6.72c-0.85-0.85-1.98-1.32-3.18-1.32c-1.2,0-2.33,0.47-3.18,1.32c-0.83,0.83-1.74,2.58-2.27,4.35
		c-0.28,0.95-0.84,3.27,0.08,4.19c0.36,0.36,0.96,0.51,1.69,0.51c2.19,0,5.52-1.37,6.85-2.7C171.7,11.33,171.7,8.48,169.94,6.72z"/>
</g>
</svg>
