<?xml version="1.0" encoding="utf-8"?>
<!-- Generator: Adobe Illustrator 23.0.3, SVG Export Plug-In . SVG Version: 6.00 Build 0)  -->
<svg version="1.1" id="Layer_1" xmlns="http://www.w3.org/2000/svg" xmlns:xlink="http://www.w3.org/1999/xlink" x="0px" y="0px"
	 viewBox="0 0 57 58" style="enable-background:new 0 0 57 58;" xml:space="preserve">
<style type="text/css">
	.st0{fill:#EA8D4E;}
	.st1{fill:#98D150;}
	.st2{fill:#7DB343;}
	.st3{fill:#7BA840;}
</style>
<g>
	<circle class="st0" cx="28.5" cy="29" r="24"/>
	<g>
		<polygon class="st1" points="32.5,32.95 30.8,37.89 29.8,31.37 26.92,31.37 26.36,36.31 24.44,31.63 21.8,32.39 24.87,42.9 
			25.62,42.9 25.62,42.92 31.57,42.92 35.38,32.95 		"/>
		<path id="XMLID_1_" class="st2" d="M39.48,22.84c-0.66-2.79-3.15-4.87-6.14-4.87c-0.84,0-1.63,0.17-2.36,0.46
			c-1.07-1.98-3.14-3.35-5.55-3.35c-3.19,0-5.8,2.37-6.24,5.44c-2.87,0.6-5.02,3.14-5.02,6.19c0,3.49,2.83,6.33,6.33,6.33
			c1.5,0,2.86-0.54,3.94-1.42c1.1,0.93,2.5,1.51,4.06,1.51c1.12,0,2.16-0.32,3.07-0.83c1.16,1.46,2.93,2.41,4.93,2.41
			c3.49,0,6.33-2.83,6.33-6.33C42.83,25.98,41.46,23.91,39.48,22.84z"/>
		<path class="st3" d="M42.82,28.39c0,0.2-0.01,0.39-0.04,0.57c-0.57-1.29-1.57-2.35-2.82-3.02c-0.66-2.79-3.14-4.87-6.14-4.87
			c-0.83,0-1.63,0.16-2.36,0.46c-1.07-1.98-3.14-3.34-5.55-3.34c-3.19,0-5.81,2.37-6.24,5.44c-2.68,0.56-4.74,2.82-5,5.6
			c-0.33-0.77-0.52-1.62-0.52-2.51c0-3.05,2.16-5.58,5.02-6.19c0.43-3.07,3.05-5.44,6.23-5.44c2.42,0,4.49,1.37,5.55,3.36
			c0.74-0.29,1.53-0.47,2.36-0.47c2.99,0,5.49,2.09,6.15,4.87C41.46,23.9,42.82,25.98,42.82,28.39z"/>
		<path class="st2" d="M42.79,28.96v0.01c-0.29,3.23-2.99,5.75-6.29,5.75c-2.01,0-3.77-0.96-4.93-2.42
			c-0.92,0.52-1.95,0.83-3.07,0.83c-1.55,0-2.96-0.59-4.06-1.51c-1.08,0.87-2.44,1.42-3.94,1.42c-2.6,0-4.83-1.57-5.81-3.81
			c0.26-2.78,2.32-5.03,5-5.6c0.43-3.07,3.05-5.44,6.24-5.44c2.41,0,4.48,1.36,5.55,3.34c0.73-0.29,1.53-0.46,2.36-0.46
			c2.99,0,5.48,2.08,6.14,4.87C41.22,26.61,42.21,27.67,42.79,28.96z"/>
	</g>
</g>
</svg>
