<?xml version="1.0" encoding="utf-8"?>
<!-- Generator: Adobe Illustrator 23.0.3, SVG Export Plug-In . SVG Version: 6.00 Build 0)  -->
<svg version="1.1" id="Layer_1" xmlns="http://www.w3.org/2000/svg" xmlns:xlink="http://www.w3.org/1999/xlink" x="0px" y="0px"
	 viewBox="0 0 57 58" style="enable-background:new 0 0 57 58;" xml:space="preserve">
<style type="text/css">
	.st0{fill:#8EB260;}
	.st1{fill:#7DB343;}
	.st2{fill:#FCBA3D;}
	.st3{fill:#D6725D;stroke:#C13122;stroke-width:0.2566;stroke-miterlimit:10;}
	.st4{fill:#C13122;stroke:#CB5246;stroke-width:0.1711;stroke-miterlimit:10;}
	.st5{fill:#C13122;}
	.st6{fill:none;}
	.st7{fill:#955903;}
	.st8{fill:#BA8953;}
	.st9{fill:#FFE1A1;}
	.st10{fill:#A46B24;}
</style>
<g>
	<circle class="st0" cx="28.5" cy="29" r="24"/>
	<g>
		<path class="st1" d="M43.52,30.47c1.09-0.62,1.83-1.82,1.83-3.19c0-0.97-0.37-1.86-0.98-2.51c0.77-0.75,1.26-1.81,1.26-2.99
			c0-2.28-1.81-4.13-4.04-4.13c-0.16,0-0.32,0.01-0.47,0.03v-0.03H17.84c-0.45-0.33-0.95-0.52-1.49-0.52
			c-1.78,0-3.22,2.03-3.22,4.53c0,1.33,0.41,2.53,1.06,3.36c-0.4,0.5-0.63,1.1-0.63,1.74c0,1.11,0.7,2.09,1.75,2.64
			c-0.56,0.57-0.91,1.36-0.91,2.25c0,1.11,0.55,2.09,1.38,2.64v0.05c-1.14,0.52-1.93,1.56-1.93,2.77c0,0.96,0.5,1.82,1.28,2.39
			c-0.16,0.27-0.24,0.56-0.24,0.86c0,1.49,2.03,2.69,4.53,2.69c1.06,0,2.03-0.22,2.8-0.58c0.57,0.74,1.39,1.21,2.29,1.21
			c1.07,0,2.02-0.65,2.58-1.63c0.81,0.49,1.89,0.79,3.09,0.79c1.02,0,1.96-0.22,2.72-0.59c0.86,0.76,2.11,1.24,3.51,1.24
			c1.58,0,2.97-0.61,3.81-1.53c0.38,0.21,0.81,0.33,1.25,0.33c1.68,0,3.04-1.65,3.04-3.69c0-1.11-0.41-2.1-1.04-2.78
			c1.16-0.54,1.94-1.54,1.94-2.68C45.42,32,44.66,31.01,43.52,30.47z"/>
		<path class="st2" d="M43.33,34.17l-1.11-1.69c-0.08,0.08-0.17,0.15-0.27,0.22c-1,0.66-2.34,0.38-3-0.62c-0.66-1-0.38-2.34,0.62-3
			c0.1-0.07,0.2-0.12,0.31-0.16l-7.04-10.72c-0.11,0.55-0.43,1.06-0.93,1.39c-1,0.66-2.34,0.38-3-0.62
			c-0.22-0.34-0.34-0.71-0.35-1.09l-4.94,3.25c0.57,1.31,0.02,2.87-1.29,3.52c-1.11,0.56-2.41,0.29-3.23-0.56l-2.86,7.71l8.93,14.29
			L43.33,34.17z M35.28,22.88c0.15,0.03,0.25,0.18,0.22,0.33c-0.03,0.15-0.18,0.25-0.33,0.22c-0.15-0.03-0.25-0.18-0.22-0.33
			C34.98,22.95,35.13,22.85,35.28,22.88z M33.05,21.3c0.28-0.18,0.65-0.1,0.83,0.17c0.18,0.28,0.11,0.65-0.17,0.84
			c-0.28,0.18-0.65,0.1-0.84-0.18C32.7,21.85,32.77,21.48,33.05,21.3z M38.31,36.5c-0.28,0.18-0.65,0.11-0.83-0.17
			c-0.18-0.28-0.1-0.65,0.17-0.83c0.28-0.18,0.65-0.1,0.83,0.17C38.67,35.95,38.59,36.32,38.31,36.5z M33.36,28.25
			c1-0.66,2.34-0.38,3,0.62c0.66,1,0.38,2.34-0.62,3c-1,0.66-2.34,0.38-3-0.62C32.09,30.25,32.37,28.91,33.36,28.25z M34.8,35.02
			c0.05-0.21,0.25-0.34,0.46-0.3c0.21,0.05,0.34,0.25,0.3,0.46c-0.05,0.21-0.25,0.34-0.46,0.3C34.89,35.43,34.76,35.23,34.8,35.02z"
			/>
		<g>
			<circle class="st3" cx="20.77" cy="23.36" r="6.7"/>
			<path class="st4" d="M15.4,25.23l5.45-1.46l-4.57,3.08C15.91,26.37,15.61,25.82,15.4,25.23z"/>
			<path class="st5" d="M17.61,28.08l3.25-4.31l-1.64,5.06C18.63,28.66,18.09,28.41,17.61,28.08z"/>
			<path class="st5" d="M20.85,29.04v-5.27l1.71,4.98C22.03,28.94,21.45,29.03,20.85,29.04z"/>
			<path class="st5" d="M20.85,23.77l5.33,1.33c-0.37,1.16-1.1,2.15-2.06,2.85L20.85,23.77z"/>
			<path class="st4" d="M20.85,23.77l-5.77-0.4v0c0-0.67,0.12-1.31,0.33-1.9L20.85,23.77z"/>
			<path class="st4" d="M17.91,18.45l2.95,5.31l-4.47-4.02C16.81,19.23,17.32,18.79,17.91,18.45z"/>
			<path class="st5" d="M21.8,17.77l-0.95,5.99l-1.06-6c0.32-0.06,0.64-0.09,0.98-0.09C21.12,17.68,21.47,17.71,21.8,17.77z"/>
			<path class="st5" d="M25.16,19.75l-4.3,4.01l2.82-5.29C24.24,18.81,24.74,19.25,25.16,19.75z"/>
			<path class="st5" d="M26.45,23.28l-5.6,0.49l5.26-2.34C26.32,22,26.44,22.63,26.45,23.28z"/>
			<path class="st6" d="M24.12,27.95c-0.47,0.35-0.99,0.62-1.55,0.8h0l-1.71-4.98L24.12,27.95z"/>
			<path class="st6" d="M26.45,23.36c0,0.61-0.1,1.19-0.27,1.73l-5.33-1.33l5.6-0.49C26.45,23.31,26.45,23.33,26.45,23.36z"/>
			<path class="st6" d="M26.11,21.42l-5.26,2.34l4.3-4.01C25.57,20.25,25.89,20.81,26.11,21.42z"/>
			<path class="st6" d="M20.85,23.77l-5.45,1.46c-0.21-0.58-0.31-1.21-0.31-1.86L20.85,23.77z"/>
			<path class="st6" d="M20.85,23.77l-3.25,4.31c-0.51-0.34-0.95-0.75-1.32-1.23L20.85,23.77z"/>
			<path class="st6" d="M20.85,23.77v5.27c-0.03,0-0.05,0-0.08,0c-0.54,0-1.06-0.08-1.56-0.22L20.85,23.77z"/>
		</g>
		<path class="st2" d="M11.02,24.88l1.11,1.69c0.08-0.08,0.17-0.15,0.27-0.22c1-0.66,2.34-0.38,3,0.62c0.66,1,0.38,2.34-0.62,3
			c-0.1,0.07-0.2,0.12-0.31,0.16l7.04,10.72c0.11-0.55,0.43-1.06,0.93-1.39c1-0.66,2.34-0.38,3,0.62c0.22,0.34,0.34,0.71,0.35,1.09
			l4.94-3.25c-0.57-1.31-0.02-2.87,1.29-3.52c1.11-0.56,2.41-0.29,3.23,0.56l5.86-3.85L29.17,12.95L11.02,24.88z M19.07,36.17
			c-0.15-0.03-0.25-0.18-0.22-0.33c0.03-0.15,0.18-0.25,0.33-0.22c0.15,0.03,0.25,0.18,0.22,0.33C19.37,36.1,19.22,36.2,19.07,36.17
			z M21.3,37.76c-0.28,0.18-0.65,0.1-0.83-0.17c-0.18-0.28-0.11-0.65,0.17-0.84c0.28-0.18,0.65-0.1,0.84,0.18
			C21.65,37.2,21.58,37.57,21.3,37.76z M16.04,22.55c0.28-0.18,0.65-0.11,0.83,0.17c0.18,0.28,0.1,0.65-0.17,0.83
			c-0.28,0.18-0.65,0.1-0.83-0.17C15.68,23.1,15.76,22.73,16.04,22.55z M20.98,30.8c-1,0.66-2.34,0.38-3-0.62
			c-0.66-1-0.38-2.34,0.62-3c1-0.66,2.34-0.38,3,0.62C22.26,28.8,21.98,30.14,20.98,30.8z M19.55,24.03
			c-0.05,0.21-0.25,0.34-0.46,0.3c-0.21-0.05-0.34-0.25-0.3-0.46c0.05-0.21,0.25-0.34,0.46-0.3C19.46,23.62,19.59,23.82,19.55,24.03
			z"/>
		<g>
			<circle class="st3" cx="21" cy="33.23" r="6.7"/>
			<path class="st4" d="M15.63,35.1l5.45-1.46l-4.57,3.08C16.13,36.23,15.83,35.69,15.63,35.1z"/>
			<path class="st5" d="M17.83,37.95l3.25-4.31l-1.64,5.06C18.86,38.53,18.32,38.28,17.83,37.95z"/>
			<path class="st5" d="M21.08,38.91v-5.27l1.71,4.98C22.25,38.8,21.68,38.9,21.08,38.91z"/>
			<path class="st5" d="M21.08,33.64l5.33,1.33c-0.37,1.16-1.1,2.15-2.06,2.85L21.08,33.64z"/>
			<path class="st4" d="M21.08,33.64l-5.77-0.4v0c0-0.67,0.12-1.31,0.33-1.9L21.08,33.64z"/>
			<path class="st4" d="M18.13,28.32l2.95,5.31l-4.47-4.02C17.04,29.1,17.55,28.66,18.13,28.32z"/>
			<path class="st5" d="M22.03,27.64l-0.95,5.99l-1.06-6c0.32-0.06,0.64-0.09,0.98-0.09C21.35,27.55,21.69,27.58,22.03,27.64z"/>
			<path class="st5" d="M25.38,29.62l-4.3,4.01l2.82-5.29C24.47,28.68,24.97,29.11,25.38,29.62z"/>
			<path class="st5" d="M26.68,33.15l-5.6,0.49l5.26-2.34C26.55,31.87,26.67,32.5,26.68,33.15z"/>
			<path class="st6" d="M24.35,37.82c-0.47,0.35-0.99,0.62-1.55,0.8h0l-1.71-4.98L24.35,37.82z"/>
			<path class="st6" d="M26.68,33.23c0,0.61-0.1,1.19-0.27,1.73l-5.33-1.33l5.6-0.49C26.68,33.17,26.68,33.2,26.68,33.23z"/>
			<path class="st6" d="M26.34,31.29l-5.26,2.34l4.3-4.01C25.79,30.12,26.12,30.68,26.34,31.29z"/>
			<path class="st6" d="M21.08,33.64l-5.45,1.46c-0.21-0.58-0.31-1.21-0.31-1.86L21.08,33.64z"/>
			<path class="st6" d="M21.08,33.64l-3.25,4.31c-0.51-0.34-0.95-0.75-1.32-1.23L21.08,33.64z"/>
			<path class="st6" d="M21.08,33.64v5.27c-0.03,0-0.05,0-0.08,0c-0.54,0-1.06-0.08-1.56-0.22L21.08,33.64z"/>
		</g>
		<g>
			<circle class="st3" cx="39.28" cy="28.66" r="6.7"/>
			<path class="st4" d="M44.62,26.72l-5.43,1.53l4.53-3.14C44.1,25.59,44.41,26.13,44.62,26.72z"/>
			<path class="st5" d="M42.38,23.9l-3.19,4.35l1.57-5.08C41.35,23.33,41.89,23.58,42.38,23.9z"/>
			<path class="st5" d="M39.12,22.98l0.07,5.27l-1.78-4.96C37.95,23.11,38.52,23,39.12,22.98z"/>
			<path class="st5" d="M39.19,28.26L33.85,27c0.35-1.16,1.07-2.17,2.02-2.88L39.19,28.26z"/>
			<path class="st4" d="M39.19,28.26l5.77,0.33l0,0c0.01,0.67-0.1,1.31-0.3,1.9L39.19,28.26z"/>
			<path class="st4" d="M42.21,33.53l-3.02-5.27l4.52,3.96C43.3,32.74,42.79,33.18,42.21,33.53z"/>
			<path class="st5" d="M38.32,34.26l0.87-6.01l1.14,5.99c-0.32,0.06-0.64,0.09-0.97,0.1C39.01,34.35,38.66,34.32,38.32,34.26z"/>
			<path class="st5" d="M34.94,32.33l4.25-4.07l-2.74,5.33C35.87,33.26,35.36,32.83,34.94,32.33z"/>
			<path class="st5" d="M33.6,28.82l5.59-0.56l-5.23,2.41C33.75,30.1,33.62,29.47,33.6,28.82z"/>
			<path class="st6" d="M35.87,24.12c0.46-0.35,0.98-0.63,1.54-0.82l0,0l1.78,4.96L35.87,24.12z"/>
			<path class="st6" d="M33.6,28.74c-0.01-0.61,0.08-1.19,0.25-1.74l5.34,1.26l-5.59,0.56C33.6,28.79,33.6,28.77,33.6,28.74z"/>
			<path class="st6" d="M33.96,30.67l5.23-2.41l-4.25,4.07C34.53,31.84,34.19,31.28,33.96,30.67z"/>
			<path class="st6" d="M39.19,28.26l5.43-1.53c0.21,0.58,0.33,1.21,0.34,1.86L39.19,28.26z"/>
			<path class="st6" d="M39.19,28.26l3.19-4.35c0.51,0.33,0.96,0.74,1.34,1.21L39.19,28.26z"/>
			<path class="st6" d="M39.19,28.26l-0.07-5.27c0.03,0,0.05,0,0.08,0c0.54-0.01,1.07,0.06,1.56,0.2L39.19,28.26z"/>
		</g>
		<path class="st7" d="M45.55,16.48c0,0.84-0.77,1.62-2.1,2.3v23.6H16.52v-23.6c-1.34-0.68-2.1-1.47-2.1-2.3
			c0-2.53,6.97-4.58,15.57-4.58C38.58,11.9,45.55,13.95,45.55,16.48z"/>
		<path class="st8" d="M42.67,17.24c0,0.68-0.62,1.32-1.71,1.88v21.87H19.01V19.12c-1.09-0.55-1.71-1.19-1.71-1.88
			c0-2.06,5.68-3.73,12.68-3.73C36.99,13.51,42.67,15.18,42.67,17.24z"/>
		<ellipse transform="matrix(0.866 -0.5 0.5 0.866 -5.4267 14.0636)" class="st9" cx="23.53" cy="17.16" rx="0.27" ry="0.55"/>
		<ellipse transform="matrix(0.293 -0.9561 0.9561 0.293 0.8256 53.3852)" class="st9" cx="36.51" cy="26.13" rx="0.55" ry="0.27"/>
		
			<ellipse transform="matrix(0.9173 -0.3982 0.3982 0.9173 -7.9279 12.9408)" class="st9" cx="27.19" cy="25.56" rx="0.27" ry="0.55"/>
		
			<ellipse transform="matrix(0.9404 -0.3401 0.3401 0.9404 -5.0402 14.1503)" class="st9" cx="37.84" cy="21.45" rx="0.27" ry="0.55"/>
		
			<ellipse transform="matrix(0.2474 -0.9689 0.9689 0.2474 4.9409 45.7766)" class="st9" cx="31.94" cy="19.71" rx="0.55" ry="0.27"/>
		
			<ellipse transform="matrix(0.9636 -0.2674 0.2674 0.9636 -5.8653 6.6147)" class="st9" cx="21.35" cy="24.84" rx="0.27" ry="0.55"/>
		<ellipse transform="matrix(0.1991 -0.98 0.98 0.1991 -2.7568 38.6482)" class="st10" cx="22.27" cy="21.01" rx="0.55" ry="0.27"/>
		
			<ellipse transform="matrix(0.9555 -0.2951 0.2951 0.9555 -8.6013 8.0567)" class="st9" cx="22.39" cy="32.53" rx="0.27" ry="0.55"/>
		
			<ellipse transform="matrix(0.9341 -0.3569 0.3569 0.9341 -9.8924 11.9823)" class="st10" cx="27.52" cy="32.79" rx="0.27" ry="0.55"/>
		
			<ellipse transform="matrix(0.2595 -0.9658 0.9658 0.2595 -21.9676 49.1696)" class="st9" cx="21.08" cy="38.91" rx="0.55" ry="0.27"/>
		
			<ellipse transform="matrix(0.1921 -0.9814 0.9814 0.1921 -6.2318 60.0928)" class="st10" cx="33.38" cy="33.83" rx="0.55" ry="0.27"/>
		<ellipse class="st9" cx="30.56" cy="29.95" rx="0.27" ry="0.55"/>
		<ellipse class="st10" cx="37.74" cy="29.8" rx="0.27" ry="0.55"/>
		
			<ellipse transform="matrix(0.9558 -0.2941 0.2941 0.9558 -8.2726 13.0057)" class="st9" cx="39.11" cy="34.01" rx="0.27" ry="0.55"/>
		
			<ellipse transform="matrix(0.9671 -0.2543 0.2543 0.9671 -8.7052 10.2898)" class="st9" cx="35.45" cy="38.82" rx="0.27" ry="0.55"/>
		
			<ellipse transform="matrix(0.9288 -0.3705 0.3705 0.9288 -12.0498 11.83)" class="st10" cx="24.77" cy="37.28" rx="0.27" ry="0.55"/>
		
			<ellipse transform="matrix(0.5437 -0.8393 0.8393 0.5437 -13.0881 34.3281)" class="st10" cx="25.02" cy="29.2" rx="0.55" ry="0.27"/>
		
			<ellipse transform="matrix(0.2257 -0.9742 0.9742 0.2257 -15.6017 59.218)" class="st9" cx="29.45" cy="39.42" rx="0.55" ry="0.27"/>
		
			<ellipse transform="matrix(0.2531 -0.9674 0.9674 0.2531 -9.0147 68.0278)" class="st10" cx="39.55" cy="39.85" rx="0.55" ry="0.27"/>
		
			<ellipse transform="matrix(0.9601 -0.2798 0.2798 0.9601 -5.5983 9.9566)" class="st10" cx="32.07" cy="24.59" rx="0.27" ry="0.55"/>
		
			<ellipse transform="matrix(0.3515 -0.9362 0.9362 0.3515 -1.5273 39.5085)" class="st9" cx="27.76" cy="20.86" rx="0.55" ry="0.27"/>
		
			<ellipse transform="matrix(0.9377 -0.3474 0.3474 0.9377 -3.335 13.4706)" class="st10" cx="35.9" cy="16.04" rx="0.27" ry="0.55"/>
		
			<ellipse transform="matrix(0.946 -0.3241 0.3241 0.946 -3.2762 10.4003)" class="st10" cx="29.58" cy="15.03" rx="0.27" ry="0.55"/>
		
			<ellipse transform="matrix(0.1795 -0.9838 0.9838 0.1795 -1.17 32.5109)" class="st10" cx="18.91" cy="16.96" rx="0.55" ry="0.27"/>
		
			<ellipse transform="matrix(0.174 -0.9847 0.9847 0.174 15.0934 53.5809)" class="st9" cx="39.49" cy="17.79" rx="0.55" ry="0.27"/>
	</g>
</g>
</svg>
