<?xml version="1.0" encoding="utf-8"?>
<!-- Generator: Adobe Illustrator 23.0.3, SVG Export Plug-In . SVG Version: 6.00 Build 0)  -->
<svg version="1.1" id="Layer_1" xmlns="http://www.w3.org/2000/svg" xmlns:xlink="http://www.w3.org/1999/xlink" x="0px" y="0px"
	 viewBox="0 0 57 58" style="enable-background:new 0 0 57 58;" xml:space="preserve">
<style type="text/css">
	.st0{fill:#8EB260;}
	.st1{fill:#C01823;}
	.st2{fill:#7DB343;stroke:#719B3B;stroke-width:0.25;stroke-miterlimit:10;}
	.st3{fill:#719B3B;}
	.st4{fill:#719B3B;stroke:#7DB343;stroke-width:0.096;stroke-miterlimit:10;}
</style>
<g>
	<circle class="st0" cx="28.5" cy="29" r="24"/>
	<g>
		<circle class="st1" cx="22.9" cy="16.12" r="5.87"/>
		<circle class="st1" cx="34.1" cy="16.12" r="5.87"/>
		<circle class="st1" cx="22.9" cy="28.59" r="5.87"/>
		<circle class="st1" cx="34.1" cy="28.59" r="5.87"/>
		<circle class="st1" cx="22.9" cy="41.36" r="5.87"/>
		<circle class="st1" cx="34.1" cy="41.36" r="5.87"/>
		<polygon class="st2" points="26.21,19.21 23.52,18.2 21.76,20.46 21.28,17.63 18.44,17.23 20.65,15.4 19.58,12.74 22.27,13.74 
			24.04,11.48 24.51,14.31 27.36,14.72 25.14,16.54 		"/>
		<polygon class="st2" points="37.57,19.11 34.88,18.11 33.11,20.37 32.63,17.54 29.79,17.13 32.01,15.31 30.93,12.64 33.62,13.65 
			35.39,11.39 35.87,14.22 38.71,14.62 36.5,16.45 		"/>
		<polygon class="st2" points="26.36,31.58 23.67,30.58 21.9,32.84 21.43,30.01 18.58,29.61 20.8,27.78 19.72,25.12 22.41,26.12 
			24.18,23.86 24.66,26.69 27.5,27.09 25.29,28.92 		"/>
		<polygon class="st2" points="37.57,31.58 34.88,30.58 33.11,32.84 32.63,30.01 29.79,29.61 32.01,27.78 30.93,25.12 33.62,26.12 
			35.39,23.86 35.87,26.69 38.71,27.09 36.5,28.92 		"/>
		<polygon class="st2" points="26.36,44.35 23.67,43.34 21.9,45.6 21.43,42.77 18.58,42.37 20.8,40.54 19.72,37.88 22.41,38.89 
			24.18,36.62 24.66,39.46 27.5,39.86 25.29,41.69 		"/>
		<polygon class="st2" points="37.57,44.35 34.88,43.34 33.11,45.6 32.63,42.77 29.79,42.37 32.01,40.54 30.93,37.88 33.62,38.89 
			35.39,36.62 35.87,39.46 38.71,39.86 36.5,41.69 		"/>
		<rect x="27.64" y="9.28" class="st3" width="1.21" height="39.43"/>
		
			<rect x="21.08" y="18.25" transform="matrix(0.652 0.7582 -0.7582 0.652 23.0282 -12.877)" class="st3" width="8.92" height="0.8"/>
		
			<rect x="26.85" y="18.54" transform="matrix(-0.652 0.7582 -0.7582 -0.652 66.0905 7.547)" class="st3" width="8.92" height="0.8"/>
		
			<rect x="21.08" y="31.01" transform="matrix(0.652 0.7582 -0.7582 0.652 32.7078 -8.4341)" class="st3" width="8.92" height="0.8"/>
		
			<rect x="26.85" y="31.31" transform="matrix(-0.652 0.7582 -0.7582 -0.652 75.7701 28.6361)" class="st3" width="8.92" height="0.8"/>
		<rect x="21.08" y="43" transform="matrix(0.652 0.7582 -0.7582 0.652 41.7941 -4.2637)" class="st3" width="8.92" height="0.8"/>
		
			<rect x="26.85" y="43.29" transform="matrix(-0.652 0.7582 -0.7582 -0.652 84.8564 48.4324)" class="st3" width="8.92" height="0.8"/>
		<polygon class="st4" points="35.52,17.12 34.49,16.73 33.81,17.6 33.63,16.51 32.54,16.36 33.39,15.66 32.98,14.63 34.01,15.02 
			34.69,14.15 34.87,15.24 35.96,15.39 35.11,16.1 		"/>
		<polygon class="st4" points="24.21,17.12 23.18,16.73 22.5,17.6 22.32,16.51 21.23,16.36 22.08,15.66 21.67,14.63 22.7,15.02 
			23.38,14.15 23.56,15.24 24.65,15.39 23.8,16.1 		"/>
		<polygon class="st4" points="24.21,29.59 23.18,29.2 22.5,30.07 22.32,28.99 21.23,28.83 22.08,28.13 21.67,27.11 22.7,27.49 
			23.38,26.62 23.56,27.71 24.65,27.87 23.8,28.57 		"/>
		<polygon class="st4" points="35.42,29.59 34.39,29.2 33.71,30.07 33.53,28.99 32.43,28.83 33.28,28.13 32.87,27.11 33.91,27.49 
			34.58,26.62 34.77,27.71 35.86,27.87 35.01,28.57 		"/>
		<polygon class="st4" points="35.42,42.25 34.39,41.87 33.71,42.73 33.53,41.65 32.43,41.49 33.28,40.79 32.87,39.77 33.91,40.15 
			34.58,39.29 34.77,40.37 35.86,40.53 35.01,41.23 		"/>
		<polygon class="st4" points="24.11,42.25 23.08,41.87 22.4,42.73 22.21,41.65 21.12,41.49 21.97,40.79 21.56,39.77 22.59,40.15 
			23.27,39.29 23.45,40.37 24.55,40.53 23.7,41.23 		"/>
	</g>
</g>
</svg>
